<?xml version="1.0" encoding="UTF-8"?>
<svg id="Capa_2" data-name="Capa 2" xmlns="http://www.w3.org/2000/svg" viewBox="0 0 198.25 53.48">
  <defs>
    <style>
      .cls-1 {
        fill: #fff;
      }
    </style>
  </defs>
  <g id="Capa_1-2" data-name="Capa 1">
    <g>
      <g>
        <path class="cls-1" d="M71.29,16.77l6.19,16.16,6.25-16.16h3.53l-8.11,19.88h-3.5l-8-19.88h3.64Z"/>
        <path class="cls-1" d="M115.2,26.71c0,5.68-4.64,10.08-10.63,10.08s-10.63-4.4-10.63-10.08,4.64-10.03,10.63-10.03,10.63,4.35,10.63,10.03Zm-17.83,0c0,3.95,3.3,7.07,7.22,7.07s7.14-3.12,7.14-7.07-3.21-7.02-7.14-7.02-7.22,3.07-7.22,7.02Z"/>
        <path class="cls-1" d="M143.15,26.71c0,5.74-4.39,9.94-10.46,9.94h-8.14V16.77h8.23c6.02,0,10.38,4.18,10.38,9.94Zm-3.41,.03c0-4.06-3.07-6.96-7.02-6.96h-4.79v13.86h4.93c3.9,0,6.88-2.87,6.88-6.9Z"/>
        <path class="cls-1" d="M166.83,16.77v3.01h-10.95v5.4h9.8v2.98h-9.8v5.48h11.29v3.01h-14.68V16.77h14.33Z"/>
        <path class="cls-1" d="M181.05,16.77l6.62,13.21,6.59-13.21h3.98v19.88h-3.12l-.03-14.86-6.34,12.78h-2.21l-6.33-12.78v14.86h-3.18V16.77h4.01Z"/>
      </g>
      <g>
        <polygon class="cls-1" points="24.77 53.48 49.41 33.1 49.41 18 24.77 38.5 24.77 53.48"/>
        <polygon class="cls-1" points="24.63 35.48 0 15.11 0 0 24.63 20.51 24.63 35.48"/>
      </g>
    </g>
  </g>
</svg>