<?xml version="1.0" encoding="UTF-8"?>
<svg id="Capa_2" data-name="Capa 2" xmlns="http://www.w3.org/2000/svg" viewBox="0 0 142.7 163.06">
  <defs>
    <style>
      .cls-1 {
        fill: #fff;
      }
    </style>
  </defs>
  <g id="Capa_1-2" data-name="Capa 1">
    <g>
      <g>
        <path class="cls-1" d="M21.52,158.21c0,2.7-2.22,4.83-5.01,4.83s-5.03-2.14-5.03-4.83,2.22-4.82,5.03-4.82,5.01,2.12,5.01,4.82Zm-8.93,0c0,2.12,1.78,3.83,3.92,3.83s3.89-1.71,3.89-3.83-1.75-3.81-3.89-3.81-3.92,1.68-3.92,3.81Z"/>
        <path class="cls-1" d="M30.74,159.42c0,2.14-1.4,3.63-3.44,3.63-1.29,0-2.27-.59-2.81-1.59v1.55h-1.07v-10.16h1.07v4.5c.53-1,1.52-1.59,2.78-1.59,2.04,0,3.46,1.51,3.46,3.66Zm-1.08-.03c0-1.56-1.07-2.71-2.57-2.71s-2.59,1.14-2.59,2.71,1.07,2.71,2.59,2.71,2.57-1.14,2.57-2.71Z"/>
        <path class="cls-1" d="M36.28,155.76v1.04c-1.52-.03-2.46,.92-2.59,2.37v3.83h-1.07v-7.2h1.07v1.6c.48-1.05,1.37-1.63,2.59-1.64Z"/>
        <path class="cls-1" d="M41.85,163v-1.12c-.58,.78-1.49,1.16-2.64,1.16-1.49,0-2.45-.95-2.45-2.18s1-2.05,2.7-2.07h2.37v-.45c0-1.05-.66-1.7-1.93-1.7-.79,0-1.53,.3-2.29,.84l-.45-.75c.93-.62,1.71-.97,2.94-.97,1.78,0,2.77,.95,2.78,2.48v4.76s-1.03,0-1.03,0Zm-.01-2.48v-.88h-2.25c-1.21,0-1.83,.37-1.83,1.18s.64,1.33,1.66,1.33c1.22,0,2.15-.6,2.42-1.63Z"/>
        <path class="cls-1" d="M47.12,156.65c-.81,0-1.42,.29-1.42,.97,0,1.63,4.03,.79,4.03,3.38,0,1.41-1.26,2.04-2.64,2.04-1.03,0-2.08-.36-2.77-1.01l.41-.78c.62,.58,1.55,.92,2.4,.92s1.53-.33,1.55-1.05c.04-1.75-4-.86-3.98-3.41,0-1.37,1.19-1.96,2.51-1.96,.86,0,1.7,.26,2.3,.66l-.41,.82c-.56-.36-1.29-.58-1.96-.58Z"/>
        <path class="cls-1" d="M56.83,153.42v9.58h-1.1v-9.58h1.1Z"/>
        <path class="cls-1" d="M66.18,158.57v4.44h-1.07v-4.16c0-1.29-.77-2.05-2.04-2.05-1.42,.01-2.3,.96-2.42,2.36v3.86h-1.07v-7.2h1.07v1.59c.51-1.1,1.48-1.62,2.79-1.63,1.73,0,2.74,1.05,2.74,2.81Z"/>
        <path class="cls-1" d="M75.19,152.84v10.16h-1.07v-1.55c-.53,1.01-1.52,1.6-2.81,1.6-2.05,0-3.48-1.52-3.48-3.67s1.42-3.64,3.46-3.64c1.29,0,2.29,.59,2.82,1.62v-4.52h1.07Zm-1.07,6.57c0-1.59-1.08-2.74-2.6-2.74s-2.62,1.15-2.62,2.74,1.08,2.72,2.62,2.72,2.6-1.14,2.6-2.72Z"/>
        <path class="cls-1" d="M84.12,155.8v7.2h-1.07v-1.63c-.48,1.12-1.44,1.66-2.74,1.67-1.68,0-2.7-1.07-2.7-2.81v-4.44h1.07v4.16c0,1.29,.75,2.05,2,2.05,1.49-.03,2.37-1.12,2.37-2.68v-3.53h1.07Z"/>
        <path class="cls-1" d="M88.57,156.65c-.81,0-1.42,.29-1.42,.97,0,1.63,4.03,.79,4.03,3.38,0,1.41-1.26,2.04-2.64,2.04-1.03,0-2.08-.36-2.77-1.01l.41-.78c.62,.58,1.55,.92,2.4,.92s1.53-.33,1.55-1.05c.04-1.75-4-.86-3.98-3.41,0-1.37,1.19-1.96,2.51-1.96,.86,0,1.7,.26,2.3,.66l-.41,.82c-.56-.36-1.29-.58-1.96-.58Z"/>
        <path class="cls-1" d="M96.65,162.51c-.51,.34-1.05,.53-1.63,.53-1.05,.01-1.83-.62-1.83-2.04v-4.15h-1.04v-.84h1.04v-1.89h1.05v1.89h2.29v.84h-2.29v3.97c0,.88,.34,1.23,.96,1.23,.37-.01,.75-.14,1.15-.37l.3,.82Z"/>
        <path class="cls-1" d="M101.92,155.76v1.04c-1.52-.03-2.46,.92-2.59,2.37v3.83h-1.07v-7.2h1.07v1.6c.48-1.05,1.37-1.63,2.59-1.64Z"/>
        <path class="cls-1" d="M104.57,153.73c0,.41-.3,.73-.7,.73s-.7-.32-.7-.73,.3-.73,.7-.73,.7,.3,.7,.73Zm-.16,2.07v7.2h-1.05v-7.2h1.05Z"/>
        <path class="cls-1" d="M111.49,163v-1.12c-.58,.78-1.49,1.16-2.64,1.16-1.49,0-2.45-.95-2.45-2.18s1-2.05,2.7-2.07h2.37v-.45c0-1.05-.66-1.7-1.93-1.7-.79,0-1.53,.3-2.29,.84l-.45-.75c.93-.62,1.71-.97,2.94-.97,1.78,0,2.77,.95,2.78,2.48v4.76s-1.03,0-1.03,0Zm-.01-2.48v-.88h-2.25c-1.21,0-1.83,.37-1.83,1.18s.64,1.33,1.66,1.33c1.22,0,2.15-.6,2.42-1.63Z"/>
        <path class="cls-1" d="M116.05,152.84v10.16h-1.07v-10.16h1.07Z"/>
        <path class="cls-1" d="M124.93,159.8h-5.89c.18,1.42,1.21,2.36,2.62,2.36,.89,0,1.67-.33,2.23-.92l.59,.62c-.68,.75-1.7,1.19-2.9,1.19-2.12,0-3.59-1.49-3.59-3.64s1.48-3.63,3.57-3.64c2.33,0,3.48,1.6,3.37,4.04Zm-.96-.85c-.07-1.4-1-2.3-2.41-2.3s-2.37,.9-2.52,2.3h4.93Z"/>
        <path class="cls-1" d="M128.62,156.65c-.81,0-1.42,.29-1.42,.97,0,1.63,4.03,.79,4.03,3.38,0,1.41-1.26,2.04-2.64,2.04-1.03,0-2.08-.36-2.77-1.01l.41-.78c.62,.58,1.55,.92,2.4,.92s1.53-.33,1.55-1.05c.04-1.75-4-.86-3.98-3.41,0-1.37,1.19-1.96,2.51-1.96,.86,0,1.7,.26,2.3,.66l-.41,.82c-.56-.36-1.29-.58-1.96-.58Z"/>
      </g>
      <g>
        <path class="cls-1" d="M3.98,122.56l6.77,17.66,6.83-17.66h3.85l-8.86,21.73h-3.82L0,122.56H3.98Z"/>
        <path class="cls-1" d="M51.96,133.42c0,6.21-5.07,11.02-11.62,11.02s-11.62-4.81-11.62-11.02,5.07-10.96,11.62-10.96,11.62,4.75,11.62,10.96Zm-19.48,0c0,4.31,3.6,7.73,7.89,7.73s7.8-3.41,7.8-7.73-3.51-7.67-7.8-7.67-7.89,3.35-7.89,7.67Z"/>
        <path class="cls-1" d="M82.5,133.42c0,6.27-4.79,10.86-11.43,10.86h-8.89v-21.73h8.99c6.58,0,11.34,4.56,11.34,10.86Zm-3.73,.03c0-4.44-3.35-7.6-7.67-7.6h-5.23v15.15h5.39c4.26,0,7.52-3.14,7.52-7.54Z"/>
        <path class="cls-1" d="M108.37,122.56v3.29h-11.96v5.9h10.71v3.26h-10.71v5.99h12.34v3.29h-16.04v-21.73h15.66Z"/>
        <path class="cls-1" d="M123.91,122.56l7.24,14.43,7.2-14.43h4.35v21.73h-3.41l-.03-16.23-6.92,13.97h-2.41l-6.92-13.97v16.23h-3.48v-21.73h4.38Z"/>
      </g>
      <g>
        <polygon class="cls-1" points="71.48 103.76 119.28 64.23 119.28 34.92 71.48 74.7 71.48 103.76"/>
        <polygon class="cls-1" points="71.21 68.84 23.42 29.32 23.42 0 71.21 39.79 71.21 68.84"/>
      </g>
    </g>
  </g>
</svg>