<?xml version="1.0" encoding="UTF-8"?>
<svg id="Capa_2" data-name="Capa 2" xmlns="http://www.w3.org/2000/svg" viewBox="0 0 46.69 46.84">
  <defs>
    <style>
      .cls-1 {
        fill: #f9f9f9;
      }
    </style>
  </defs>
  <g id="Capa_1-2" data-name="Capa 1">
    <g id="fL4Qr8.tif">
      <g>
        <path class="cls-1" d="M46.69,13.83v18.83c-.03,.16-.06,.33-.08,.49-.1,.92-.15,1.85-.3,2.76-.5,2.94-1.75,5.48-4.01,7.49-2.44,2.17-5.39,3.03-8.57,3.25-1.11,.07-2.21,.12-3.32,.18h-14.08c-.29-.03-.57-.07-.86-.07-1.87-.05-3.74-.12-5.58-.57-3.85-.94-6.72-3.14-8.42-6.75C.43,37.2,.11,34.78,.08,32.33,.03,27.29-.01,22.25,0,17.21c0-2.3,.03-4.6,.53-6.87C1.41,6.34,3.6,3.33,7.34,1.55,9.56,.5,11.94,.19,14.36,.13c6.46-.15,12.91-.23,19.37,.08,1.88,.09,3.72,.45,5.44,1.24,4.28,1.94,6.54,5.38,7.24,9.94,.12,.81,.19,1.63,.28,2.44Zm-23.32,28.87s0-.05,0-.07c1.23,0,2.47,.04,3.7,0,2.66-.1,5.34-.06,7.98-.4,3.6-.45,6.03-2.53,6.91-6.11,.35-1.43,.47-2.95,.5-4.43,.08-4.72,.1-9.45,.07-14.17-.01-1.88-.1-3.78-.34-5.65-.47-3.77-2.82-6.32-6.55-7.07-1.6-.32-3.26-.41-4.9-.44-4.36-.06-8.71-.08-13.07-.02-2.08,.02-4.19,.08-6.23,.41-3.52,.57-5.85,2.65-6.65,6.17-.35,1.57-.45,3.23-.49,4.85-.09,3.79-.11,7.59-.07,11.38,.03,2.6,.1,5.21,.35,7.8,.25,2.59,1.46,4.73,3.74,6.13,1.51,.94,3.21,1.31,4.96,1.38,3.36,.12,6.73,.18,10.09,.26Z"/>
        <path class="cls-1" d="M23.35,35.46c-6.66-.04-12.05-5.46-12-12.06,.05-6.66,5.47-12.04,12.07-11.98,6.68,.06,12.04,5.48,11.97,12.08-.07,6.66-5.45,12.01-12.04,11.97Zm-7.76-12.02c0,4.31,3.47,7.78,7.78,7.79,4.32,0,7.79-3.45,7.8-7.77,.01-4.33-3.47-7.82-7.8-7.81-4.31,0-7.78,3.48-7.77,7.79Z"/>
        <path class="cls-1" d="M38.67,10.95c0,1.57-1.27,2.8-2.83,2.79-1.53-.01-2.77-1.28-2.77-2.82,0-1.54,1.25-2.78,2.79-2.78,1.57,0,2.81,1.24,2.81,2.81Z"/>
      </g>
    </g>
  </g>
</svg>