<?xml version="1.0" encoding="UTF-8"?>
<svg id="Capa_2" data-name="Capa 2" xmlns="http://www.w3.org/2000/svg" viewBox="0 0 371.85 360.1">
  <defs>
    <style>
      .cls-1 {
        fill: #fff;
      }
    </style>
  </defs>
  <g id="Capa_2-2" data-name="Capa 2">
    <g id="Capa_1-2" data-name="Capa 1-2">
      <path class="cls-1" d="M101.67,250.51c-5.6-7.21-10.39-14.46-14.52-22.13-11.3-20.99-17.62-43.4-18.46-67.21-1.56-43.76,12.29-82,42.34-113.96C135.1,21.6,164.72,5.98,199.65,1.45c47.59-6.18,89.19,7.42,124.16,40.22,25.75,24.15,41.27,54.13,46.24,89.03,6.68,46.99-5.31,88.96-35.98,125.41-.44,.53-1.12,.93-1.13,1.91,3.94-.39,7.84-.88,11.77-.73,3.41,.13,6.74,.6,9.93,1.87,8.79,3.49,11.82,13.99,6.14,21.64-4.15,5.58-9.72,9.63-15.41,13.49-15.7,10.66-32.6,19.18-49.6,27.49-21.33,10.42-43.1,19.88-64.87,29.33-11.46,4.98-23.49,5.88-35.78,5.2-20.41-1.12-40.09-6.21-59.83-10.97-7.51-1.81-15.07-3.45-22.57-5.33-2.95-.74-5.78-.08-8.65,.16-8.76,.74-17.51,1.61-26.26,2.38-1.1,.1-1.42,.55-1.71,1.57-2.83,10.13-10.65,15.98-21.21,15.98H21.46C9.2,360.1,.04,350.99,.02,338.71,0,314,0,289.29,.02,264.58c0-12.29,9.16-21.41,21.41-21.42,11.31,0,22.61,0,33.92,0,8.09,0,14.22,3.55,18.47,10.4,.47,.75,.75,1.52,1.96,1.31,8.49-1.47,16.99-2.87,25.9-4.36h0ZM261.89,18.28c-.13-.23-.39-.37-.53-.15-.19,.28,.13,.31,.32,.36,2.84,3.28,5.82,6.45,8.49,9.86,10.75,13.73,18.08,29.26,23.53,45.72,.68,2.05,1.28,2.16,2.99,.99,8.16-5.57,15.73-11.82,22.69-18.83,1.1-1.1,.95-1.61-.05-2.62-10.77-10.97-22.96-20-36.67-26.95-6.68-3.38-13.5-6.44-20.77-8.38ZM76.73,298.64v30.28c0,.93-.49,2.14,1.41,1.94,7.3-.77,14.6-1.51,21.91-2.08,5.19-.41,10.35-1.55,15.61-.19,7.72,1.99,15.51,3.7,23.26,5.57,19.03,4.59,38,9.53,57.69,10.54,9.9,.51,19.68-.08,28.94-4.07,20.16-8.69,40.31-17.42,60.17-26.77,18.13-8.53,36.27-17.07,53.2-27.89,4.08-2.61,8.13-5.3,11.2-9.14,2.87-3.59,1.68-6.64-2.86-7.47-5.35-.98-10.63-.15-15.86,.8-13.27,2.41-26,6.68-38.65,11.23-19.54,7.03-38.58,15.28-57.55,23.69-2.09,.92-4.19,1.75-6.5,1.56-3.54-.28-7.09-.51-10.59-1.01-21.46-3.07-42.75-7.15-64.06-11.15-3.87-.73-7.76-1.56-11.16-3.74-1.74-1.12-2.86-2.66-2.64-4.82,.24-2.34,1.4-4.08,3.69-4.94,1.29-.49,2.62-.78,3.99-.88,4.5-.33,9.01-.6,13.51-.98,8.68-.74,17.33-1.71,25.55-4.84,3.26-1.24,6.37-2.8,8.36-5.87,3-4.63,.72-10.28-4.62-11.55-2.87-.69-5.79-.72-8.67-.37-19.08,2.37-38.24,3.29-57.45,3.18-2.25-.01-4.49-.31-6.76,.07-13.04,2.19-26.08,4.34-39.13,6.45-1.5,.24-2.06,.78-2.05,2.43,.09,10.01,.05,20.02,.05,30.03h0ZM209.9,98.13c32.19,0,52.81-4.92,72.36-14.68,1.65-.82,1.76-1.55,1.25-3.09-3.71-11.26-8.2-22.19-14.23-32.42-6.79-11.5-14.89-21.89-26.33-29.18-10.91-6.95-22.6-9.21-35.09-5.03-11.41,3.81-20.06,11.46-27.45,20.64-11.12,13.81-18.2,29.71-23.71,46.41-.54,1.64,.27,2.05,1.44,2.64,19.48,9.83,40.13,14.68,51.77,14.72h-.01Zm-26.43,189.59c.79,.34,.99,.48,1.2,.51,10.49,1.79,21.04,3.25,31.44,5.44,8.06,1.7,15.23,.75,22.75-2.82,7.26-3.45,13.41-7.85,18.58-13.84,12.61-14.59,20.46-31.69,26.3-49.86,.56-1.73-.66-1.74-1.45-2.14-23.1-11.58-47.52-16.37-73.29-14.33-17.89,1.41-34.81,6.23-50.86,14.22-1.5,.75-1.96,1.41-1.31,3.07,1.59,4.04,2.9,8.19,4.48,12.23,2.58,6.59,2.62,6.47,9.64,5.69,6-.67,11.99-1.62,18.08-1.21,13.74,.92,22.52,12.75,18.89,25.65-1.72,6.12-6.25,9.78-11.59,12.63-3.91,2.09-8.11,3.39-12.87,4.75h.01Zm103.73-73.43c.22-.64,.44-1.15,.57-1.68,3.81-16.47,5.92-33.15,6.48-50.05,.07-2.17-.48-2.61-2.58-2.61-47.65,.07-95.29,.05-142.94,.05-.4,0-.81,.03-1.21,0-1.12-.12-1.55,.25-1.51,1.48,.64,16.8,2.49,33.44,6.26,49.84,.71,3.08,.69,3.04,3.47,1.74,32.94-15.45,67.06-18.58,102.3-9.73,10.09,2.53,19.75,6.3,29.15,10.96h0Zm.13-120.12c-.23,.05-.4,.06-.54,.13-.44,.2-.86,.43-1.3,.64-33.5,15.87-68.18,19.19-104.07,9.87-9.14-2.37-17.95-5.67-26.41-9.85-1.61-.79-2.34-.68-2.48,1.19-.03,.4-.19,.78-.28,1.17-3.61,15.93-5.55,32.06-6.16,48.38-.09,2.46,.63,2.64,2.65,2.64,25.51-.06,51.02-.04,76.53-.04,22.12,0,44.24-.02,66.36,.04,1.9,0,2.77-.12,2.65-2.49-.36-7.09-.77-14.17-1.56-21.22-1.15-10.26-2.85-20.42-5.39-30.44v-.02ZM11.72,301.53v36.07c0,7.05,3.7,10.79,10.67,10.79H54.83c6.19,0,10.17-3.91,10.17-10.08,.02-24.45,.02-48.91,0-73.36,0-6.15-4-10.06-10.19-10.07H22.13c-6.51,0-10.4,3.85-10.41,10.33,0,12.11,0,24.21,0,36.32Zm316.64-56.99c3.06-3.65,5.77-7.43,8.31-11.34,13.98-21.52,21.67-45.11,23.29-70.72,.14-2.16-.39-2.53-2.37-2.52-15.81,.07-31.63,.04-47.44,.04-2.74,0-4.15,1.41-4.23,4.23-.03,1.13-.06,2.26-.11,3.38-.86,17.18-3.2,34.15-7.38,50.85-.24,.95-.66,1.73,.53,2.46,10.79,6.58,20.48,14.54,29.41,23.63h-.01ZM107.54,159.99c-8.31,0-16.62,.07-24.93-.05-1.91-.03-2.36,.56-2.15,2.32,.4,3.44,.56,6.91,1,10.34,3.32,26.17,13.17,49.62,29.31,70.47,.88,1.14,1.33,1.43,2.5,.24,8.36-8.46,17.56-15.9,27.7-22.13,1.2-.74,1.39-1.46,1.07-2.71-4.76-18.5-7.09-37.33-7.62-56.39-.04-1.62-.46-2.15-2.18-2.13-8.23,.1-16.46,.05-24.69,.05h-.01ZM328.36,63.8c-8.96,9.2-18.65,17.05-29.34,23.65-.84,.52-1.04,1.02-.8,1.96,4.8,18.74,7.32,37.79,7.67,57.13,.02,1.35,.45,1.78,1.83,1.77,16.87-.04,33.74-.04,50.61,0,1.37,0,1.77-.33,1.68-1.76-.99-15.38-4.02-30.31-9.63-44.69-5.36-13.75-12.62-26.41-22.02-38.06h0ZM107.17,148.28c8.24,0,16.47-.08,24.71,.05,2.01,.03,2.52-.5,2.55-2.48,.12-7.66,.71-15.3,1.58-22.92,1.28-11.23,3.22-22.33,6.04-33.28,.27-1.07,.12-1.71-.92-2.36-10.19-6.31-19.53-13.71-27.88-22.33-.98-1.01-1.45-1.01-2.33,.13-18.53,23.88-28.64,50.91-30.48,81.07-.1,1.68,.29,2.17,2.03,2.15,8.24-.1,16.47-.04,24.71-.04h0Zm38.62-71.93c7.14-21.44,16.79-41.3,32.83-57.67-1.39-.5-2.18,.1-2.97,.37-19.45,6.77-36.67,17.2-51.5,31.52-1.45,1.4-3.95,2.73-3.9,4.34,.05,1.49,2.39,2.96,3.82,4.33,6.65,6.37,13.79,12.1,21.73,17.1h0Zm127.74,199.28c.84,.29,1.24-.03,1.68-.2,10.06-3.86,20.15-7.66,30.5-10.68,3.39-.99,6.17-2.56,8.58-5.03,1.63-1.68,3.28-3.35,5.03-4.9,1.1-.97,1.12-1.53,.05-2.63-7.15-7.28-14.99-13.7-23.48-19.35-1.18-.78-1.47-.55-1.88,.73-2.1,6.42-4.56,12.71-7.36,18.86-3.67,8.07-8,15.77-13.11,23.2h0Zm-147.82-27.97c4.14,.63,7.9,.14,11.65,.17,4.1,.02,8.21-.17,12.3-.37,.61-.03,2.02,.4,1.33-1.35-1.83-4.61-3.52-9.27-5.31-14.05-7.06,4.6-13.68,9.6-19.97,15.6Z"/>
    </g>
  </g>
</svg>