<?xml version="1.0" encoding="UTF-8"?>
<svg id="Capa_2" data-name="Capa 2" xmlns="http://www.w3.org/2000/svg" viewBox="0 0 46.75 46.75">
  <defs>
    <style>
      .cls-1 {
        fill: #f9f9f9;
      }
    </style>
  </defs>
  <g id="Capa_1-2" data-name="Capa 1">
    <g id="_6DTmil.tif" data-name="6DTmil.tif">
      <path class="cls-1" d="M46.75,6.03V40.75c-.05,.26-.11,.53-.16,.79-.65,3.15-3.18,5.2-6.42,5.2-11.21,0-22.41,0-33.62,0-.45,0-.92-.04-1.36-.13C2.06,45.97,0,43.44,0,40.24,0,29.19,0,18.13,0,7.08c0-.45,.03-.91,.07-1.36C.35,2.97,2.33,.77,5.02,.2c.32-.07,.65-.14,.97-.2,11.57,0,23.15,0,34.72,0,.13,.04,.25,.1,.39,.11,2.63,.27,4.88,2.28,5.43,4.86,.08,.35,.14,.71,.22,1.06Zm-21.81,14.47c0-.35,0-.7,0-1.04-.01-.69-.38-1.1-1.06-1.11-1.39-.02-2.77-.02-4.16,0-.7,0-1.06,.39-1.06,1.09,0,5.85,0,11.69,0,17.54,0,.72,.34,1.06,1.06,1.07,1.29,0,2.59,0,3.88,0,1.03,0,1.34-.3,1.34-1.32,0-3-.01-6,0-9,0-1.15,.31-2.23,1.03-3.15,.76-.97,1.81-1.2,2.95-1.04,1.09,.15,1.84,.8,2.17,1.84,.18,.59,.33,1.21,.35,1.82,.05,1.46,.02,2.92,.02,4.38,0,1.77,0,3.53,0,5.3,0,.81,.37,1.16,1.18,1.16,1.4,0,2.8,0,4.2,0,.72,0,1.07-.34,1.07-1.06,0-3.46,.04-6.91-.03-10.37-.02-1.17-.2-2.37-.47-3.51-.51-2.12-1.65-3.8-3.8-4.57-1.83-.65-3.7-.65-5.56-.14-1.26,.34-2.26,1.08-3.13,2.09Zm-15.24,7.72c0,2.86,0,5.72,0,8.58,0,.91,.33,1.24,1.23,1.24,1.25,0,2.5,0,3.74,0,.95,0,1.31-.36,1.31-1.33,0-5.68,0-11.35,0-17.03,0-.93-.4-1.34-1.33-1.35-1.22,0-2.43,0-3.65,0-.93,0-1.3,.38-1.3,1.3,0,2.86,0,5.72,0,8.58Zm-.91-15.47c0,2.23,1.78,4.07,4.01,4.06,2.27-.02,4.01-1.7,4.07-4.01,.06-2.24-1.79-4.06-4.05-4.06-2.25,0-4.04,1.77-4.04,4.01Z"/>
    </g>
  </g>
</svg>