<?xml version="1.0" encoding="UTF-8"?>
<svg id="Capa_2" data-name="Capa 2" xmlns="http://www.w3.org/2000/svg" xmlns:xlink="http://www.w3.org/1999/xlink" viewBox="0 0 218.03 106.7">
  <defs>
    <style>
      .cls-1 {
        fill: #bfbdb3;
      }

      .cls-2 {
        fill: #fdfdfd;
      }

      .cls-3 {
        clip-path: url(#clippath);
      }

      .cls-4 {
        fill: none;
      }

      .cls-5 {
        fill: #070708;
      }
    </style>
    <clipPath id="clippath">
      <rect class="cls-4" width="218.03" height="106.7"/>
    </clipPath>
  </defs>
  <g id="Capa_1-2" data-name="Capa 1">
    <g class="cls-3">
      <g>
        <path class="cls-2" d="M82.14,106.65c.77-.95,1.54-.91,2.31,0h-2.31Z"/>
        <path class="cls-2" d="M135.9,106.65c.77-.91,1.54-.96,2.31,0h-2.31Z"/>
        <path class="cls-5" d="M109.32,3.18c34.48,0,68.96,.03,103.44-.05,2.34,0,3.06,.47,3.04,2.93-.13,14.67-.45,29.36,.06,44.01,.44,12.72-4.85,22.34-14.12,30.31-10.16,8.74-22.15,13.95-34.88,17.68-23.93,7.01-48.43,8.34-73.15,6.81-20.86-1.3-41.14-5.27-60.02-14.68-10.98-5.47-20.79-12.4-27.15-23.26-2.82-4.82-4.19-10.02-4.18-15.62,.03-15.06,.06-30.11-.05-45.17-.02-2.35,.53-3.02,2.97-3.02,34.67,.09,69.35,.06,104.02,.06Zm-.15,3.9c-33.32,0-66.65,.03-99.97-.06-2.44,0-2.98,.62-2.96,2.99,.12,13.52,.17,27.04,.01,40.56-.08,6.72,2,12.57,5.92,17.9,5.41,7.35,12.58,12.59,20.53,16.85,20.14,10.8,42.06,14.78,64.55,15.93,18.96,.97,37.89,.18,56.55-3.84,15.1-3.26,29.61-8.03,42.2-17.35,10.58-7.83,16.8-17.66,16.17-31.47-.58-12.73-.19-25.5-.06-38.26,.03-2.55-.54-3.33-3.25-3.32-33.23,.1-66.45,.07-99.68,.07Z"/>
        <path class="cls-1" d="M109.18,7.08c33.23,0,66.45,.04,99.68-.07,2.71,0,3.28,.77,3.25,3.32-.13,12.75-.51,25.53,.06,38.26,.62,13.81-5.59,23.64-16.17,31.47-12.6,9.31-27.1,14.09-42.2,17.35-18.65,4.02-37.59,4.81-56.55,3.84-22.49-1.15-44.41-5.13-64.55-15.93-7.95-4.26-15.12-9.5-20.53-16.85-3.92-5.32-5.99-11.18-5.92-17.9,.16-13.52,.11-27.04-.01-40.56-.02-2.37,.53-2.99,2.96-2.99,33.32,.09,66.65,.06,99.97,.06ZM38.14,39.93c-.16-.05-.31-.09-.47-.14-1.72-8.04-3.5-16.07-5.13-24.13-.31-1.55-.87-2.09-2.42-2.05-3.75,.09-7.51,.09-11.27,0-1.59-.04-2.17,.39-2.16,2.08,.06,16.21,.06,32.41,0,48.62,0,1.71,.6,2.09,2.17,2.03,2.98-.11,5.98-.14,8.95,0,1.86,.09,2.46-.42,2.42-2.35-.12-6.29-.05-12.59-.05-19.13,.82,.84,.89,1.68,1.09,2.5,1.39,5.66,2.85,11.31,4.21,16.99,.33,1.39,.84,2.07,2.46,2.02,1.48-.04,1.9-.58,2.23-1.91,1.01-4.09,2.19-8.13,3.33-12.18,.55-1.96,1.14-3.91,1.71-5.86,.57,5.92,.61,11.72,.54,17.52-.02,1.54,.3,2.27,2.04,2.2,2.98-.12,5.97-.1,8.96,0,1.54,.05,1.97-.54,1.97-2.01-.04-16.11-.05-32.22,0-48.33,0-1.7-.63-2.11-2.19-2.06-2.79,.1-5.62,.28-8.37-.04-2.9-.34-3.72,.95-4.31,3.46-1.78,7.62-3.79,15.19-5.71,22.78Zm103.38,10.34c0-3.55,.07-7.1-.02-10.64-.09-3.58-2.06-5.46-5.62-5.49-5.01-.04-10.02-.04-15.02,0-3.64,.03-5.68,2.04-5.71,5.72-.05,6.81-.04,13.62,0,20.42,.02,3.74,1.9,5.71,5.66,5.79,5.01,.1,10.02,.1,15.02,0,3.79-.07,5.62-1.98,5.69-5.75,.06-3.36,.01-6.71,0-10.07Zm33.51-.34c0,3.64-.04,7.28,.01,10.93,.05,3.16,1.74,5.1,4.92,5.19,5.39,.16,10.78,.15,16.17,0,3.19-.09,5.03-2.03,5.07-5.13,.07-7.19,.07-14.38,0-21.56-.03-3.17-2.11-5.16-5.29-5.2-5.2-.06-10.4-.06-15.59,0-3.36,.04-5.23,2-5.27,5.43-.04,3.45,0,6.9,0,10.35Zm-87.21,2.04c0-4.31,.06-8.62-.02-12.93-.06-3.18-1.32-4.95-3.96-5.03-5.67-.17-11.35-.23-17.02,.03-3.25,.15-5.9,5.74-4.25,8.37,.13,.21,.45,.42,.69,.42,2.69,.03,5.39,.1,8.08,0,1.45-.06,.46-1.68,1.2-2.26,.3-.23,.6-.52,.95-.6,1.5-.35,3.12-.8,4.43,.26,1.52,1.23,.74,3.06,.67,4.6-.08,1.71-1.61,1.88-3,2.01-.95,.09-1.89,.39-2.84,.44-9.95,.57-10.24,.87-10.24,10.74q0,8.12,8.24,8.1c2.49,0,5.23-.86,7.35-.42,2.57,.54,5.06,.25,7.55,.63,1.88,.28,2.25-.59,2.21-2.28-.11-4.02-.03-8.05-.03-12.07Zm67.74-8.62c0-5.46,0-10.91,0-16.37,0-6.73,0-6.64-6.89-6.74-2.13-.03-2.77,.47-2.74,2.67,.11,12.06,.05,24.13,.05,36.19,0,7.15,0,7.08,7.25,7.07,1.92,0,2.41-.56,2.38-2.42-.11-6.8-.04-13.6-.04-20.39Zm-62.59,6.71c0,2.97,0,5.94,0,8.91,0,7.41,0,7.35,7.43,7.18,1.64-.04,2.16-.48,2.12-2.12-.1-4.22-.03-8.43-.04-12.65,0-4.74,2-7.44,6.4-9.06,1.56-.58,3.92,.19,4.61-1.47,.65-1.56,.17-3.59,.18-5.41,0-.19-.01-.38,0-.57,.12-1.47-.55-1.75-1.93-1.55-2.71,.39-5.22,1.22-7.55,2.64-.56,.34-1.58,1.23-1.61-.08-.04-2.02-1.21-1.75-2.44-1.74-1.35,0-2.71,.14-4.04-.03-2.41-.3-3.38,.32-3.21,3.02,.28,4.3,.07,8.62,.07,12.94Zm67.78,.03c0,2.97,0,5.94,0,8.92,0,7.29,0,7.23,7.41,7.14,1.85-.02,2.46-.5,2.43-2.43-.12-7.38-.04-14.77-.06-22.15,0-2.38,.81-5.57-.4-6.92-1.43-1.59-4.71-.28-7.17-.54-1.74-.19-2.33,.34-2.27,2.18,.14,4.6,.05,9.2,.05,13.81Zm4.75-21.65c.86,0,1.74-.1,2.58,.02,2.08,.3,2.54-.59,2.51-2.55-.07-5.62,.01-5.62-5.73-5.62-.19,0-.39,.03-.57,0-2.72-.46-3.83,.33-3.63,3.39,.32,4.74,.08,4.76,4.84,4.76Z"/>
        <path class="cls-5" d="M38.14,39.93c1.92-7.59,3.94-15.16,5.71-22.78,.58-2.5,1.41-3.8,4.31-3.46,2.75,.32,5.58,.14,8.37,.04,1.56-.05,2.2,.36,2.19,2.06-.06,16.11-.05,32.22,0,48.33,0,1.47-.43,2.06-1.97,2.01-2.98-.09-5.97-.11-8.96,0-1.73,.07-2.06-.67-2.04-2.2,.07-5.8,.03-11.61-.54-17.52-.57,1.95-1.16,3.9-1.71,5.86-1.13,4.05-2.32,8.1-3.33,12.18-.33,1.33-.75,1.87-2.23,1.91-1.62,.05-2.13-.63-2.46-2.02-1.36-5.67-2.81-11.32-4.21-16.99-.2-.81-.27-1.66-1.09-2.5,0,6.54-.08,12.84,.05,19.13,.04,1.92-.56,2.44-2.42,2.35-2.98-.15-5.97-.12-8.95,0-1.57,.06-2.18-.32-2.17-2.03,.06-16.21,.06-32.41,0-48.62,0-1.69,.57-2.12,2.16-2.08,3.75,.09,7.51,.09,11.27,0,1.56-.04,2.11,.51,2.42,2.05,1.62,8.06,3.4,16.09,5.13,24.13,.16,.05,.31,.09,.47,.14Z"/>
        <path class="cls-5" d="M141.53,50.27c0,3.36,.05,6.71-.01,10.07-.07,3.77-1.9,5.68-5.69,5.75-5.01,.09-10.02,.09-15.02,0-3.76-.08-5.64-2.05-5.66-5.79-.04-6.81-.04-13.62,0-20.42,.03-3.68,2.06-5.7,5.71-5.72,5.01-.03,10.02-.04,15.02,0,3.56,.03,5.53,1.91,5.62,5.49,.09,3.55,.02,7.1,.02,10.64Zm-9.54-.06c0-2.49-.07-4.97,.02-7.46,.09-2.66-1.69-2.53-3.49-2.51-1.85,.02-3.8-.27-3.76,2.58,.06,4.97,.02,9.94,.02,14.92,0,2.96,2.22,2.24,3.94,2.33,1.74,.1,3.35,.06,3.28-2.39-.07-2.48-.01-4.97-.01-7.46Z"/>
        <path class="cls-5" d="M175.03,49.92c0-3.45-.03-6.9,0-10.35,.04-3.43,1.92-5.39,5.27-5.43,5.2-.06,10.4-.06,15.59,0,3.19,.04,5.26,2.04,5.29,5.2,.07,7.19,.07,14.38,0,21.56-.03,3.09-1.88,5.04-5.07,5.13-5.39,.15-10.78,.16-16.17,0-3.18-.09-4.87-2.03-4.92-5.19-.06-3.64-.01-7.28-.01-10.93Zm16.81,.26c0-2.49,0-4.98,0-7.48,0-2.85-2.1-2.43-3.9-2.47-1.84-.04-3.52-.03-3.48,2.59,.08,4.89,.1,9.78,0,14.66-.06,2.64,1.58,2.62,3.43,2.59,1.95-.03,4.05,.3,3.96-2.71-.07-2.39-.01-4.79-.01-7.19Z"/>
        <path class="cls-5" d="M87.82,51.96c0,4.02-.07,8.05,.03,12.07,.04,1.69-.33,2.57-2.21,2.28-2.49-.38-4.97-.09-7.55-.63-2.12-.44-4.86,.41-7.35,.42q-8.24,.02-8.24-8.1c0-9.88,.29-10.17,10.24-10.74,.95-.05,1.88-.35,2.84-.44,1.39-.14,2.92-.3,3-2.01,.07-1.54,.85-3.37-.67-4.6-1.31-1.06-2.93-.62-4.43-.26-.34,.08-.65,.37-.95,.6-.74,.58,.25,2.21-1.2,2.26-2.69,.1-5.38,.04-8.08,0-.23,0-.56-.21-.69-.42-1.65-2.62,1-8.22,4.25-8.37,5.66-.26,11.35-.2,17.02-.03,2.65,.08,3.9,1.85,3.96,5.03,.08,4.31,.02,8.62,.02,12.93Zm-9.18,.06c-1.64,.43-3.06,.67-4.37,1.16-3.09,1.16-1.81,3.86-1.75,5.91,.05,1.88,1.9,1.42,3.17,1.45,2,.05,2.99-.95,2.96-2.96-.02-1.78,0-3.57,0-5.56Z"/>
        <path class="cls-5" d="M155.57,43.34c0,6.8-.07,13.6,.04,20.39,.03,1.86-.46,2.42-2.38,2.42-7.24,0-7.25,.08-7.25-7.07,0-12.06,.06-24.13-.05-36.19-.02-2.2,.61-2.7,2.74-2.67,6.89,.1,6.89,.01,6.89,6.74,0,5.46,0,10.91,0,16.37Z"/>
        <path class="cls-5" d="M92.97,50.05c0-4.31,.2-8.64-.07-12.94-.17-2.7,.81-3.32,3.21-3.02,1.33,.17,2.69,.04,4.04,.03,1.23,0,2.4-.28,2.44,1.74,.03,1.31,1.05,.43,1.61,.08,2.33-1.42,4.84-2.25,7.55-2.64,1.38-.2,2.05,.08,1.93,1.55-.02,.19,0,.38,0,.57-.02,1.82,.46,3.84-.18,5.41-.69,1.66-3.04,.9-4.61,1.47-4.41,1.63-6.4,4.32-6.4,9.06,0,4.22-.07,8.44,.04,12.65,.04,1.64-.49,2.08-2.12,2.12-7.43,.17-7.43,.23-7.43-7.18,0-2.97,0-5.94,0-8.91Z"/>
        <path class="cls-5" d="M160.76,50.09c0-4.6,.09-9.21-.05-13.81-.06-1.83,.53-2.36,2.27-2.18,2.46,.26,5.74-1.04,7.17,.54,1.21,1.35,.39,4.54,.4,6.92,.02,7.38-.06,14.77,.06,22.15,.03,1.93-.57,2.41-2.43,2.43-7.42,.08-7.42,.14-7.41-7.14,0-2.97,0-5.94,0-8.92Z"/>
        <path class="cls-5" d="M165.51,28.43c-4.76,0-4.52-.01-4.84-4.76-.21-3.06,.91-3.85,3.63-3.39,.19,.03,.38,0,.57,0,5.74,0,5.65,0,5.73,5.62,.03,1.95-.43,2.85-2.51,2.55-.84-.12-1.72-.02-2.58-.02Z"/>
        <path class="cls-1" d="M131.99,50.2c0,2.49-.05,4.97,.01,7.46,.07,2.46-1.54,2.49-3.28,2.39-1.72-.09-3.94,.63-3.94-2.33,0-4.97,.04-9.95-.02-14.92-.04-2.85,1.91-2.56,3.76-2.58,1.8-.02,3.58-.15,3.49,2.51-.08,2.48-.02,4.97-.02,7.46Z"/>
        <path class="cls-1" d="M191.85,50.18c0,2.4-.05,4.79,.01,7.19,.08,3.01-2.01,2.68-3.96,2.71-1.85,.02-3.49,.04-3.43-2.59,.1-4.89,.09-9.78,0-14.66-.04-2.62,1.64-2.63,3.48-2.59,1.8,.04,3.9-.38,3.9,2.47,0,2.49,0,4.98,0,7.48Z"/>
        <path class="cls-1" d="M78.64,52.03c0,1.99-.02,3.78,0,5.56,.03,2.01-.96,3.01-2.96,2.96-1.27-.03-3.12,.43-3.17-1.45-.05-2.05-1.34-4.76,1.75-5.91,1.32-.49,2.73-.73,4.37-1.16Z"/>
      </g>
    </g>
  </g>
</svg>