<?xml version="1.0" encoding="UTF-8"?>
<svg id="Capa_2" data-name="Capa 2" xmlns="http://www.w3.org/2000/svg" viewBox="0 0 156.58 89.59">
  <defs>
    <style>
      .cls-1 {
        fill: #1d1d1d;
      }
    </style>
  </defs>
  <g id="Capa_1-2" data-name="Capa 1">
    <g>
      <path class="cls-1" d="M72.34,10.16c1.08,.63,2.06,1.07,2.89,1.71,.81,.64,1.46,.74,2.34,.14,1.79-1.21,3.77-1.15,5.77-.68-4.67-.29-6.21,1.15-5.02,5.28-1.11-.94-1.95-1.65-2.77-2.35-.15,1.36,.66,2.55,2.39,3.49,1.82,.99,1.88,1.06,2.64,3.32-1.38-.88-2.53-1.62-3.68-2.35-.1,.06-.2,.11-.3,.17,.48,.77,.89,1.6,1.47,2.29,.77,.91,1.64,1.75,2.55,2.53,.31,.27,.86,.29,1.31,.35,.41,.06,1.02-.15,1.23,.06,1.15,1.19,2.05,.43,3.01-.24,3.35-2.34,3.37-2.36,6.85,.07,1.03,.72,1.95,.88,2.99,.09,.25-.19,.57-.4,.86-.42,1.39-.08,5.76,3.06,6.37,4.62-.45,.03-.86,.08-1.28,.08-6.51,0-13.03-.02-19.54,.03-1.08,0-1.57-.32-2.09-1.31-.94-1.76-2.2-3.35-3.33-5.01l-.4,.11c.18,.65,.31,1.32,.54,1.96,.94,2.6,1.94,5.17,2.85,7.77,.76,2.15,2.71,3.34,4.93,3.03,.7-.1,1.44,.15,2.13,.4-.83,.06-1.66,.12-2.49,.18-.12,.24-.24,.48-.35,.71,.54,.42,1.07,.83,1.61,1.25-.04,.07-.08,.14-.12,.2-2.37-1.74-4.73-3.48-6.81-5.01-1.91,1.43-4.03,3.03-6.15,4.62-.07-.06-.14-.11-.21-.17,.25-.36,.5-.72,1.05-1.49-1.17-.11-2.03-.2-2.89-.28-.01-.06-.03-.11-.04-.17,.81-.07,1.65-.31,2.44-.18,2.53,.4,5.33-1.97,4.95-4.52-.25-1.67-1.01-3.27-1.54-4.9-.18,.03-.35,.05-.53,.08-.08,.83-.16,1.66-.25,2.6h-23.08c1.27-1.4,2.22-2.61,3.36-3.62,.33-.29,1.31-.23,1.76,.05,1.33,.81,2.37,.54,3.37-.48,1.26-1.29,2.58-1.78,4.17-.49,.99,.81,1.87,.45,2.76-.34,2.26-2.01,2.29-1.99,4.64-.18,1.54,1.18,2.63,.84,3.15-1.01,.13-.47,.29-.96,.27-1.44-.11-3.77-1.9-6.93-3.76-10.53Z"/>
      <path class="cls-1" d="M56.9,46.11c4.24,0,8.78-.2,13.29,.08,2.65,.16,4.94,1.49,5.64,4.45,.64,2.72-.37,5.04-2.87,6.3-1.01,.51-2.13,.84-3.23,1.12-1.1,.28-2.25,.38-3.46,.69,3.56,.63,5.32,3.34,7.22,5.93,1.44,1.97,3.01,3.86,4.65,5.96-1.63,0-3.27,.06-4.9-.05-.35-.02-.7-.63-.97-1.02-1.99-2.87-3.95-5.77-5.94-8.63-1.18-1.69-1.9-2.04-3.77-1.92,0,2.98-.16,5.99,.09,8.96,.08,.91,1.26,1.72,1.94,2.58h-8.22c.44-.35,.84-.52,1.03-.83,.48-.78,1.23-1.61,1.25-2.43,.11-5.95,.15-11.91-.02-17.86-.03-1.12-1.1-2.2-1.7-3.31Zm5.7,12.15c2.17-.42,4.15-.6,5.98-1.21,2.32-.78,3.34-2.71,3.15-5.16-.32-4.22-4.58-6.58-9.13-5.01v11.39Z"/>
      <path class="cls-1" d="M39.12,71.12c-7.28-.05-12.75-5.35-12.64-12.23,.12-7.7,5.84-13.47,13.23-13.35,7.4,.12,12.74,5.35,12.67,12.39-.08,7.73-5.62,13.25-13.26,13.19Zm9.14-11.13c-.12-4.25-1.3-8.02-3.39-10.4-2.31-2.64-5.25-3.52-8.58-2.68-3.18,.81-4.61,3.32-5.2,6.32-.28,1.43-.39,2.93-.31,4.39,.22,3.77,1.01,7.37,3.88,10.13,4.62,4.45,11.53,2.49,13.04-3.72,.32-1.31,.38-2.69,.56-4.04Z"/>
      <path class="cls-1" d="M129.7,58.19c-.54,8.37-6.12,13.4-14.32,12.89-7.12-.44-11.9-6.07-11.43-13.45,.46-7.1,6.54-12.53,13.54-12.09,7.43,.47,12.64,5.87,12.2,12.65Zm-21.62-2.06c.13,4.24,.73,7.71,3.02,10.64,3.77,4.81,11.1,4.43,13.23-.88,2.24-5.61,1.61-11.18-2.01-16.13-2.06-2.82-5.14-3.66-8.49-2.9-3.12,.71-4.65,3.07-5.3,6.03-.28,1.27-.37,2.58-.46,3.24Z"/>
      <path class="cls-1" d="M140.37,70.58h-6.87c2.89-1.62,2.38-4.35,2.39-6.88,.01-4.21-.06-8.41,.03-12.62,.04-1.9-.09-3.6-1.91-4.99,1.76,0,3.52-.07,5.26,.05,.39,.03,.81,.64,1.1,1.06,3.45,5.05,6.88,10.12,10.31,15.18,.42,.62,.86,1.22,1.58,2.24v-9.4c0-1.09-.06-2.19,.01-3.28,.17-2.43-.31-4.48-2.8-5.72h7.1c-3.58,1.66-2.93,4.55-2.94,7.22-.02,5.08,0,10.16,0,15.24,0,.59,0,1.18,0,1.77-1.3,.53-1.99,.01-2.66-.95-4.15-5.96-8.34-11.89-12.52-17.83-.24-.34-.51-.67-1-1.33-.06,.84-.13,1.35-.13,1.85,0,4.15,0,8.3,0,12.46q0,3.61,3.05,5.93Z"/>
      <path class="cls-1" d="M.55,46.08c1.63,0,3.27-.07,4.89,.05,.47,.04,1.02,.55,1.32,.98,3.59,5.22,7.15,10.46,10.72,15.7,.27,.4,.55,.79,1.05,1.49,.08-.76,.17-1.2,.17-1.64,.01-3.44-.07-6.89,.03-10.33,.08-2.54-.1-4.84-2.81-6.15h7.23c-3.54,1.61-3.02,4.37-3.02,6.95-.01,5.19,0,10.38,0,15.57v1.73c-1.24,.5-1.93,.14-2.59-.82-4.46-6.41-8.98-12.79-13.64-19.4-.06,.61-.14,.99-.14,1.37,0,4.04,.02,8.09-.01,12.13-.02,2.65-.34,5.38,2.78,6.84H0c2.91-1.62,2.38-4.35,2.38-6.88,.01-4.21-.07-8.42,.03-12.62,.05-1.92-.17-3.58-1.87-4.98Z"/>
      <path class="cls-1" d="M100.53,52.99c-2.12-2.92-3.41-6.81-8.33-6.01v1.69c0,5.8,.1,11.59-.05,17.38-.05,2.08,.6,3.34,2.55,3.95,.2,.06,.39,.18,.58,.28,.04,.02,.06,.09,.16,.26h-10.09s-.01-.21,.02-.22c2.79-.74,3.13-2.7,3.05-5.26-.18-5.41-.05-10.82-.05-16.24v-1.84c-4.84-.8-6.11,3.07-8.23,5.99v-6.83h20.4v6.83Z"/>
      <path class="cls-1" d="M70.71,15.29c.45,.69-.19,2.61-.95,2.75-.21,.04-.67-.17-.67-.25,.01-.38,.15-.75-.12-.92-.39-.66-.94-1.29-1.13-2.01-.12-.47,.28-1.07,.5-1.78-.13-.05-.58-.12-.87-.37-.71-.62-.77-1.32,.1-1.87,.96-.6,3.8-.02,4.51,.88,.54,.68-.31,2.91-1.37,3.58Z"/>
      <path class="cls-1" d="M39.5,89.49v-6.25c1.9,.05,4.05-.69,5.19,1.34,.51,.91,.52,2.54,.04,3.48-1.1,2.12-3.29,1.27-5.23,1.43Zm1.22-4.86c0,.62,0,1.16,0,1.69,0,.32-.06,.66,.02,.97,.08,.32,.21,.77,.46,.89,.98,.51,2.44-.31,2.65-1.41,.32-1.69-.71-2.46-3.13-2.15Z"/>
      <path class="cls-1" d="M98.14,89.59c-2-.02-2.76-1.15-2-2.91,.13-.3-.14-.74-.08-1.09,.12-.68,.21-1.85,.53-1.93,1.02-.25,2.19-.25,3.21,0,.33,.08,.42,1.26,.53,1.96,.05,.33-.28,.77-.16,1.02,.86,1.75,.05,2.96-2.02,2.95Zm1.57-1.82c-.72-.44-1.1-.85-1.46-.84-.38,.01-.76,.42-1.13,.66,.32,.28,.62,.75,.98,.8,.37,.06,.8-.28,1.61-.62Z"/>
      <path class="cls-1" d="M66.55,89.52v-6.26c1.91,.01,3.92-.63,5.25,1.31,.77,1.12,.76,2.4,.02,3.54-1.32,2.02-3.36,1.19-5.27,1.41Zm1.29-.76c1.2-.61,2.22-.88,2.8-1.53,.33-.37,.22-1.69-.17-2.04-.61-.54-1.63-.62-2.64-.94v4.51Z"/>
      <path class="cls-1" d="M80.8,89.39h-4.63v-6.07h4.43c.11,.1,.21,.2,.32,.3-.33,.28-.62,.64-1,.8-.33,.14-.78-.06-1.13,.05-.47,.14-.9,.44-1.35,.67,.42,.21,.83,.46,1.27,.62,.63,.23,1.28,.39,1.92,.59-.66,.17-1.34,.3-1.98,.53-.43,.15-.81,.45-1.21,.68,.39,.24,.76,.54,1.18,.71,.71,.3,2.03-.64,2.19,1.12Z"/>
      <path class="cls-1" d="M88.93,15.6c-.61,.86-1.14,1.6-1.75,2.44-1.04-.21-2.21-2.48-1.7-3.21-.5-.52-1.31-.99-1.32-1.47-.02-.72,.35-1.69,.9-2.1,.53-.39,1.49-.19,2.35-.25-.62,1.92,.42,3.27,1.53,4.59Z"/>
      <path class="cls-1" d="M62.58,83.5c-.68,2.3-2.88-.3-3.53,1.75,.63,.19,1.26,.41,1.9,.57,.99,.25,1.73,.69,1.66,1.87-.06,1.13-.75,1.74-1.78,1.78-1.09,.04-2.19-.17-3.29-.27,.11-1.72,.89-1.14,1.6-1.02,.66,.11,1.36,.02,2.04,.02,.03-.25,.06-.49,.09-.74-.67-.21-1.33-.46-2.01-.61-1.05-.24-1.88-.85-1.55-1.89,.23-.71,1.07-1.52,1.79-1.71,.9-.24,1.96,.12,3.07,.24Z"/>
      <path class="cls-1" d="M49.15,83.25h4.37q.07,.88-3.05,1.38c-.41,1.28,.51,1.07,1.25,1.16,.63,.07,1.25,.3,1.87,.47-.63,.2-1.28,.37-1.9,.62-.46,.19-.89,.47-1.33,.72,.46,.23,.9,.5,1.37,.68,.68,.26,1.95-.57,1.97,1.13h-4.56v-6.15Z"/>
      <path class="cls-1" d="M112.51,86.68v-3.37h3.41c.08,1.08,.07,1.05-.93,1.16-.48,.05-.94,.28-1.41,.42,.4,.23,.77,.56,1.2,.68,1.09,.3,1.75,.86,1.66,2.07-.08,1.18-.79,1.85-1.87,1.89-.85,.03-1.72-.3-2.58-.47,0-.25,0-.5,.01-.75,.43-.05,.85-.11,1.28-.14,.55-.05,1.11-.04,1.65-.14,.09-.02,.19-.67,.12-.71-.45-.24-.94-.42-1.43-.56-.3-.08-.63-.05-1.1-.08Z"/>
      <path class="cls-1" d="M91.66,11.64c1.6,.73,1.58,1.88,1.25,3.24-1.2-.21-2.53-.09-2.34-2.29-.5,.81-.76,1.23-1.02,1.64-.14-.02-.29-.05-.43-.07,.05-.48,.1-.97,.15-1.51-.21-.17-.58-.48-.95-.78,.39-.32,.76-.67,1.17-.96,.64-.45,1.31-.86,2.12-1.39-.07,.49-.13,.86-.16,1.06,.63,.12,1.21,.23,1.79,.34-.03,.18-.05,.36-.08,.54-.5,.06-1,.11-1.51,.17Z"/>
      <path class="cls-1" d="M105.1,89.19c.32-.5,.64-1,1.02-1.58-.17-.11-.31-.24-.48-.32-1.53-.69-2.03-1.71-1.44-2.93,.53-1.09,2.04-1.58,3.28-1.06,1.15,.49,1.62,1.77,.97,3.05-.49,.97-1.11,1.89-1.81,2.72-.27,.33-.92,.34-1.39,.5-.05-.13-.09-.25-.14-.38Zm1.21-2.68c.46-.52,1.04-.9,.98-1.15-.09-.41-.59-.73-.91-1.09-.35,.34-.86,.63-.98,1.04-.07,.24,.48,.66,.92,1.2Z"/>
      <path class="cls-1" d="M72.96,3.79c-.3-.42-.59-.81-.87-1.2,.09-.1,.19-.19,.28-.29,.41,.17,.81,.35,.93,.4,.55-.92,1.08-1.81,1.61-2.7,.24,.03,.47,.06,.71,.08,.16,.81,.32,1.61,.47,2.42,.05,.26,.13,.53,.12,.79-.03,.58-.04,1.18-.23,1.71-.05,.14-.76,.05-1.17,.04-.32,0-.63-.05-.95-.06-.43-.01-.86,0-1.29-.01,.13-.39,.26-.79,.39-1.18Z"/>
      <path class="cls-1" d="M65.51,13.65c-.03,.39-.06,.77-.09,1.15-1.22-.27-2.43-.55-3.55-.8-.19-1.92,1.17-1.43,2.29-2.06-.53-.17-1.06-.33-1.59-.5,.16-.22,.32-.43,.47-.65,.47,.17,.95,.33,1.51,.53,.09-.21,.23-.51,.53-1.19,.56,1.21,.99,2.12,1.36,3.05,.01,.03-.57,.29-.93,.47Z"/>
      <path class="cls-1" d="M91.74,5.73c.31,.14,.61,.28,.8,.36,.21-.53,.4-1,.59-1.46,.24,.46,.48,.92,.59,1.12,.91,.1,1.74,.19,2.58,.29,.06,.23,.12,.45,.17,.68-1.21,.84-2.41,1.67-3.57,2.48-1.98-.66-.56-2.36-1.16-3.46Z"/>
      <path class="cls-1" d="M65.94,33.78c.32-.21,.75-.5,1.4-.94-.61-.42-1.06-.73-1.28-.87,1.14,.07,2.52,.15,3.91,.23,.05-.2,.1-.39,.15-.59-.84-.4-1.67-.79-2.51-1.19,.02-.06,.03-.12,.05-.18,.96,.29,1.91,.65,2.9,.85,.58,.12,1.24,.09,1.83-.05,1.4-.34,2.76-.51,4.24-.03-3.71,.97-7.22,1.88-10.67,2.78Z"/>
      <path class="cls-1" d="M91.61,31.99c-.17,.12-.56,.38-1.19,.82,.65,.44,1.15,.78,1.54,1.04-3.36-.91-6.86-1.85-10.82-2.92,1.1-.08,1.92-.28,2.69-.16,1.62,.25,3.21,.89,4.79-.24,.33-.23,.96-.03,1.36-.03-.74,.34-1.55,.72-2.37,1.1,.04,.19,.09,.39,.13,.58,1.33-.07,2.65-.13,3.86-.19Z"/>
      <path class="cls-1" d="M71.96,8.07c.74-.2,1.08-.28,1.24-.32,.18-.6,.34-1.12,.5-1.63,.3,.25,.59,.5,.81,.68,.66-.14,1.37-.33,2.09-.41,.07,0,.41,.89,.28,1.02-.48,.48-1.11,.82-1.77,1.27,.17,.16,.48,.45,.79,.74-.07,.12-.14,.24-.21,.36-.34-.16-.68-.31-1.13-.52-.16,.29-.34,.62-.62,1.15-.3-.56-.46-.96-.71-1.27-.26-.31-.62-.54-1.26-1.07Z"/>
      <path class="cls-1" d="M82.94,12.9c-.18,.41-.35,.78-.5,1.13,.39,.34,.78,.68,1.16,1.02-.08,.12-.17,.24-.25,.36-.4-.16-.8-.32-1.05-.42-.11,.8-.22,1.61-.35,2.58-1.73-.74-2.17-1.54-1.03-3-.79,.19-1.22,.3-1.65,.4-.06-.1-.13-.2-.19-.3,.37-.25,.74-.5,1.15-.77q-.39-1.11,2.72-1Z"/>
      <path class="cls-1" d="M90.67,85.14c-.59,.07-.95,.12-1.31,.16-.05-.09-.15-.18-.15-.27,.03-1.7,1.65-1.17,2.74-2.1,0,2.21,.02,4.08-.03,5.95,0,.2-.38,.39-.59,.59-.22-.23-.63-.46-.64-.7-.07-1.13-.03-2.27-.03-3.63Z"/>
      <path class="cls-1" d="M85.67,9.95c-.21-.27-.43-.54-.74-.94-.25,.39-.46,.7-.76,1.15-.39-1.13-.73-2.12-1.13-3.27,.45,.09,.78,.16,1.15,.24,.12-.48,.22-.92,.33-1.36,.13-.01,.25-.02,.38-.03,.1,.45,.19,.9,.25,1.17,.83,.1,1.66,.19,2.49,.29,.06,.21,.11,.42,.17,.63-.62,.38-1.24,.77-2.04,1.25,.01,.05,.12,.4,.22,.75-.11,.04-.22,.08-.33,.13Z"/>
      <path class="cls-1" d="M88.65,10.24c-.86-.26-1.16-.72-.61-1.63,.53-.88,.98-1.83-.75-2.17,.06-.13,.11-.26,.17-.39,.81,0,1.64-.09,2.43,.02,1.08,.15,1.64,.65,.72,1.73-.13,.16-.02,.5-.1,.74-.11,.34-.21,.79-.46,.94-.39,.23-.91,.23-1.38,.33,0,.14,0,.28-.01,.42Z"/>
      <path class="cls-1" d="M64.48,6.2c.17-.41,.31-.77,.35-.88-.67-.64-1.23-1.18-1.79-1.71,.07-.17,.14-.35,.21-.52,.66,.07,1.32,.13,1.95,.2,.19-.17,.45-.4,.71-.64,.38,.57,1.11,1.16,1.08,1.71-.07,1.32-.99,1.98-2.52,1.84Z"/>
      <path class="cls-1" d="M71.92,6.87c-.14,.95-.26,1.77-.41,2.82-.42-.37-.69-.61-1.02-.9-.24,.26-.47,.53-.98,1.08,.11-.69,.17-1.04,.18-1.06-.78-.5-1.45-.93-2.12-1.37,.09-.21,.17-.41,.26-.62,.64,.05,1.27,.1,1.94,.16,.42-.88,.4-.85,1.21-.08,.16,.15,.61-.01,.95-.03Z"/>
      <path class="cls-1" d="M71.41,3.35c-.42,.73-.67,1.18-1.09,1.9-.35,.08-1.06,.23-2.09,.45-.05-1.05-.16-2.08-.11-3.09,.01-.2,.77-.62,.94-.52,.53,.31,.93,.82,1.39,1.25-.07,.13-.15,.27-.22,.4,.31-.11,.63-.21,1.18-.4Z"/>
      <path class="cls-1" d="M85.26,2.68c.63-.1,1.26-.19,2.35-.36-.34,1.17-.64,2.21-.98,3.23-.01,.03-.79-.1-.79-.17-.01-1.05-2.82-1.35-.58-2.7Z"/>
      <path class="cls-1" d="M81.08,6c.62,1.08,1.23,2.15,1.85,3.24-1.16,1.08-2.47,.56-2.92-.19-.38-.66,.24-1.9,.42-2.89,.21-.05,.43-.11,.64-.16Z"/>
      <path class="cls-1" d="M64.24,8.97c.61-.65,1.22-1.31,2-2.15,.52,.75,2.04,1.22,1.11,2.66-.96,1.5-1.96-.04-2.97,.01-.05-.17-.09-.35-.14-.52Z"/>
      <path class="cls-1" d="M61.24,7.03c-.59-.55-1-.82-1.24-1.2-.48-.75-.27-1.23,.68-1.25,.86-.01,2.07-.66,2.37,.61,.39,1.61-1.14,1.61-1.81,1.84Z"/>
      <path class="cls-1" d="M93.97,9.91c.58-.03,1.05-.06,1.78-.1-.26,.37-.41,.57-.55,.78,.6,.31,1.23,.64,1.87,.97-.06,.23-.12,.46-.18,.69-.64-.07-1.27-.14-2.09-.23-.03,.08-.16,.44-.29,.81h-.36c-.05-.89-.11-1.78-.17-2.9Z"/>
      <path class="cls-1" d="M80.78,3.2c1.19,.1,1.86,.16,2.95,.26-.34,.89-.58,1.63-.93,2.32-.05,.11-.74,.1-.82-.03-.41-.72-.72-1.5-1.2-2.55Z"/>
      <path class="cls-1" d="M60.08,10.06c-.06-.1-.23-.34-.39-.59,.07-.11,.14-.21,.21-.32,.69,.41,1.38,.82,2.07,1.23-.01,.17-.02,.35-.03,.52-1-.51-.27,1.58-1.59,.72-.43-.28-1.05-.25-1.59-.37,.42-.37,.84-.75,1.33-1.18Z"/>
      <path class="cls-1" d="M88.4,5.25c-.06-1.57,.36-2.54,1.73-2.65,.18-.01,.58,.79,.6,1.23,.09,1.94-1.59,.67-2.33,1.42Z"/>
      <path class="cls-1" d="M76.11,11.46c.54-1.61,.98-2.73,2.77-2.55-.11,1.67-1.23,2.04-2.77,2.55Z"/>
      <path class="cls-1" d="M64.4,7.1c-.52,1.16-.87,1.93-1.22,2.7-.62-.49-1.2-.95-1.98-1.58,1.16-.41,2.02-.71,3.2-1.13Z"/>
      <path class="cls-1" d="M78.85,36.61c-.75,.79-1.5,1.58-2.25,2.38-.1-.09-.19-.18-.29-.27,.73-.81,1.46-1.62,2.2-2.43l.35,.33Z"/>
    </g>
  </g>
</svg>