<?xml version="1.0" encoding="UTF-8"?>
<svg id="Capa_2" data-name="Capa 2" xmlns="http://www.w3.org/2000/svg" xmlns:xlink="http://www.w3.org/1999/xlink" viewBox="0 0 192.24 96.32">
  <defs>
    <style>
      .cls-1 {
        clip-path: url(#clippath-1);
      }

      .cls-2 {
        clip-path: url(#clippath);
      }

      .cls-3 {
        fill: none;
      }

      .cls-4 {
        fill: #1d1d1b;
      }
    </style>
    <clipPath id="clippath">
      <rect class="cls-3" width="192.24" height="96.32"/>
    </clipPath>
    <clipPath id="clippath-1">
      <rect class="cls-3" width="192.24" height="96.32"/>
    </clipPath>
  </defs>
  <g id="Capa_1-2" data-name="Capa 1">
    <g class="cls-2">
      <g class="cls-1">
        <path class="cls-4" d="M189.31,0c2.47,1.26,3.2,2.83,2.85,5.73-.29,2.39-1.22,4.51-2.69,6.38-.97,1.24-1.16,2.43-.8,3.99,1.1,4.74,1.99,9.52,2.32,14.38,.39,5.69-1.16,10.76-4.91,15.1-2.48,2.87-5.47,4.9-9.29,5.53-3.12,.51-5.91-.33-8.38-2.23-.62-.47-.95-.44-1.39,.16-.97,1.32-1.99,2.58-3.32,3.57-4.71,3.51-11.08,1.79-13.36-3.61-.93-2.2-1.4-4.51-1.6-6.89-.04-.44,0-.89-.34-1.41-.54,1.24-1.03,2.41-1.56,3.56-1.83,4.02-3.77,7.99-6.57,11.46-.97,1.19-2.01,2.33-3.42,3.04-1.69,.85-2.98,.4-3.76-1.33-.74-1.65-.65-3.41-.41-5.11,1.37-9.33,2.83-18.66,4.26-27.98,.2-1.3,.39-2.59,.59-3.89,.05-.36,.1-.72-.24-.96-.38-.28-.75-.08-1.06,.14-1.1,.78-1.82,1.87-2.45,3.04-1.54,2.86-2.2,5.97-2.7,9.16-1.44,9.19-2.95,18.38-4.42,27.57-.09,.59-.35,.92-.94,1.04-2.6,.54-5.2,1.09-7.8,1.66-.92,.21-.77-.35-.7-.87,.6-3.99,1.2-7.97,1.81-11.95,1.3-8.54,2.6-17.07,3.9-25.61,.06-.37,.17-.81-.25-1.04-.4-.22-.75,.05-1.05,.28-1.06,.79-1.69,1.92-2.27,3.05-1.58,3.06-2.19,6.4-2.69,9.76-1.33,8.95-2.69,17.9-4.02,26.85-.09,.64-.37,.94-1,1.07-2.48,.51-4.95,1.06-7.42,1.59-1.09,.23-1.15,.17-.99-.97,.74-4.96,1.47-9.93,2.08-14.95-.45,1.02-.87,2.04-1.34,3.05-2.35,5.02-4.89,9.93-8.43,14.26-.67,.82-1.42,1.56-2.3,2.17-1.37,.94-2.81,.68-3.74-.72-1.18-1.78-1.07-3.8-.8-5.77,.45-3.36,1.04-6.7,1.57-10.05,.03-.19,.03-.38-.12-.64-.45,.95-.89,1.89-1.35,2.84-2.48,5.13-5.03,10.23-8.44,14.83-.74,1-1.5,2-2.6,2.67-1.36,.83-2.69,.54-3.58-.8-.83-1.24-.93-2.65-.83-4.06,.27-3.9,1.14-7.72,1.69-11.58,.09-.59,.17-1.19,.14-1.81-.9,2.03-1.77,4.09-2.72,6.1-2.26,4.78-4.71,9.45-7.99,13.64-.58,.74-1.21,1.42-1.95,1.98-1.32,1-2.79,.75-3.75-.6-.68-.95-.9-2.04-.94-3.17-.1-2.91,.67-5.71,1.05-8.56,.01-.09,.02-.19,.06-.49-.21,.3-.32,.45-.41,.61-.1,.2-.18,.41-.28,.61-1.95,4.11-4.08,8.12-6.87,11.75-.74,.97-1.59,1.85-2.54,2.61-2.13,1.7-4.37,.92-5.08-1.71-.42-1.55-.33-3.1-.09-4.66,2.09-13.14,4.18-26.28,6.24-39.42,.15-.92,.48-1.4,1.43-1.59,2.41-.49,4.81-1.07,7.21-1.64,.74-.18,1-.04,.87,.77-.83,5.31-1.63,10.62-2.44,15.93-.78,5.06-1.57,10.11-2.33,15.17-.11,.75-.24,1.74,.6,2.02,.76,.25,1.18-.63,1.51-1.23,2.26-4.08,3.57-8.47,4.3-13.06,1.04-6.47,2.11-12.94,3.1-19.43,.17-1.09,.62-1.58,1.7-1.79,2.33-.45,4.62-1.04,6.93-1.57,.93-.21,1.05-.1,.91,.81-1.54,10.02-3.09,20.04-4.64,30.06-.09,.57-.18,1.14-.23,1.71-.03,.37-.07,.85,.37,.99,.38,.12,.63-.24,.84-.53,.39-.55,.8-1.09,1.12-1.68,2.84-5.34,4.97-10.97,6.16-16.9,.98-4.86,1.63-9.78,2.37-14.68,.15-.99,.49-1.5,1.55-1.69,2.33-.43,4.62-1.03,6.94-1.55,1.32-.3,1.35-.27,1.15,1.01-1.11,7.01-2.24,14.02-3.35,21.04-.51,3.25-1.01,6.51-1.5,9.77-.1,.65-.29,1.54,.45,1.77,.67,.22,1.04-.61,1.37-1.13,1.97-3.19,3.15-6.7,4.38-10.21,1.91-5.46,2.31-11.2,3.22-16.84,1.17-7.2,2.22-14.41,3.29-21.63,.15-.99,.5-1.5,1.56-1.68,2.37-.4,4.71-.96,7.06-1.44,1.08-.22,1.18-.14,1.02,.98-.77,5.12-1.56,10.24-2.35,15.36-1.57,10.21-3.14,20.42-4.69,30.64-.1,.66-.4,1.58,.37,1.91,.77,.33,1.22-.52,1.63-1.06,1.81-2.38,2.77-5.17,3.82-7.92,1.64-4.26,2.07-8.76,2.74-13.21,.58-3.86,1.17-7.72,1.72-11.58,.08-.59,.39-.81,.92-.92,2.6-.54,5.2-1.08,7.8-1.64,.77-.17,.98,.09,.85,.84-.29,1.67-.53,3.35-.78,5.02-.04,.25-.16,.49-.02,.76,.34,.01,.37-.31,.49-.5,1.88-2.89,4.06-5.51,6.8-7.64,.69-.53,1.44-.96,2.28-1.22,1.62-.5,2.81-.01,3.64,1.46,.54,.97,.77,2.03,.92,3.11,.08,.62,.16,1.25,.26,2.04,.63-.94,1.12-1.75,1.7-2.5,2.04-2.62,4.22-5.08,7.26-6.58,.46-.22,.95-.42,1.44-.52,1.59-.32,2.78,.33,3.38,1.83,.59,1.49,.75,3.05,.5,4.62-1.39,8.62-2.82,17.23-4.23,25.85-.09,.57-.43,1.37,.23,1.65,.64,.27,1.05-.5,1.38-.96,2.25-3.08,3.38-6.61,3.8-10.34,.5-4.5,1.17-8.94,2.78-13.2,1.49-3.96,3.53-7.6,6.46-10.69,1.24-1.3,2.59-2.53,4.27-3.22,3.88-1.61,7.61-1.25,10.95,1.34,1.8,1.39,2.57,3.49,2.63,5.68,.2,6.99-1.69,13.3-6.69,18.41-2.56,2.61-5.7,4.09-9.43,4.11-.49,0-.69,.17-.73,.65-.3,3.79-.66,7.59,0,11.38,.13,.73,.34,1.43,.64,2.1,.62,1.36,1.71,1.81,3.07,1.17,1.48-.7,2.61-1.83,3.62-3.1,.35-.44,.07-.78-.1-1.14-1.13-2.51-1.23-5.09-.35-7.68,1.18-3.49,3.64-4.97,7.38-4.46,.72,.1,1.11-.06,1.47-.67,1.5-2.53,3.04-5.04,4.59-7.55,.34-.55,.41-1.09,.31-1.73-.62-3.82-1.21-7.65-1.2-11.53,0-1.88,.21-3.77,.81-5.58,1.13-3.44,3.47-5.59,6.91-6.61,.37-.11,.73-.24,1.09-.36h2.11Zm-21.91,9.12c.03-2.11-1.03-2.84-2.58-2.2-1.22,.5-1.82,1.46-2.01,2.72-.84,5.59-1.67,11.19-2.5,16.78-.25,1.71-.53,3.41-.75,5.12-.17,1.29,.36,1.79,1.64,1.67,.39-.04,.74-.17,1.08-.37,1.3-.77,1.82-1.99,2.03-3.41,.6-4.04,1.23-8.09,1.84-12.13,.44-2.87,.88-5.75,1.26-8.18m12.72,18.83c-.08,0-.17-.01-.25-.02-1.3,2.16-2.6,4.32-3.9,6.47-.2,.32-.13,.58,.09,.87,1.55,2.06,1.44,4.34,.63,6.57-.98,2.67-3.32,3.44-5.91,3.66-1.04,.09-1.22,.31-.97,1.32,.42,1.69,2.24,2.74,4.25,2.43,4.02-.61,6.31-2.9,6.95-7.05,.53-3.38,.18-6.75-.26-10.11-.19-1.38-.42-2.76-.63-4.14m7.97-17.1c.21-.18,.33-.24,.39-.34,1.11-1.78,1.9-3.68,2.1-5.78,.05-.51-.08-1.02-.33-1.47-.46-.81-1.14-.9-1.8-.24-.58,.57-.78,1.32-.83,2.09-.13,1.88,.06,3.74,.47,5.75"/>
        <path class="cls-4" d="M0,53.38c.25-1.54,.44-3.1,.76-4.63,1.76-8.27,5.24-15.63,11.47-21.51,3.02-2.85,6.5-4.88,10.69-5.46,2.16-.3,4.28-.08,6.35,.63,.3,.1,.66,.23,.63,.62-.03,.44-.44,.4-.75,.4-5.08-.03-8.62,2.62-11.39,6.58-2.27,3.24-3.71,6.87-4.71,10.66-1.52,5.79-2.39,11.65-1.52,17.65,.32,2.2,.99,4.3,2.14,6.22,3.07,5.13,9.09,6.28,14.01,2.68,2.6-1.9,4.26-4.51,5.45-7.41,2.16-5.29,3.14-10.81,2.75-16.52-.21-3.04-1-5.93-2.85-8.44-1.84-2.49-4.86-2.57-6.89-.18-.15,.17-.28,.35-.41,.54-.34,.5-.98,1.08-.73,1.57,.26,.51,.96-.05,1.47-.1,1.89-.16,3.2,.73,4.14,2.25,.61,.99,.99,2.09,1.19,3.23,1.14,6.54-.17,12.52-4.12,17.89-.53,.73-1.17,1.36-1.86,1.93-2.95,2.44-6.78,1.65-8.69-1.78-1.28-2.29-1.72-4.8-1.98-7.36-.79-8.04,1.95-14.98,6.78-21.2,1.9-2.45,4.31-4.34,7.57-4.64,2.47-.23,4.75,.56,6.86,1.79,3.35,1.94,5.27,5,6.39,8.58,1.51,4.82,1.77,9.78,1.51,14.8-.18,3.56-.43,7.09-1.41,10.53-2.53,8.89-7.6,15.77-15.95,20.03-.88,.45-1.81,.8-2.72,1.2,1.17,.63,3.31,.67,5.37,.12,1.78-.48,3.32-1.46,4.86-2.32,.23,.09,.25,.22,.21,.35-.82,2.99-1.91,5.84-4.11,8.13-1.88,1.96-4.25,2.65-6.87,2.71-2.53,.07-5.05-.22-7.58-.23-3.37-.02-6.31,.91-8.72,3.32-.15,.15-.3,.42-.55,.26-.2-.13-.11-.41-.12-.63-.11-4.91,2.16-8.36,6.48-10.54,.62-.32,1.25-.64,2.13-1.09-1.73-.34-3.15-.83-4.46-1.62-4.1-2.48-6.66-6.18-8.44-10.52-1.26-3.07-1.94-6.29-2.25-9.59-.02-.22-.11-.43-.16-.64v-8.26Zm23.62-10.88c.04,.25,.06,.64,.17,1,.37,1.17,1.38,1.46,2.33,.7,1.12-.89,1.5-2.77,.8-4.02-.44-.78-1.06-1-1.85-.56-1.07,.59-1.4,1.6-1.45,2.88"/>
        <path class="cls-4" d="M85.92,8.07c3.11,0,5.74,2.56,5.74,5.55,0,3.14-2.94,5.96-6.23,5.96-3.15,0-5.68-2.48-5.66-5.57,.02-3.12,2.94-5.94,6.15-5.94"/>
      </g>
    </g>
  </g>
</svg>