<?xml version="1.0" encoding="UTF-8"?>
<svg id="Capa_2" data-name="Capa 2" xmlns="http://www.w3.org/2000/svg" viewBox="0 0 309 248.27">
  <defs>
    <style>
      .cls-1 {
        fill: #fff;
      }
    </style>
  </defs>
  <g id="Capa_1-2" data-name="Capa 1">
    <g>
      <path class="cls-1" d="M15.1,144.77l-5,20.5h12.9l-5-20.5h-2.9ZM0,179.67l10-40.4h13l10,40.4h-6.5l-2.2-8.7H8.8l-2.2,8.7H0Z"/>
      <g>
        <path class="cls-1" d="M55.6,162.67c0-2.9-.5-4.9-1.4-6.1s-2.5-1.7-4.7-1.7-3.8,.6-4.8,1.8c-1,1.2-1.5,3.2-1.6,6,0,0,12.5,0,12.5,0Zm3.5,11.7l1.7-.2,.1,4.8c-4.5,.9-8.5,1.4-11.9,1.4-4.4,0-7.5-1.2-9.4-3.6s-2.9-6.2-2.9-11.5c0-10.5,4.3-15.7,12.8-15.7s12.4,4.5,12.4,13.5l-.4,4.6h-18.3c0,2.4,.6,4.2,1.6,5.4,1,1.1,2.9,1.7,5.7,1.7,2.8,0,5.7-.1,8.6-.4"/>
        <path class="cls-1" d="M68.1,179.67v-29.5h6.4v3.5c3.3-2.2,6.7-3.6,10-4.2v6.4c-3.4,.7-6.3,1.5-8.7,2.6l-1.3,.5v20.6h-6.4v.1Z"/>
        <path class="cls-1" d="M95.9,172.57c.9,1.6,2.7,2.4,5.3,2.4s4.4-.8,5.3-2.4,1.4-4.2,1.4-7.7-.5-6.1-1.4-7.6c-1-1.5-2.7-2.2-5.2-2.2s-4.3,.7-5.2,2.2c-1,1.5-1.4,4-1.4,7.6-.2,3.5,.3,6.1,1.2,7.7m-4.8-19.2c2-2.6,5.4-3.8,10.1-3.8s8.1,1.3,10.1,3.8c2,2.6,3,6.4,3,11.5s-1,9-3,11.6-5.4,3.9-10.2,3.9-8.2-1.3-10.2-3.9-3-6.5-3-11.6,1.1-8.9,3.2-11.5"/>
        <path class="cls-1" d="M133.6,155.27c-1.8,0-3.7,.4-5.6,1.2l-.9,.4v17.5c1.6,.3,3.3,.5,5.2,.5,2.7,0,4.5-.8,5.6-2.3,1-1.5,1.5-4.2,1.5-7.9,0-6.3-1.9-9.4-5.8-9.4m-12.9,37.1v-42.2h6.4v1.8c2.7-1.7,5.3-2.5,7.6-2.5,3.9,0,6.7,1.2,8.6,3.6,1.8,2.4,2.7,6.4,2.7,12s-1,9.6-3.1,11.8c-2.1,2.3-5.4,3.4-10.1,3.4-1.6,0-3.5-.2-5.6-.5v12.6h-6.5Z"/>
        <path class="cls-1" d="M170.3,150.17h6.4v29.5h-6.4v-1.8c-2.9,1.7-5.5,2.5-8,2.5-4.1,0-6.8-1.1-8.1-3.3-1.4-2.2-2.1-6-2.1-11.5v-15.4h6.4v15.5c0,3.5,.3,5.9,.9,7.1s2,1.8,4.1,1.8,4.1-.4,5.8-1.2l.9-.4v-22.8h.1Z"/>
        <path class="cls-1" d="M202,162.67c0-2.9-.5-4.9-1.4-6.1s-2.5-1.7-4.7-1.7-3.8,.6-4.8,1.8c-1,1.2-1.5,3.2-1.6,6,0,0,12.5,0,12.5,0Zm3.5,11.7l1.7-.2,.1,4.8c-4.5,.9-8.5,1.4-11.9,1.4-4.4,0-7.5-1.2-9.4-3.6s-2.9-6.2-2.9-11.5c0-10.5,4.3-15.7,12.8-15.7s12.4,4.5,12.4,13.5l-.4,4.6h-18.3c0,2.4,.6,4.2,1.6,5.4,1,1.1,2.9,1.7,5.7,1.7s5.7-.1,8.6-.4"/>
        <path class="cls-1" d="M214.5,179.67v-29.5h6.4v3.5c3.3-2.2,6.7-3.6,10-4.2v6.4c-3.4,.7-6.3,1.5-8.7,2.6l-1.3,.5v20.6h-6.4v.1Z"/>
        <path class="cls-1" d="M236.4,141.67h6.4v8.6h8.1v5.5h-8.1v13c0,2.4,.2,4,.5,4.8,.4,.8,1.3,1.2,2.7,1.2l4.8-.2,.3,5.1c-2.6,.5-4.6,.8-6,.8-3.3,0-5.6-.8-6.9-2.3-1.2-1.5-1.9-4.4-1.9-8.7v-27.8h.1Z"/>
        <path class="cls-1" d="M262.6,172.57c.9,1.6,2.7,2.4,5.3,2.4s4.4-.8,5.3-2.4c.9-1.6,1.4-4.2,1.4-7.7s-.5-6.1-1.4-7.6c-1-1.5-2.7-2.2-5.2-2.2s-4.3,.7-5.2,2.2c-1,1.5-1.4,4-1.4,7.6-.2,3.5,.3,6.1,1.2,7.7m-4.8-19.2c2-2.6,5.4-3.8,10.1-3.8s8.1,1.3,10.1,3.8c2,2.6,3,6.4,3,11.5s-1,9-3,11.6-5.4,3.9-10.2,3.9-8.2-1.3-10.2-3.9-3-6.5-3-11.6,1.2-8.9,3.2-11.5"/>
        <path class="cls-1" d="M307.9,156.27c-4.6-.6-8-.9-10.1-.9s-3.5,.2-4.3,.7-1.2,1.3-1.2,2.3c0,1.1,.4,1.8,1.3,2.2,.9,.4,3,.9,6.3,1.5s5.6,1.5,7,2.7,2.1,3.4,2.1,6.5-1,5.4-3,6.8c-2,1.5-4.9,2.2-8.7,2.2-2.4,0-5.4-.3-9.1-1l-1.8-.3,.2-5.4c4.7,.6,8.1,.9,10.2,.9s3.6-.3,4.5-.8,1.3-1.4,1.3-2.5c0-1.2-.4-2-1.3-2.4-.8-.5-2.9-.9-6.1-1.5-3.2-.5-5.6-1.4-7.1-2.5s-2.2-3.2-2.2-6.3,1-5.3,3.1-6.8,4.7-2.2,7.9-2.2c2.5,0,5.6,.3,9.3,.9l1.8,.4-.1,5.5Z"/>
      </g>
      <path class="cls-1" d="M52.7,197.47l-6.2,22.4h15.5l-6.2-22.4h-3.1Zm-14.7,36.9l11.2-40.9h9.9l11.2,40.9h-4.5l-3-10.5h-17.3l-3,10.5h-4.5Z"/>
      <g>
        <path class="cls-1" d="M76.1,234.37v-29.5h4.4v4c3.4-2.4,7-3.9,10.8-4.7v4.5c-1.7,.3-3.4,.8-5.2,1.5-1.8,.7-3.2,1.3-4.1,1.8l-1.5,.8v21.6h-4.4Z"/>
        <path class="cls-1" d="M100,214.37c0,2.3,.5,4,1.6,5,1,1,2.8,1.5,5.2,1.5s4.1-.5,5.1-1.5,1.5-2.6,1.5-5-.5-4-1.5-5-2.7-1.5-5.1-1.5-4.1,.5-5.2,1.5-1.6,2.7-1.6,5m-.4,24.6c0,2.1,.6,3.5,1.7,4.3,1.2,.8,3.3,1.2,6.4,1.2s5.4-.4,6.7-1.3c1.4-.9,2-2.3,2-4.3s-.5-3.3-1.5-3.9c-1-.6-2.9-.9-5.8-.9l-6.4-.3c-1.3,.9-2.2,1.8-2.6,2.5-.3,.7-.5,1.6-.5,2.7m8.3,9.3c-4.7,0-8-.6-9.9-1.9-1.9-1.3-2.8-3.6-2.8-7,0-1.6,.4-2.9,1.1-3.9s1.9-2.1,3.6-3.4c-1.1-.7-1.7-2.1-1.7-4.1,0-.7,.5-1.9,1.5-3.7l.5-.9c-3.1-1.4-4.7-4.4-4.7-8.9,0-6.7,3.7-10.1,11-10.1,1.9,0,3.6,.2,5.3,.6l.9,.2,8.7-.2v3.8l-5.6-.1c1.3,1.3,1.9,3.3,1.9,5.9,0,3.7-.9,6.3-2.7,7.8-1.8,1.5-4.7,2.2-8.7,2.2-1.1,0-2-.1-2.9-.2-.7,1.7-1.1,2.9-1.1,3.4,0,1.2,.4,2,1.1,2.3s3,.4,6.8,.4,6.5,.6,8.1,1.8c1.7,1.2,2.5,3.5,2.5,6.9,.2,6-4.2,9.1-12.9,9.1"/>
        <path class="cls-1" d="M145.3,217.97c0-3.6-.6-6.2-1.7-7.7-1.2-1.5-3.1-2.2-5.7-2.2s-4.6,.8-5.9,2.4c-1.3,1.6-2,4.1-2,7.6h15.3v-.1Zm1.6,12.8l1.7-.2,.1,3.5c-4.5,.6-8.3,.9-11.5,.9-4.3,0-7.3-1.2-9-3.7-1.8-2.5-2.7-6.3-2.7-11.5,0-10.4,4.1-15.5,12.3-15.5,4,0,6.9,1.1,8.9,3.3s3,5.7,3,10.5l-.2,3.4h-19.5c0,3.3,.6,5.7,1.8,7.3,1.2,1.6,3.2,2.4,6.2,2.4s5.9-.2,8.9-.4"/>
        <path class="cls-1" d="M161.1,234.37h-4.4v-29.5h4.4v2.1c3.2-1.8,6.2-2.7,9.2-2.7,3.9,0,6.6,1.1,7.9,3.2,1.4,2.1,2,5.9,2,11.3v15.6h-4.4v-15.5c0-4.1-.4-6.9-1.2-8.4-.8-1.5-2.5-2.3-5.2-2.3-1.3,0-2.6,.2-4,.6-1.4,.4-2.5,.7-3.2,1.1l-1.1,.5v24h0Z"/>
        <path class="cls-1" d="M203.7,208.67h-9.4v14.1c0,3.4,.2,5.6,.7,6.7,.5,1.1,1.7,1.6,3.5,1.6l5.3-.4,.3,3.7c-2.6,.4-4.6,.6-6,.6-3.1,0-5.2-.7-6.4-2.2-1.2-1.5-1.8-4.4-1.8-8.6v-15.5h-4.2v-3.8h4.2v-9h4.4v9h9.4v3.8Z"/>
      </g>
      <path class="cls-1" d="M210.4,205.37h4.4v29.5h-4.4v-29.5Zm0-11.8h4.4v5.1h-4.4v-5.1Z"/>
      <path class="cls-1" d="M226.4,234.37h-4.4v-29.5h4.4v2.1c3.2-1.8,6.2-2.7,9.2-2.7,3.9,0,6.6,1.1,7.9,3.2,1.4,2.1,2,5.9,2,11.3v15.6h-4.4v-15.5c0-4.1-.4-6.9-1.2-8.4s-2.5-2.3-5.2-2.3c-1.3,0-2.6,.2-4,.6-1.4,.4-2.5,.7-3.2,1.1l-1.1,.5v24Z"/>
      <path class="cls-1" d="M256.4,225.87c0,3.6,1.5,5.4,4.5,5.4,2.7,0,5.3-.5,7.9-1.4l1.4-.5v-9.7l-8.7,.8c-1.8,.2-3,.7-3.8,1.5-.9,1-1.3,2.2-1.3,3.9m18.2-12.1v15.1c.1,1.5,1.3,2.3,3.4,2.6l-.2,3.5c-3.1,0-5.4-.8-7-2.4-3.5,1.6-7.1,2.4-10.6,2.4-2.7,0-4.8-.8-6.2-2.3s-2.1-3.7-2.1-6.6,.7-5,2.2-6.3c1.5-1.4,3.7-2.2,6.9-2.5l9.3-.9v-2.5c0-2-.4-3.4-1.3-4.3-.9-.9-2-1.3-3.5-1.3-3.1,0-6.4,.2-9.8,.6l-1.8,.2-.2-3.4c4.3-.9,8.2-1.3,11.5-1.3s5.8,.8,7.3,2.3c1.3,1.5,2.1,3.9,2.1,7.1"/>
      <path class="cls-1" d="M241.4,66.85c-4.3,3.5-11,6.8-19.3,9.7-17.1,5.9-39.6,9.3-63.8,9.7l27.2-53c13.7,1.6,26.2,4.3,36.6,7.9,8.3,2.8,15,6.2,19.3,9.7,2.4,1.9,5.3,4.9,5.3,8s-2.9,6.1-5.3,8m-158,9.7c-8.3-2.8-15-6.2-19.3-9.7-2.4-1.9-5.3-4.9-5.3-8s2.9-6.1,5.3-8c4.3-3.5,11-6.8,19.3-9.7,12.6-4.3,28-7.3,44.9-8.7v52.9c-16.9-1.5-32.4-4.5-44.9-8.8M190.3,23.95l10.5-20.4c.9-1.8-.7-3.9-2.7-3.5-13.8,2.6-29.2,4.5-45.3,4.5-7.4,0-14.7-.9-21.7-1.5-1.5-.1-2.7,1-2.7,2.5V22.65c-54.5,4.2-95.4,22.5-95.4,44.4s40.9,40.2,95.3,44.5v20.2c0,1.7,1.4,3.1,3.1,3.1,1.2,0,2.3-.7,2.8-1.7l10.7-20.8c2.6,.1,5.2,.1,7.9,.1,66.1,0,119.8-20.3,119.8-45.4-.1-20.1-34.6-37.2-82.3-43.1"/>
    </g>
  </g>
</svg>