<?xml version="1.0" encoding="UTF-8"?>
<svg id="Capa_2" data-name="Capa 2" xmlns="http://www.w3.org/2000/svg" viewBox="0 0 951.17 773.25">
  <defs>
    <style>
      .cls-1 {
        fill: #fff;
      }
    </style>
  </defs>
  <g id="Capa_1-2" data-name="Capa 1">
    <g>
      <path class="cls-1" d="M629.89,477.43c19.96,0,39.92,.04,59.87-.06,2.48-.01,3.27,.55,3.39,3.17,1.04,21.43-2.89,41.82-12.36,61.09-14.16,28.82-35.32,50.29-65.84,61.53-12.51,4.61-25.56,6.86-38.95,7.4-20.2,.8-39.89-1.49-58.92-8.5-33.33-12.29-57.09-34.99-72.01-66.97-9.2-19.72-13.29-40.62-12.44-62.37,1.13-28.87,10.58-54.67,29.05-77.04,20.9-25.31,47.33-41.27,79.89-46.2,33.24-5.02,65.35-1.25,95.58,14.35,8.19,4.23,15.44,9.82,22.6,15.54,1.77,1.42,2.11,2.68,1.15,4.83-6.03,13.52-11.99,27.07-17.79,40.68-1.23,2.89-2.03,1.91-3.57,.37-14.12-14.17-30.44-24.61-50.21-28.96-37.97-8.37-76.48,3.83-98.21,40.11-18.17,30.33-14.56,73.9,12.86,101.56,15.07,15.2,32.98,24.33,54.4,26.64,15.81,1.7,31.24,.65,45.96-5.63,16.11-6.88,26.7-19.43,34.38-34.75,1.62-3.23-1.1-2.32-2.45-2.32-21.77-.04-43.55-.1-65.32,.06-3.2,.02-4.07-.69-4.01-3.96,.22-12.43,.18-24.88,.01-37.31-.04-2.82,.81-3.33,3.45-3.32,19.83,.12,39.66,.07,59.48,.07Z"/>
      <path class="cls-1" d="M255.3,478.18c19.24,0,38.04-.3,56.82,.07,28.14,.56,42.4-23.61,38.11-46.59-1.97-10.54-6.15-19.52-15.5-25.59-5.97-3.88-12.53-5.51-19.45-5.54-29.55-.13-59.1-.12-88.65-.06-2.62,0-4.24-.52-5.39-3.12-6.17-14.03-12.49-28-18.83-41.96-1.25-2.75-.92-3.55,2.39-3.53,33.7,.11,67.39-.07,101.09,.09,21.45,.1,42.09,4.06,60.6,15.53,21.19,13.13,32.65,32.59,35.72,57.13,2.47,19.75,.12,38.88-8.42,56.98-6.19,13.11-15.17,23.94-27.74,31.46-2.94,1.76-3.24,2.53-.1,4.66,17.22,11.66,29.31,27.78,39.03,45.87,7.65,14.23,13.24,29.26,17.28,45.3h-24.9c-8.04,0-16.07-.09-24.11,.06-2.17,.04-3.11-.58-3.8-2.68-7.02-21.45-17.98-40.48-34.69-55.95-15.67-14.51-34.05-22.51-55.49-23.13-2.02-.06-3.25-.48-4.14-2.57-6.3-14.81-12.77-29.54-19.17-44.31-.25-.57-.39-1.18-.69-2.11Z"/>
      <path class="cls-1" d="M891.92,608.87c-8.42,0-16.85-.05-25.27,.04-2.02,.02-3.18-.39-4-2.49-11.37-29.13-22.85-58.21-34.31-87.31-7.4-18.79-14.82-37.57-22.25-56.34-.4-1-.45-2.59-1.86-2.5-1.12,.07-1.12,1.56-1.5,2.47-19.94,47.79-39.89,95.58-59.75,143.41-.88,2.11-1.94,2.78-4.17,2.77-14.78-.1-29.55-.09-44.33-.01-2.56,.01-3.47-.15-2.18-3.1,26.64-61.13,53.2-122.3,79.74-183.48,10.3-23.74,20.5-47.52,30.85-71.23,.58-1.32,.56-3.55,2.88-3.59,2.53-.05,2.52,2.33,3.14,3.76,22.07,50.76,44.05,101.55,66.07,152.34,14.79,34.12,29.6,68.24,44.48,102.32,1.03,2.36,.96,3.04-1.86,2.99-8.55-.15-17.11-.06-25.66-.05Z"/>
      <path class="cls-1" d="M260.48,608.87c-18.6,0-36.74-.06-54.88,.06-2.56,.02-2.55-1.8-3.1-3.2-10.46-26.43-20.88-52.87-31.3-79.31-8.58-21.78-17.17-43.55-25.74-65.34-.24-.62-.37-1.24-1.46-1.55-3.63,8.71-7.28,17.47-10.93,26.24-16.62,39.91-33.26,79.81-49.81,119.75-1.02,2.46-2.22,3.46-5.05,3.43-15.54-.17-31.09-.08-47.12-.08,3.59-8.33,7.04-16.34,10.51-24.35,17.48-40.26,34.96-80.51,52.44-120.77,15.42-35.52,30.84-71.03,46.26-106.55,.98-2.25,1.82-4.56,2.94-6.73,.57-1.11,.3-2.91,2.42-3,2.35-.1,2.27,1.88,2.81,3.11,6.62,15.08,13.12,30.21,19.68,45.31,17.79,40.95,35.6,81.9,53.39,122.85,12.66,29.14,25.3,58.29,37.94,87.44,.3,.7,.54,1.42,1,2.68Z"/>
      <path class="cls-1" d="M345.44,190.33c0-20.08,.1-40.16-.03-60.25-.12-19.69,4.08-38.46,12.68-56.06,9.02-18.46,21.48-34.27,38.05-46.81,11.68-8.84,24.22-16,38.04-20.56,19.23-6.34,38.94-8.11,59.19-5.49,21.32,2.76,40.44,10.72,57.94,22.74,12.77,8.77,23.32,19.92,32.14,32.71,12.14,17.61,19.25,37.14,22.17,58.2,.81,5.86,.82,11.86,.83,17.8,.09,41.33,.04,82.66,.16,123.99,.01,3.54-.97,4.71-4.6,4.51-5.81-.32-11.67-.29-17.49-.01-3.4,.16-4.2-1.17-4.19-4.27,.08-23.06-.03-46.12,.06-69.18,.07-18.78-.08-37.55,.22-56.33,.42-26.45-8.64-49.72-25.66-69.76-9.66-11.38-21.54-20.32-35.18-26.38-20.3-9.01-41.5-11.74-63.5-7.55-26.84,5.11-48.39,18.83-64.66,40.47-9.41,12.52-15.36,26.81-18.48,42.33-1.67,8.32-2.06,16.6-2.06,24.98,0,40.42-.04,80.85,.07,121.27,0,3.34-.75,4.6-4.29,4.42-5.69-.29-11.41-.27-17.1,0-3.38,.16-4.44-.79-4.41-4.29,.16-22.15,.08-44.31,.08-66.46h.01Z"/>
      <path class="cls-1" d="M475.83,208.39c-24.36,0-48.72,.03-73.07-.02-5.93-.01-5.09,.56-5.1-5.25-.03-24.35-.41-48.71,.12-73.05,.58-26.51,11.53-48.05,33.4-63.52,15.38-10.88,32.52-15.26,51.38-13.86,17.51,1.3,32.74,8.03,45.52,19.46,15.72,14.07,24.79,31.92,25.81,53.35,1.23,25.75,.27,51.51,.51,77.27,.05,5.61-.12,5.62-5.49,5.62-24.36,0-48.72,0-73.07,0Zm.25-25.7c15.8,0,31.61-.1,47.41,.08,3.77,.04,4.84-1.18,4.8-4.88-.2-15.67-.34-31.34-.08-47.01,.49-28.76-24.02-53.62-53.3-52.69-27.42,.87-50.27,22.39-50.98,49.81-.43,16.56-.02,33.15-.3,49.72-.07,4.05,1.26,5.06,5.05,5.03,15.8-.15,31.61-.06,47.41-.06Z"/>
      <path class="cls-1" d="M476.05,234.97c24.75,0,49.51,.06,74.26-.06,3.21-.02,4.16,.87,4.21,4.13,.09,5.67-.77,11.28-.24,16.99,.43,4.63-.35,4.96-5.02,4.96-49.12,0-98.23-.03-147.35,.08-3.26,0-4.4-.94-4.31-4.15,.16-5.96,.2-11.92-.02-17.88-.12-3.27,1.02-4.15,4.22-4.13,24.75,.12,49.51,.07,74.26,.07Z"/>
      <path class="cls-1" d="M0,715.46c8.64,7.88,16.77,14.9,24.39,22.43,3.01,2.98,4.54,2.49,7.29-.1,7.97-7.48,16.24-14.65,24.38-21.92,1.25,.94,.75,2.07,.75,3,.04,16.7-.07,33.41,.09,50.11,.03,3.16-.91,3.89-3.93,3.82-6.61-.16-6.62,.01-6.62-6.51,0-8.59,0-17.18,0-26.8-5.62,5.31-10.61,9.74-15.23,14.52-2.26,2.33-3.72,2.06-5.91,.09-4.04-3.63-8.28-7.03-12.47-10.48-.57-.47-1.41-1.12-1.95-.98-1.13,.27-.71,1.5-.71,2.31-.01,8.03-.08,16.05,.14,24.08,.08,2.84-.6,3.83-3.61,3.76C0,772.62,0,772.79,0,766.31c0-15.54,0-31.07,0-46.61,0-1.12,0-2.23,0-4.25Z"/>
      <path class="cls-1" d="M340.71,745.01c0-8.16,.07-16.31-.05-24.47-.03-2.23,.29-3.22,2.91-3.06,7.73,.48,15.54-.77,23.22,.93,13.24,2.93,21.88,14.73,21.02,28.56-.89,14.28-9.81,23.67-23.89,25.31-6.97,.81-13.96,.02-20.92,.51-2.48,.17-2.3-1.3-2.3-2.93,.02-8.29,.01-16.57,0-24.86Zm10.91-.1c0,4.91,.06,9.81-.03,14.72-.04,1.88,.33,2.92,2.53,2.73,2.95-.25,5.96-.04,8.88-.44,7.8-1.08,13.15-6.93,13.62-14.55,.63-10.23-3.27-16.53-11.55-18.95-3.95-1.16-7.95-.38-11.91-.63-1.88-.12-1.53,1.3-1.53,2.4-.02,4.91,0,9.81,0,14.72Z"/>
      <path class="cls-1" d="M436.03,773.23c-16.5-.59-28.3-13.42-27.61-30,.62-14.9,14.18-26.92,29.76-26.37,14.84,.53,27.46,14.4,26.86,29.51-.6,14.98-14.01,27.4-29,26.86Zm.36-10.36c9.91,.19,17.25-7.22,17.54-17.7,.26-9.64-7.52-17.97-16.91-18.1-9.74-.14-17.54,7.75-17.62,17.82-.08,9.81,7.47,17.8,17,17.98Z"/>
      <path class="cls-1" d="M779.1,745.11c0-8.15,.1-16.3-.07-24.45-.06-2.64,.83-3.26,3.3-3.18,5.04,.18,10.09,.09,15.14,.05,2.23-.02,4.39,.37,6.49,1,10.6,3.15,13.67,14.98,5.92,22.98-1.3,1.34-2.47,1.86,.01,3.48,6.06,3.96,7.96,8.97,6.45,15.17-1.64,6.72-6.35,10.98-13.41,11.98-7.21,1.02-14.47,.31-21.7,.55-2.58,.09-2.12-1.65-2.12-3.14-.02-8.15,0-16.3-.01-24.45Zm10.59,11.49c0,1.42,.02,2.85,0,4.27-.02,1.03,.23,1.88,1.44,1.81,3.47-.18,7.01,.59,10.39-.7,2.69-1.03,4.27-2.97,4.13-5.9-.14-2.83-1.95-4.39-4.63-4.92-1.63-.33-3.29-.69-4.95-.74-6.39-.19-6.39-.14-6.38,6.17Zm-.05-22.27c.84,1.86-2.27,6.28,3.88,5.87,6.71-.44,9.62-2.09,9.58-6.7-.04-4.02-2.86-5.82-9.13-5.82q-4.34,0-4.33,6.65Z"/>
      <path class="cls-1" d="M726.53,773.2c-14,.11-28.78-12.1-27.42-30.82,1.03-14.15,14.21-26.01,29.37-25.54,14.77,.46,28.12,14.23,26.98,30.37-1.01,14.35-14.11,26.52-28.94,25.99Zm.73-10.32c9.58,.14,17.08-7.55,17.17-17.58,.09-10.15-7.45-18.18-17.13-18.24-9.41-.06-17.02,7.64-17.13,17.32-.12,10.62,7.02,18.35,17.09,18.49Z"/>
      <path class="cls-1" d="M528.87,744.72c0-8.16-.02-16.31,.02-24.47,0-1.1-.76-2.81,1.53-2.71,8.13,.35,16.32-.83,24.4,.87,13.56,2.85,21.53,14.4,20.83,30.15-.53,12.06-10.3,21.95-23.04,23.72-6.85,.95-13.68,.33-20.51,.55-2.83,.09-3.35-1.08-3.3-3.64,.16-8.15,.06-16.31,.06-24.47h.02Zm10.36-.09c0,2.46-.33,4.97,.08,7.36,.59,3.48-2.36,8.3,1.55,10.15,3.01,1.42,7.32,.5,11.01-.32,8.34-1.86,12.9-7.85,12.87-16.89-.04-9.02-4.78-15.48-12.88-16.89-3.28-.57-6.71-.16-10.06-.38-2.04-.13-2.67,.54-2.61,2.59,.14,4.78,.05,9.57,.05,14.36Z"/>
      <path class="cls-1" d="M188.37,772.06c-9.12,2.96-14.49-.91-18.03-8.66-1.11-2.42-3.01-4.48-4.46-6.76-.68-1.07-1.42-1.57-2.77-1.67-5.92-.42-5.92-.48-5.92,5.49,0,2.72-.28,5.48,.07,8.15,.48,3.67-1.06,4.37-4.34,4.14-6.91-.48-6.61,1.44-6.54-6.78,.14-15.4-.36-30.8,.22-46.21,.05-1.42-.01-2.26,1.64-2.21,7.49,.26,15.05-.85,22.47,.69,7.03,1.46,12.12,5.49,13.52,12.73,1.48,7.67,.52,15.02-6.23,20.2-1.87,1.43-1.33,2.46-.45,3.82,2.92,4.55,5.88,9.07,8.81,13.62,.74,1.15,1.37,2.36,1.99,3.42Zm-25.27-44.32q-5.86,0-5.87,5.86c0,1.16,0,2.33,0,3.49,0,7.99,1.85,9.38,9.92,7.44,4.42-1.06,6.5-3.72,6.51-8.29,0-6.2-2.85-8.5-10.56-8.5Z"/>
      <path class="cls-1" d="M882.66,772.11c-9.45,3.17-14.71-1.24-18.42-8.86-1.12-2.3-2.75-4.36-4.08-6.56-.65-1.06-1.38-1.61-2.74-1.72-6.15-.48-6.15-.54-6.15,5.65,0,3.11-.12,6.22,.04,9.32,.12,2.28-.78,2.77-2.91,2.79-7.56,.08-7.56,.16-7.56-7.38,0-14.88,.05-29.77-.06-44.65-.02-2.44,.48-3.34,3.12-3.23,5.56,.24,11.13-.03,16.69,.15,8.4,.27,15.38,5.03,17.54,11.7,2.59,7.99,.25,16.69-6.19,21.92-1.55,1.26-1.3,2.03-.44,3.37,3.76,5.82,7.46,11.68,11.16,17.5Zm-25.35-44.44q-6.02,0-6.02,6.11c0,1.16,0,2.32,0,3.48q0,7.7,7.87,7.51c3.58-.09,6.53-1.24,8.04-4.82,2.94-7-1.3-12.28-9.89-12.28Z"/>
      <path class="cls-1" d="M599.63,744.92c0-8.16,.1-16.32-.06-24.48-.05-2.44,.67-2.97,3.02-2.94,10.49,.13,20.99,.15,31.48-.02,2.7-.04,3.12,.93,3.09,3.31-.09,6.98,0,6.97-6.85,6.96-5.83,0-11.66,.14-17.49-.02-2.13-.06-2.89,.3-2.93,2.65-.16,9.71-.25,9.71,9.61,9.71,3.89,0,7.79,.2,11.66-.06,2.57-.17,2.92,.79,2.9,3.04-.05,6.88,.05,6.88-6.79,6.89-4.79,0-9.59,.16-14.38,.01-2.45-.07-2.99,.83-3.01,3.15-.06,9.41-.14,9.41,9.34,9.41,5.31,0,10.63,.09,15.94-.05,2.23-.06,3.16,.36,3.18,2.89,.07,7.38,.2,7.34-7.35,7.32-9.46-.03-18.92-.1-28.38,.05-2.37,.04-3.09-.52-3.05-2.95,.15-8.29,.06-16.58,.06-24.87Z"/>
      <path class="cls-1" d="M83.95,744.99c0-8.29,.06-16.57-.04-24.86-.02-1.91,.29-2.75,2.47-2.64,10.54,.54,21.08-.07,31.65,.39,4.4,.19,3.2,1.81,3.34,3.89,.05,.77-.09,1.57,.03,2.33,.45,2.81-.49,3.83-3.52,3.72-6.98-.24-13.98,.01-20.97-.11-1.97-.03-2.63,.35-2.7,2.49-.3,9.86-.38,9.86,9.52,9.87,4.14,0,8.29,.09,12.43-.03,1.71-.05,2.11,.5,2.19,2.17,.39,7.73,.45,7.73-7.19,7.75-4.53,0-9.1-.34-13.59,.08-6.7,.64-2.16,5.94-3.21,8.95-.81,2.34,.26,3.69,3.22,3.6,7.37-.21,14.76,.02,22.14-.08,2-.03,2.56,.5,2.6,2.55,.13,7.46,.23,7.53-7.12,7.62-9.45,.12-18.9,.03-28.35,.24-2.5,.06-3-.79-2.96-3.08,.12-8.28,.05-16.57,.05-24.86Z"/>
      <path class="cls-1" d="M246.96,758.78c.81,1.66,1.49,3.03,2.15,4.42,2.62,5.52,2.64,5.56-2.86,7.79-14.75,5.96-35.15,.38-38.81-19.33-2.11-11.39-.06-22.08,9.74-29.52,9.76-7.41,20.45-6.63,31.17-1.87,1.41,.62,2.05,1.43,1.24,2.96-.36,.68-.59,1.42-.88,2.13q-2.28,5.52-7.74,3.1c-9.93-4.41-21.45,2.09-23.04,12.99-1.46,10,3.38,18.99,11.73,20.96,6.1,1.44,12.04,.55,17.29-3.63Z"/>
      <path class="cls-1" d="M295.03,714.68c8.1,18.73,15.87,36.76,23.72,54.76,.97,2.23,1.45,3.26-1.9,3.25-8.97-.04-8.96,.13-12.17-8.09-2.81-7.18-5.6-14.36-8.5-21.51-.41-1.01-.34-2.79-1.66-2.82-1.62-.04-1.44,1.89-1.9,2.96-3.64,8.49-7.3,16.97-10.64,25.58-1.16,2.99-2.64,4.36-5.89,3.9-1.88-.27-3.82-.05-6.24-.05,8.41-19.36,16.67-38.39,25.17-57.98Z"/>
      <path class="cls-1" d="M926.78,715.21c7.99,18.26,15.85,36.26,23.76,54.24,.97,2.21,1.19,3.3-1.99,3.31-8.89,.02-8.93,.18-12.25-8.07-3.35-8.32-6.59-16.68-10.22-25.87-3.47,8.29-6.61,15.8-9.77,23.32-.45,1.07-.93,2.12-1.39,3.19q-3.53,8.13-12.89,7.07c.69-2.89,22.26-52.82,24.74-57.18Z"/>
    </g>
  </g>
</svg>