<?xml version="1.0" encoding="UTF-8"?>
<svg id="Capa_2" data-name="Capa 2" xmlns="http://www.w3.org/2000/svg" viewBox="0 0 181.71 150.27">
  <defs>
    <style>
      .cls-1 {
        fill: #fff;
      }
    </style>
  </defs>
  <g id="Capa_1-2" data-name="Capa 1">
    <g>
      <path class="cls-1" d="M90.81,150.24c-29.67,0-59.35-.01-89.02,.03-1.36,0-1.81-.34-1.79-1.75,.07-6.52,.05-13.05,0-19.57,0-1.12,.2-1.57,1.47-1.56,59.54,.03,119.08,.03,178.62,0,1.22,0,1.63,.24,1.62,1.56-.08,6.48-.04,12.95-.04,19.43,0,1.86,0,1.87-1.83,1.87-25.24,0-50.49,0-75.73,0-4.43,0-8.86,0-13.29,0Zm10.42-11.15c.55,.42,.67,.97,.69,1.55,.03,.91,.29,1.79,.34,2.68,.09,1.72,1.31,1.18,2.18,1.17,1.27-.01,.73-1.02,.65-1.6-.38-2.71-.83-5.42-1.28-8.12-.12-.71,0-1.59-1.19-1.58-1.15,0-2.25-.2-2.63,1.39-.42,1.74-1.04,3.43-1.59,5.21-.63-1.94-1.28-3.81-1.83-5.71-.34-1.17-1.23-.84-1.98-.86-.51,0-1.3-.3-1.44,.49-.59,3.35-1.11,6.72-1.64,10.08-.08,.48,.21,.65,.65,.73,1.63,.3,2.13-.1,2.32-1.79,.14-1.18-.27-2.49,.71-3.58,.54,1.58,1.14,3.06,1.53,4.59,.26,1.02,.93,.75,1.54,.78,.65,.03,1.28,.11,1.52-.84,.39-1.54,.94-3.04,1.44-4.59Zm-50.39-.55c.82,1.63,.6,3.27,.9,4.79,.35,1.74,1.47,1.25,2.34,1.15,1.31-.15,.56-1.18,.47-1.8-.36-2.63-.83-5.24-1.22-7.87-.11-.77-.06-1.62-1.17-1.59-.98,.03-2.13-.4-2.56,1.09-.37,1.3-.71,2.62-1.32,3.85-.14,.27-.28,.6-.51,.6-.27,0-.37-.35-.46-.64-.43-1.4-.88-2.79-1.35-4.18-.43-1.29-1.53-.58-2.32-.7-.62-.09-1.03,.2-1.14,.95-.43,2.96-.95,5.9-1.4,8.86-.09,.58-.54,1.45,.63,1.47,.87,.01,1.99,.45,2.11-1.12,.12-1.48,.18-2.99,.8-4.53,.55,1.71,1.11,3.26,1.53,4.85,.22,.87,.78,.86,1.4,.8,.58-.06,1.32,.38,1.6-.67,.45-1.72,1.06-3.39,1.67-5.3Zm96.01,.62c-.08,0-.16,.01-.24,.02-.76-1.4-1.58-2.76-2.25-4.2-.64-1.36-1.51-1.96-3.09-1.82-1.08,.09-1.37,.39-1.35,1.43,.06,2.85,.04,5.71,.01,8.57,0,.85,0,1.44,1.17,1.42,1.07-.02,1.62-.32,1.58-1.45-.04-1.14-.04-2.28-.08-3.42-.01-.34-.06-.66,.37-.8,.79,1.44,1.58,2.88,2.38,4.32,.65,1.18,2.56,1.81,3.74,1.25,.33-.16,.5-.43,.5-.8,0-3.19,.03-6.38-.02-9.57-.02-1.21-1.05-.8-1.73-.89-.75-.1-1.01,.26-1,.98,.03,1.66,0,3.31,0,4.97Zm14.6-.6c-.03-3.53-1.93-5.54-5.22-5.52-3.28,.02-5.72,2.64-5.61,6.14,.12,3.55,1.98,5.54,5.25,5.5,3.38-.04,5.61-2.47,5.58-6.12Zm-83.72,.24c0,1.52,.02,3.04,0,4.56-.02,.81,.21,1.25,1.13,1.19,.99-.06,2,.06,2.99-.03,2.16-.19,3.98-1.06,4.8-3.19,.81-2.11,.86-4.27-.43-6.26-.3-.46-.73-.83-1.24-1.12-1.94-1.13-4.05-.75-6.12-.77-.87-.01-1.17,.35-1.15,1.2,.04,1.47,.01,2.95,.01,4.42Zm51.15-1.24c0,.71,0,1.43,0,2.14,0,3.89,1.79,5.45,5.64,4.92,2.18-.3,3.59-1.78,3.66-4,.06-2.09-.02-4.19,.04-6.29,.03-1.02-.48-1.18-1.33-1.15-.84,.03-1.5,.06-1.46,1.2,.06,1.95,.04,3.91,.02,5.86-.02,1.59-.47,2.06-1.87,2.06-1.37,0-1.88-.54-1.89-2.07-.02-2-.05-4,0-6,.03-1.15-.7-1.02-1.42-1.03-.76-.02-1.46-.04-1.4,1.07,.06,1.09,.01,2.19,0,3.29Zm-14.08,6.94c1.38,.28,1.62-.24,1.15-1.52-1.07-2.88-2.08-5.78-3.02-8.7-.42-1.29-1.38-.97-2.28-1.1-1.1-.16-1.44,.57-1.7,1.31-1.02,2.94-1.92,5.92-2.97,8.84-.38,1.05-.08,1.31,.89,1.18,.56-.08,1.48,.37,1.6-.46,.31-2.08,1.77-1.75,3.17-1.77,.75-.01,1.24,.26,1.35,.94,.17,1.08,.74,1.48,1.8,1.28Zm-39.5,.03c1.7,.01,1.73,0,1.22-1.56-.98-2.95-2.01-5.87-2.99-8.82-.31-.95-1.01-1.01-1.81-.95-.75,.06-1.53-.28-1.91,.91-1,3.19-2.16,6.33-3.27,9.49-.14,.39-.28,.7,.26,.9,1.06,.39,2.25-.05,2.58-1.14,.26-.85,.69-1.16,1.54-1.07,.52,.05,1.05,.03,1.57,0,.65-.03,1.11,.13,1.17,.9,.08,1.07,.69,1.51,1.64,1.33Zm-39.88,0c1.72,.03,1.93-.17,1.51-1.35-.99-2.79-2.04-5.56-2.98-8.37-.4-1.17-.95-1.7-2.31-1.67-1.38,.04-1.63,.87-1.95,1.83-.88,2.64-1.75,5.27-2.63,7.91-.18,.55-.69,1.17,.09,1.6,.87,.47,2.27-.06,2.45-.93,.16-.79,.36-1.46,1.32-1.24,1.04,.24,2.55-.84,3.03,1.08,.19,.75,.56,1.45,1.47,1.14Zm83.78,.05s0,.04,0,.06c.52-.03,1.05-.01,1.57-.09,2.83-.42,4.31-3.44,2.72-5.55-.63-.83-1.63-1.08-2.52-1.5-.57-.27-1.52-.49-1.24-1.46,.24-.83,1.05-.65,1.7-.66,.14,0,.29-.02,.43,.01,.96,.25,1.27-.22,1.36-1.1,.09-.91-.35-1.2-1.15-1.22-.95-.03-1.89-.06-2.82,.24-1.69,.55-2.5,1.59-2.47,3.34,.03,1.78,.68,2.49,3.08,3.32,.7,.24,1.19,.63,1.09,1.43-.11,.83-.73,.88-1.39,.85-.52-.02-1.05,0-1.54-.21-.25-.11-.64-.29-.73,.07-.17,.63-.33,1.31-.26,1.95,.07,.59,.74,.46,1.19,.51,.33,.04,.67,0,1,0Zm-57.2-4.51c0,1.09,.06,2.19-.02,3.28-.07,1.11,.52,1.22,1.4,1.2,.83-.02,1.49,0,1.44-1.17-.08-2.04,.04-4.09-.05-6.13-.05-1.19,.21-1.82,1.53-1.64,.9,.12,1.14-.47,1.15-1.23,0-.81-.32-1.2-1.2-1.18-1.81,.04-3.61,.03-5.42,0-.93-.02-1.51,.12-1.51,1.3,0,1.21,.68,1.19,1.47,1.12,.91-.08,1.29,.23,1.23,1.19-.07,1.09-.02,2.19-.02,3.28Zm-41.76-1.29c0,1.47,.04,2.95-.01,4.42-.03,.95,.23,1.41,1.28,1.34,1.18-.08,2.38-.05,3.56,0,1.02,.04,1.29-.42,1.28-1.38,0-1.13-.72-1.02-1.44-1.03q-1.83-.03-1.84-1.89c0-1.95-.03-3.9,.01-5.85,.03-1.31-.88-1.06-1.66-1.12-.83-.07-1.23,.18-1.2,1.1,.05,1.47,.01,2.95,.01,4.42Zm35.64,.18h0c0,1.47,.04,2.94-.01,4.41-.04,1,.44,1.19,1.31,1.16,.82-.03,1.53,0,1.52-1.13-.02-2.99-.04-5.98,0-8.97,.02-1.21-.69-1.23-1.57-1.26-.9-.02-1.29,.28-1.26,1.23,.06,1.52,.02,3.04,.02,4.56Z"/>
      <path class="cls-1" d="M16.17,116.29c-4.91,0-9.81-.03-14.72,.02-1,0-1.36-.3-1.35-1.29,.04-3,.05-6,0-9-.02-1.11,.33-1.62,1.47-1.42,1.35,.24,1.68-.35,1.67-1.65-.06-8.24-.05-16.48,0-24.72,0-1.11-.23-1.61-1.41-1.41-1.27,.22-1.77-.28-1.72-1.64,.11-2.85,.08-5.71,.03-8.57-.02-1.03,.24-1.44,1.35-1.44,9.81,.03,19.62,.02,29.44,.01,.7,0,1.22,.19,1.74,.72,2.16,2.22,4.36,4.41,6.59,6.57,.6,.58,.79,1.19,.78,2.01-.04,3.14-.22,6.3,.04,9.42,.19,2.31-.87,3.72-2.43,4.98-.78,.63-1.01,1.05-.09,1.72,2.01,1.46,2.69,3.38,2.51,5.91-.25,3.46-.08,6.95-.04,10.42,0,.8-.15,1.43-.75,2.01-2.27,2.21-4.52,4.44-6.74,6.7-.57,.58-1.19,.65-1.91,.65-4.81-.01-9.62,0-14.43,0h0Zm1.3-16.26s0,0-.01,0c0,1.09,.03,2.19,0,3.28-.04,.93,.22,1.41,1.29,1.34,1.42-.09,2.85-.01,4.28-.03,1.79-.03,2.91-1.19,2.91-2.97,0-1.19,.01-2.38,0-3.57-.01-1.15-1.24-2.46-2.37-2.48-1.71-.03-3.43,.03-5.14-.02-.8-.02-.97,.34-.95,1.02,.02,1.14,0,2.28,0,3.42Zm3.5-16.06c.33,0,.67,.04,1,0,.86-.14,1.79,.36,2.58-.29,1.18-.97,1.89-3.85,1.28-5.23-.07-.16-.25-.27-.35-.42-1.04-1.51-2.61-1.32-4.12-1.25-1.22,.05-2.75-.52-3.58,.24-.86,.79-.27,2.35-.29,3.57-.04,3.4-.01,3.4,3.47,3.41Z"/>
      <path class="cls-1" d="M156.34,65.19c4.1,0,8.19,.03,12.29-.02,.97-.01,1.22,.3,1.21,1.22-.05,3.05-.05,6.1,0,9.14,.02,.98-.22,1.45-1.28,1.27-.97-.16-1.13,.28-.79,1.13,2.09,5.17,4.15,10.36,6.23,15.54,1.31,3.25,2.72,6.47,3.9,9.76,.37,1.04,.9,1.3,1.83,1.35,1.94,.09,1.94,.11,1.93,2.08,0,2.81-.03,5.62,.02,8.43,.01,.87-.27,1.2-1.13,1.2-5.91-.02-11.81-.02-17.72,0-.91,0-1.11-.38-1.1-1.21,.04-3.14,.02-6.29,.02-9.43,0-.47-.1-1.02,.61-1.03,.71,0,.9-.33,.78-.99-.12-.68-.36-1.16-1.17-1.14-1.14,.02-2.29,0-3.43,0-2.76,0-5.53,0-8.29,0-.75,0-1.55,.97-1.4,1.67,.04,.18,.06,.42,.31,.4,1.36-.13,1.08,.85,1.08,1.61,0,2.91-.03,5.81,.02,8.72,.02,1.01-.2,1.42-1.32,1.41-5.72-.06-11.43-.05-17.15,0-.97,0-1.22-.32-1.21-1.23,.04-3.14,.02-6.29,.01-9.43,0-.61-.02-1.11,.84-1.15,2.51-.11,2.45-.17,3.4-2.68,1.83-4.82,3.73-9.62,5.64-14.41,1.28-3.21,2.64-6.4,3.95-9.6,.29-.72,.1-1.11-.74-1.01-.81,.09-1.09-.26-1.08-1.07,.03-3.14,.04-6.29,0-9.43-.01-.89,.3-1.13,1.17-1.13,4.19,.04,8.38,.02,12.58,.02Zm-.36,19.65c-.98,2.5-1.81,4.73-2.73,6.93-.3,.7-.1,.85,.54,.85,1.47,0,2.94-.02,4.41,0,.58,0,.82-.26,.61-.79-.89-2.25-1.81-4.48-2.83-6.98Z"/>
      <path class="cls-1" d="M44.43,90.75c0-5.43,.01-10.86-.01-16.28,0-.85,.19-1.47,.86-2.1,2.14-2.04,4.18-4.17,6.23-6.3,.6-.62,1.26-.89,2.12-.89,6.76,.02,13.52,.02,20.29,.01,.69,0,1.24,.12,1.77,.66,2.16,2.23,4.35,4.43,6.58,6.59,.62,.61,.89,1.23,.89,2.12-.03,10.81-.03,21.62,0,32.43,0,.84-.27,1.43-.83,1.99-2.22,2.19-4.45,4.39-6.64,6.62-.51,.52-1.04,.71-1.75,.71-6.76-.02-13.53-.02-20.29,0-.75,0-1.31-.17-1.87-.76-2.17-2.26-4.4-4.45-6.66-6.62-.54-.52-.69-1.04-.69-1.75,.02-5.48,.01-10.95,.01-16.43Zm24.58-.06c0-3.71,0-7.42,0-11.13,0-1.69-1.03-2.74-2.69-2.75-1.66,0-3.33-.02-4.99,0-1.89,0-2.86,.99-2.86,2.88,0,7.37,0,14.74,0,22.12,0,1.71,1.08,2.82,2.78,2.84,1.66,.02,3.33,.01,4.99,0,1.67,0,2.76-1.13,2.76-2.82,0-3.71,0-7.42,0-11.13Z"/>
      <path class="cls-1" d="M101.55,90.75c0,3.71,0,7.43,0,11.14,0,1.47,1.09,2.6,2.55,2.64,1.71,.05,3.43,.07,5.14,.06,1.96,0,2.86-.92,2.87-2.85,0-1.29,.02-2.57-.01-3.86-.01-.68,.14-1.04,.95-1.03,4.09,.03,8.19,.02,12.29,0,.78,0,.98,.35,.98,1.04,0,3.19,0,6.38,.02,9.57,0,.58-.34,.95-.71,1.32-2.29,2.27-4.59,4.52-6.84,6.82-.52,.53-1.04,.72-1.75,.72-6.71-.01-13.43-.01-20.14,.01-.86,0-1.53-.24-2.14-.86-2.13-2.18-4.28-4.34-6.46-6.46-.59-.58-.84-1.17-.84-2,.02-10.9,.01-21.81,0-32.71,0-.66,.17-1.16,.66-1.64,2.25-2.22,4.5-4.45,6.69-6.73,.56-.58,1.17-.74,1.9-.73,6.81,0,13.62,.02,20.43,0,.71,0,1.25,.18,1.76,.7,2.22,2.28,4.49,4.52,6.75,6.77,.46,.46,.7,.94,.7,1.62-.03,3.14-.03,6.28,0,9.43,0,.87-.19,1.25-1.2,1.23-3.95-.06-7.9-.05-11.86,0-.95,.01-1.23-.29-1.18-1.22,.08-1.42,.04-2.86,.03-4.28-.01-1.6-.96-2.57-2.54-2.59-1.67-.02-3.33,0-5,0-2.02,0-3.02,1.01-3.02,3.05,0,3.62,0,7.24,0,10.86Z"/>
      <path class="cls-1" d="M74.22,50.61c1.04-3.78,2-7.23,2.92-10.68,.65-2.45,1.46-4.87,1.95-7.37,.15-.76-.07-1.32-.73-1.84-4.12-3.24-8.21-6.51-12.29-9.8-.64-.51-1.82-1.06-1.64-1.7,.2-.69,1.43-.28,2.21-.34,5.26-.41,10.53-.63,15.81-.67,.88,0,1.37-.24,1.69-1.12,1.71-4.64,3.49-9.25,5.24-13.87,.3-.79,.59-1.59,.85-2.4,.12-.38,.21-.79,.67-.81,.58-.03,.41,.52,.53,.84,2.08,5.47,4.18,10.94,6.24,16.42,.29,.77,.8,.95,1.55,.95,4.8-.05,9.58,.45,14.37,.6,1.22,.04,2.44,.22,3.81,.35-.4,.73-.99,1.11-1.51,1.53-4.23,3.41-8.46,6.82-12.71,10.21-1.37,1.09-.37,2.32-.12,3.38,.76,3.21,1.74,6.37,2.61,9.55,.51,1.86,.99,3.73,1.48,5.6,.07,.26,.31,.59,0,.78-.31,.2-.59-.02-.89-.22-4.76-3.14-9.54-6.24-14.29-9.39-.83-.55-1.44-.54-2.27,.02-3.55,2.38-7.1,4.74-10.8,6.9-1.52,.89-2.76,2.24-4.69,3.1Z"/>
      <path class="cls-1" d="M158.54,138.44c0,.47,0,.61,0,.75-.05,1.69-1.04,2.93-2.4,3.03-1.29,.09-2.33-.97-2.62-2.7-.18-1.08,.09-2.11,.71-2.99,.55-.78,1.36-1.24,2.35-.99,1.06,.27,1.68,1.02,1.9,2.08,.08,.37,.06,.76,.06,.81Z"/>
      <path class="cls-1" d="M80.37,138.75c0-.47-.03-.95,0-1.42,.05-.63-.29-1.47,.49-1.78,.71-.27,1.5-.08,2.18,.34,1.04,.64,1.53,2.27,1.12,4-.3,1.25-1.12,2.06-2.41,2.32-.94,.19-1.45-.14-1.4-1.18,.04-.76,0-1.52,0-2.28h0Z"/>
      <path class="cls-1" d="M110.99,137.12c.23,.7,.51,1.38,.68,2.09,.07,.31,.4,.81-.11,.97-.42,.13-.96,.11-1.37-.06-.47-.19-.15-.63-.06-.98,.19-.71,.22-1.49,.86-2.02Z"/>
      <path class="cls-1" d="M72.62,140.12c-.73,.09-1.78,.35-1.92-.09-.34-1.05,.5-2.01,.86-3.21,.38,1.19,.71,2.21,1.05,3.3Z"/>
      <path class="cls-1" d="M31.75,136.84c.32,.9,.57,1.6,.82,2.3,.12,.34,.46,.78-.03,.98-.51,.22-1.12,.19-1.66,.02-.23-.07-.14-.31-.08-.49,.3-.88,.59-1.77,.95-2.81Z"/>
    </g>
  </g>
</svg>