<?xml version="1.0" encoding="UTF-8"?>
<svg id="Capa_2" data-name="Capa 2" xmlns="http://www.w3.org/2000/svg" viewBox="0 0 585.11 185.3">
  <defs>
    <style>
      .cls-1 {
        fill: #fff;
      }
    </style>
  </defs>
  <g id="Capa_1-2" data-name="Capa 1">
    <path class="cls-1" d="M255.01,68c-13.72,12.62-16.18,15.91-16.18,18.79,0,2.19,1.5,3.29,4.38,3.29,3.94,0,11-4.5,17.58-9.54l.38,.3c-2.83,3.47-3.55,5.38-3.55,6.64,0,1.5,1,2.6,4.38,2.6,5.63,0,14.41-6.31,21.26-11.8l.42,.42c-2.06,3.15-4.8,10.7,4.39,10.7,7.27,0,15.22-3.85,21.53-8.64l.41,.27c-1.92,4.25-2.19,8.91,1.93,8.91s11.92-5.31,18.38-10.37l.38,.29c-.82,1.4-1.28,2.98-1.35,4.6,0,2.88,1.79,4.94,5.63,4.94,4.44,0,8.64-3,12.21-6.29l.35,.27c-2.25,4.1-3.24,7.65-3.24,10.4,0,3.16,1.52,4.67,3.84,4.94-.47-.4-.84-.91-1.08-1.48-.24-.57-.34-1.19-.29-1.81,0-4,4.53-11.52,18.66-25,1.23-1.24,1.37-1.79,1.37-2.2,0-2.88-4.11-5.49-8.64-5.49-6.91,0-16,4.81-22.15,10.51-6.64,5.45-18.88,15.15-23.25,15.15-1,0-1.38-.55-1.38-1.1,0-1.78,3.83-6.57,12.3-15.18,31.54-17.25,43.8-33.51,43.8-37.63,0-1.37-1.09-3-3.56-3-6.72,0-39.23,32.37-49.79,43.48-5.9,6.31-17,12.49-23.46,12.49-2.33,0-3.43-.83-3.43-2.47,0-1.46,.88-3.29,2.29-5.24,14.87-.55,24.32-10.11,24.32-14.1,0-1.51-1.37-2.89-4.11-2.89-9.47,0-19.07,7.55-27.3,14.27-6.44,5.35-15.22,11.52-19.61,11.52-1,0-1.37-.55-1.37-1.09,0-2.34,7.54-9.06,21-20.31,1.38-1.09,1.38-1.78,1.38-2.19,0-1-2.34-2.2-3-2.2-.83,0-1.51,.14-7,5.22-6.17,5.62-24.28,20.57-29.76,20.57-1,0-1.38-.55-1.38-1.09,0-2.34,7.55-9.06,21-20.31,1.37-1.09,1.37-1.78,1.37-2.19,0-1-2.19-2.2-3-2.2s-1.5,.14-7,5.22m104.38-3.7c1.37,0,2.75,.41,2.75,1.5,0,.69-.55,1-3.44,3.84-2.33,2.34-3.83,4-6.3,6.59-4,3.84-11.25,11.25-15.23,11.25-1.37,0-2.19-.69-2.19-1.93,0-7.13,17.14-21.25,24.41-21.25Zm5.35-31c.18,0,.37,.02,.54,.09,.17,.07,.33,.18,.45,.31,.13,.13,.22,.3,.28,.47,.06,.18,.08,.36,.06,.55,0,3.13-10.91,18-37.65,33.29l-.33-.39c27.15-28.06,33.87-34.28,36.61-34.28m-54.32,31.14c1.1,0,1.79,.55,1.79,1.37,0,3.3-8.64,11.67-21.38,12.31,5.47-6.5,15.66-13.68,19.59-13.68Zm-95.74-5.76c1.37,0,3.84-1.65,3.84-3.29,.03-.26,0-.52-.08-.77-.09-.25-.23-.47-.41-.66s-.41-.33-.66-.41-.51-.11-.77-.08c-2.19,0-4.11,1.78-4.11,3.43,0,1.23,.82,1.78,2.19,1.78Zm335.92-4.11c4.12-.55,4.12-3.3,3.16-5.08l-1.24-.55c-3.84,3.16-9.46,5.49-13,7.27l.28,1,10.8-2.64Zm34.29,10c-.41-.82-.41-1.79-2.47-1.79-6.58,0-15.08,3.85-25.1,9.74l-.41-.41c5.9-6,6.72-6.58,6.72-7.54s-1.92-1.79-2.74-1.79-2.06,.28-4.25,2.89c-4,4.59-12.44,9.64-19.35,11.17,6-6.89,8.21-14.06,1.51-14.06-9.46,0-18.92,7.69-27.15,14.41-6.45,5.35-14,10-19.34,10-1.92,0-3.3-.55-3.3-2.06,0-5.21,15.78-20.84,28.12-19.75,.83-2.06-.82-2.61-3-2.61-11.25,0-30.32,12.63-30.32,21.82,0,3.42,3.3,4.8,6.86,4.8,5.08,0,13.58-3.57,21.67-11l.55,.41c-2.06,3.16-4.53,10.57,2.47,10.57s15-5.21,20.55-11c4.34-.73,8.52-2.2,12.35-4.36l.37,.5-1,1.15c-9.46,10.7-9.73,11.25-9.73,12.48,.08,.51,.31,.98,.67,1.35,.36,.37,.83,.62,1.33,.71,.69,0,1.38-.55,2.34-1.78,13-15.78,32.23-23.87,36.48-23.87,2.06,0,1.79,1.37,.28,2.47-22,15.22-26.75,24.55-26.75,34.84,0,13.85,12.34,17.69,23,16.32-9.74,.27-19.75-4.12-19.75-13.3,0-11.8,13-24,27.16-36.35,2.74-2.34,2.6-3,2.19-4m-66.11,22.63c-1.37,0-2.47-.55-2.47-2.2,0-3,3.7-7.54,8-11.1,1.09,2.88,2.88,4.66,9.19,4.66h.18c-4.85,4.71-10.94,8.64-14.86,8.64m16.15-10c-.49,.06-.98,.08-1.47,.08-14,0,.41-12.61,5.76-12.61,1.09,0,2.06,.41,2.06,1.64,0,2.89-2.69,7.05-6.35,10.89Zm-353.44,9.55c0,1.92,1.51,3.29,4.39,3.29,5,0,15.59-7.42,22.93-13.1l.34,.4c-5.69,6.26-8.87,9.64-8.87,10.78,.08,.52,.32,1,.69,1.37,.37,.37,.85,.61,1.37,.69,.68,0,1.37-.55,2.33-1.78,13.14-15.83,32.2-23.78,36.44-23.78,2.05,0,1.78,1.37,.27,2.47-27.84,19.06-24.42,26.61-20.85,28.94l.69-.14c.41-7.13,11.11-16.18,23.86-27.29,2.75-2.34,2.61-3,2.2-4-.41-1-.41-1.79-2.47-1.79-6.59,0-15.09,3.85-25.1,9.74l-.41-.41,4.57-4.73c29-13,39.46-29.12,39.46-32.85,0-1.37-1-3-3.43-3-6.95,0-34.5,27.58-46.94,40.51-6.19,5-21.57,16.55-26.31,16.55-1,0-1.37-.55-1.37-1.09,0-2.34,7.54-9.06,21-20.31,1.37-1.09,1.37-1.78,1.37-2.19,0-1-2.06-2.2-3-2.2s-1.51,.14-7,5.22c-13.71,12.62-16.18,15.91-16.18,18.79m79.28-53.5c.18,0,.36,.02,.54,.09,.17,.07,.32,.17,.45,.3,.13,.13,.23,.29,.29,.46,.06,.17,.09,.35,.08,.54,0,2.92-9.89,18-34.89,29.86l-.26-.31c24.44-25.11,31.28-30.93,33.78-30.93m-83.51-2.22C184.14,15,161.96,0,136.14,0,84.41,0,49.77,33.1,49.77,33.1,79.57,12.1,109.7,3.76,136.84,3.76s45.19,11.65,40.47,27.3m-103,60.8c16.74,7.81,26.2,1.78,32.65-15.78,6.45-17.56,16.18-18.38,16.18-20.85,0-.17-.04-.34-.11-.5-.07-.16-.18-.3-.3-.41-.13-.12-.28-.2-.44-.26-.16-.05-.34-.07-.51-.06-1.37,0-2.19,3.15-17.83,13.44-12.89,8.5-30.86,16.87-43.89,18l.27,1.51c11.93-1.05,30-8.74,45-18.4l.48,.48c-6.36,8.46-12,28.3-31.47,22.86m92.59-19.89c3-5,3.08-9.22-2-9.22-9.46,0-18.93,7.69-27.16,14.41-6.44,5.35-14,10-19.34,10-1.92,0-3.29-.55-3.29-2.06,0-5.21,15.77-20.84,28.12-19.75,.82-2-.82-2.61-3-2.61-11.25,0-30.31,12.63-30.31,21.81,0,3.43,3.29,4.81,6.86,4.81,5.07,0,13.58-3.57,21.67-11l.55,.41c-2.06,3.16-4.53,10.57,2.47,10.57,9,0,19.33-8.37,24.4-15.72,5.14-1.5,11-6.18,14-9.11,1.28,.63,2.71,.91,4.13,.82,1.64,0,1.92,1.1,.41,2.2-27.85,19.06-23.46,26.06-19.89,28.39l.69-.14c.41-7.13,10.15-15.64,22.9-26.74,2.75-2.34,2.61-3,2.2-4s-.69-1.1-2.74-1.1c-1.8,0-4.34,.09-6.33-.78,10.61-10,12.36-12.13,12.36-13.62-.04-.48-.26-.93-.62-1.26-.35-.33-.82-.51-1.31-.52-2.88,0-12.76,11.24-12.76,15.08,0,.2,.03,.4,.09,.59-3.12,3-7.82,6.78-12.05,8.49m-22.05,15.2c-1.38,0-2.47-.55-2.47-2.19,0-4.81,9.19-12.9,15-15.91l.55,.41c.13,1.78,1,4.66,4.93,4.66,.3,0,.59-.02,.89-.06-4.94,6.4-13.73,13.09-18.85,13.09m19.89-14.51c-.63,.15-1.28,.23-1.93,.24-5.07,0-2.33-8.22,2.47-8.22,1.1,0,2.06,.41,2.06,1.64,0,1.77-1,4-2.6,6.34Zm235.27,39.27c5.73-6.24,11-12.9,15.77-19.91,14.12-20.57,22.76-32.09,31.41-32.09-6.31-1.1-14.68,.82-26.48,12.06-.46,.44-.93,.9-1.39,1.36-6.9,6.79-17.23,17.76-28.51,17.57-17.33-.28-5.9-24.17,17.3-43,2.76,1.19,5.76,1.75,8.76,1.62,46.64,0,62.69-25.24,39.51-25.24-15.78,0-34.53,7.91-50.48,18.38-1.55-10.59,28.75-33.19,74.34-33.19,24.83,0,46.64,9.87,41.43,26.61,7.13-18.25-12.76-30.59-42.93-30.59-48,0-78.33,26.33-74.49,38.26-30.25,20.45-49.4,49.66-16.32,49.66,8,0,14.95-3.47,20.79-7.94l.17,.18c-1.33,1.78-2.7,3.68-4.09,5.71-4.34,7.04-9.23,13.73-14.63,20-2.49-.08-5.06-.12-7.73-.12-43.28,0-92.24,9.85-99.48,24.7-60.62,16.77-118.69,36.49-173.21,36.49-30.86,0-44.48-15.54-36.17-34.58,39.55-12.58,53-39.1,39.57-39.1-14.53,0-43.82,14.47-56.9,36.23-11.89,0-40.85,.67-40.85-20,0-18,32.15-41.08,39.56-45.95,16.12,0,48.71-11.93,48.71-19.78,0-1-1.29-2.07-5.45-2.07-8.55,0-27.49,3.69-45.16,14.55-2.08-.46-3.7-1.5-3.7-3.23,0-12,46.32-44.48,90.56-44.48,17.1,0,33,7.51,33,19.76,0,4-2.77,7.39-7.16,9.7,4.16-1.5,8.2-5,8.2-9.82s-3.81-22.87-44.47-22.87S39.62,42.21,39.62,60.11c0,2.2,.81,4.62,4.16,7.28C33.61,75.39,0,98.81,0,118.91c0,12,12.59,24,42.62,24,5.2,0,10.23-.41,10.23-.41-1.47,3.83-2.25,7.9-2.28,12,0,24.69,35.46,37,81.68,27.69-43.07,5.76-74.68-6.7-74.68-27.83,.06-4.54,1.03-9.02,2.85-13.18,3.22-.67,6.35-1.42,9.38-2.27-10.19,19.9,2.94,37.67,37,37.67,49.68,0,112.81-21,175.47-38.54-.11,.54-.17,1.1-.17,1.65,0,6.58,9.89,10.81,30.05,10.81,31.91,0,57.39-10.59,78.4-29.32,32,1.34,46.2,10.78,41.76,22.46,12.23-10.8-2.22-23.09-39.72-24.31,2.1-1.95,4.15-3.99,6.16-6.1,57.76,4.42,49.77,32.82,34,38.51,25.19-5.44,26.91-34.99-32.61-39.83Zm56.78-86c19.75,0,3.29,22.08-40,22.08-2.48,.1-4.95-.31-7.27-1.2,14.6-11.57,32.42-20.88,47.32-20.88M99.67,49.91c1.45,0,1.85,.28,1.85,.7,0,2-18.6,9.59-34,11.43,0,0,21.83-12.13,32.11-12.13m-35.69,84.7c12.31-20,37.32-34.07,49.61-34.07,10.46,0-3.81,23.64-36.93,31.89,4.13-6.2,9.25-11.68,15.15-16.23-8,5.46-14.1,11.23-18.28,17-3.15,.66-6.34,1.15-9.55,1.46m248.27,14.34c-8.2,0-20.71-3.3-20.71-9.06,0-1.6,.41-3.18,1.16-4.59,30.16-8,60.09-14,88.26-14.18-22.09,18.36-42.9,27.83-68.71,27.83Zm70.56-29.6c-30.05,.42-59.58,6-88.52,13.57,10.65-12.94,50.49-20.19,88.32-20.19,2.22,0,4.36,0,6.44,.09-2.04,2.28-4.12,4.46-6.24,6.53Zm113.65-61.07c0-.17-.04-.34-.11-.5-.07-.16-.18-.3-.3-.42-.13-.12-.28-.2-.44-.26-.16-.06-.34-.08-.51-.06-1.37,0-2.47,2.2-17,14.13-6.72,5.49-19.06,17-23.18,17-1,0-1.37-.55-1.37-1.1,0-2.05,4.66-6.58,15.09-16.59,1.23-1.24,1.37-1.79,1.37-2.2,0-2.88-4.12-5.49-8.64-5.49-11.39,0-28.81,13-28.81,21.68,0,2.88,1.78,4.94,5.63,4.94,4.44,0,8.65-3,12.21-6.29l.48,.37c-.62,1.09-.97,2.32-1,3.58,0,1.65,1.23,3,4.11,3,5.63,0,18.65-12.76,24.28-17.28l.55,.55c-6,6.17-14.68,33.88-35.66,28,19.06,8.23,27.15,1.78,35.93-21.4,5.9-17.15,17.42-18.11,17.42-21.67m-56.1,29.22c-1.37,0-2.19-.69-2.19-1.93,0-7.13,17.14-21.25,24.41-21.25,1.37,0,2.75,.41,2.75,1.5,0,.69-.55,1-3.43,3.85-2.33,2.32-3.84,4-6.31,6.58-4,3.84-11.25,11.25-15.23,11.25Z"/>
  </g>
</svg>