<?xml version="1.0" encoding="UTF-8"?>
<svg id="Capa_2" data-name="Capa 2" xmlns="http://www.w3.org/2000/svg" xmlns:xlink="http://www.w3.org/1999/xlink" viewBox="0 0 739.34 180.04">
  <defs>
    <style>
      .cls-1 {
        fill: #fff;
      }

      .cls-2 {
        clip-path: url(#clippath-2);
      }

      .cls-3 {
        clip-path: url(#clippath-1);
      }

      .cls-4 {
        clip-path: url(#clippath);
      }
    </style>
    <clipPath id="clippath">
      <rect class="cls-1" x="724" y="72" width="15.34" height="38"/>
    </clipPath>
    <clipPath id="clippath-1">
      <rect class="cls-1" x="228" y="131" width="3" height="49.04"/>
    </clipPath>
    <clipPath id="clippath-2">
      <rect class="cls-1" x="506" y="131" width="4" height="49.04"/>
    </clipPath>
  </defs>
  <g id="Capa_1-2" data-name="Capa 1">
    <g id="surface1">
      <path class="cls-1" d="M0,109.23v-.98c.78-.16,1.28-.36,1.51-.61,.23-.25,.35-.71,.35-1.4v-30.61c0-.68-.12-1.15-.35-1.4-.23-.25-.73-.46-1.51-.64v-.95H36.19c.7,0,1.2-.11,1.47-.34s.52-.71,.71-1.46h1.02v12.19h-1.02c-.22-.73-.45-1.2-.69-1.41-.24-.21-.64-.32-1.2-.32H12.88v6.2h15.27c.73,0,1.24-.12,1.53-.36,.29-.24,.54-.7,.73-1.38h1.02v11.38l-1.05-.04c-.17-.68-.4-1.14-.69-1.38-.29-.24-.8-.36-1.53-.36H12.88v10.89c0,.64,.12,1.09,.36,1.35s.77,.48,1.56,.66v.98"/>
      <path class="cls-1" d="M61.77,95.34h13.09l-6.76-16.1-6.33,16.1Zm16.4,13.89v-.99c.49-.11,.84-.27,1.07-.46,.23-.19,.35-.46,.35-.8,0-.16-.04-.36-.11-.59-.07-.24-.2-.57-.36-1.01l-1.57-3.95h-18.15l-1.6,3.95c-.1,.23-.17,.44-.22,.63-.05,.19-.07,.38-.07,.56,0,.43,.13,.78,.38,1.05s.65,.48,1.18,.61v.99h-13.31v-.99c1.31-.64,2.4-2.12,3.27-4.46,.1-.25,.17-.43,.22-.55l10.29-26.35c.2-.52,.36-.97,.48-1.36s.18-.66,.18-.82c0-.36-.09-.63-.25-.8-.17-.17-.46-.27-.87-.32v-.95h19.46v.95c-.41,.05-.7,.15-.88,.32-.17,.17-.25,.44-.25,.8,0,.14,.07,.41,.2,.82,.13,.41,.3,.86,.49,1.36l12.44,29.35,.04,.1c.41,.98,1.04,1.61,1.89,1.91v.99"/>
      <path class="cls-1" d="M115.64,106.23c0,.64,.12,1.09,.36,1.35s.76,.48,1.56,.66v.98h-12.8v-.98c.8-.18,1.32-.4,1.56-.66s.36-.71,.36-1.35v-30.61c0-.66-.12-1.12-.36-1.38s-.76-.48-1.56-.66v-.95h19.06v.95c-.51,.16-.9,.34-1.16,.54-.27,.21-.4,.45-.4,.71,0,.23,.15,.68,.44,1.36l.07,.17,6.11,13.34,6.95-13.34c.12-.27,.22-.55,.31-.84s.13-.52,.13-.7c0-.27-.13-.51-.38-.71-.25-.2-.65-.39-1.18-.54v-.95h19.53v.95c-.8,.18-1.33,.4-1.58,.66s-.38,.72-.38,1.38v30.61c0,.64,.12,1.09,.38,1.35s.79,.48,1.58,.66v.98h-14.14v-.98c.8-.18,1.32-.4,1.56-.66s.36-.71,.36-1.35v-24.61l-13.42,26.76-12.95-26.76"/>
      <path class="cls-1" d="M171.05,109.23v-.98c.77-.16,1.28-.36,1.51-.61s.35-.71,.35-1.4v-30.61c0-.68-.12-1.15-.35-1.4s-.73-.46-1.51-.64v-.95h14.8v.95c-.8,.18-1.32,.4-1.56,.66s-.36,.72-.36,1.38v30.61c0,.64,.12,1.09,.36,1.35s.76,.48,1.56,.66v.98"/>
      <path class="cls-1" d="M239.65,100.59c.68,0,1.16-.11,1.44-.32,.28-.21,.51-.69,.71-1.41h1.05v12.12h-1.05c-.2-.73-.43-1.2-.69-1.41-.27-.21-.75-.32-1.45-.32h-36.95v-.98c.78-.16,1.28-.36,1.51-.61s.34-.71,.34-1.4v-30.61c0-.68-.11-1.15-.34-1.4s-.73-.46-1.51-.64v-.95h14.8v.95c-.8,.18-1.32,.4-1.57,.66s-.36,.72-.36,1.38v24.96"/>
      <path class="cls-1" d="M257.81,109.23v-.98c.78-.16,1.28-.36,1.51-.61s.34-.71,.34-1.4v-30.61c0-.68-.11-1.15-.34-1.4s-.73-.46-1.51-.64v-.95h14.8v.95c-.8,.18-1.32,.4-1.56,.66s-.36,.72-.36,1.38v30.61c0,.64,.12,1.09,.36,1.35s.77,.48,1.56,.66v.98"/>
      <path class="cls-1" d="M300.7,95.34h13.09l-6.77-16.1-6.33,16.1Zm16.4,13.89v-.99c.49-.11,.84-.27,1.07-.46,.23-.19,.35-.46,.35-.8,0-.16-.04-.36-.11-.59-.07-.24-.19-.57-.36-1.01l-1.57-3.95h-18.15l-1.6,3.95c-.1,.23-.17,.44-.22,.63-.05,.19-.07,.38-.07,.56,0,.43,.13,.78,.38,1.05s.65,.48,1.18,.61v.99h-13.31v-.99c1.31-.64,2.4-2.12,3.27-4.46,.09-.25,.17-.43,.22-.55l10.29-26.35c.2-.52,.36-.97,.48-1.36,.12-.39,.18-.66,.18-.82,0-.36-.09-.63-.25-.8-.17-.17-.46-.27-.87-.32v-.95h19.46v.95c-.41,.05-.7,.15-.88,.32-.17,.17-.25,.44-.25,.8,0,.14,.07,.41,.2,.82,.13,.41,.3,.86,.49,1.36l12.44,29.35,.04,.1c.41,.98,1.04,1.61,1.89,1.91v.99"/>
      <path class="cls-1" d="M444.09,75.63c0-.7-.13-1.19-.38-1.46s-.77-.49-1.55-.65v-.88h14.95v.88c-.78,.18-1.29,.41-1.54,.68-.26,.27-.38,.75-.38,1.43v18.32c0,5.27-1.71,9.23-5.13,11.9s-8.49,4-15.2,4-11.81-1.36-15.13-4.07c-3.32-2.71-4.98-6.84-4.98-12.38v-17.77c0-.7-.12-1.19-.38-1.46s-.77-.49-1.55-.65v-.88h14.8v.88c-.75,.14-1.25,.34-1.49,.61-.24,.27-.36,.77-.36,1.5v15.97c0,3.31,.69,5.63,2.07,6.95s3.75,1.97,7.09,1.97,5.65-.65,7.05-1.96,2.11-3.58,2.11-6.83"/>
      <path class="cls-1" d="M502.81,85.71c.05-.09,.09-.18,.12-.27,.04-.09,.06-.2,.06-.34,0-1-1.24-1.94-3.71-2.82-2.47-.89-5.2-1.33-8.18-1.33-4.2,0-7.55,.89-10.07,2.69-2.52,1.79-3.78,4.16-3.78,7.12s1.2,5.28,3.6,7c2.4,1.71,5.69,2.57,9.86,2.57,2.4,0,4.44-.2,6.12-.6,1.69-.39,3.43-1.06,5.22-1.99,.49-.25,.8-.47,.95-.65,.14-.18,.21-.41,.21-.68,0-.13-.02-.29-.05-.48-.04-.18-.08-.37-.13-.58l.87-.48,7.46,11.37-.98,.41c-.34-.29-.62-.52-.86-.66-.23-.15-.42-.22-.56-.22-.22,0-.8,.21-1.75,.61-5.17,2.32-10.62,3.48-16.37,3.48-7.71,0-13.83-1.73-18.37-5.18-4.54-3.45-6.8-8.04-6.8-13.79s2.22-10.13,6.66-13.63c4.44-3.51,10.29-5.26,17.57-5.26,3.83,0,7.66,.53,11.47,1.58,3.82,1.06,5.75,1.59,5.8,1.59,.34-.02,.64-.11,.91-.27,.27-.16,.58-.44,.95-.85l.91,.34-6.18,11.71"/>
      <path class="cls-1" d="M551.82,85.71c.05-.09,.09-.18,.12-.27,.04-.09,.06-.2,.06-.34,0-1-1.24-1.94-3.71-2.82-2.47-.89-5.2-1.33-8.18-1.33-4.2,0-7.55,.89-10.07,2.69-2.52,1.79-3.78,4.16-3.78,7.12s1.2,5.28,3.6,7c2.4,1.71,5.69,2.57,9.86,2.57,2.4,0,4.44-.2,6.13-.6,1.68-.39,3.42-1.06,5.21-1.99,.48-.25,.8-.47,.95-.65,.14-.18,.21-.41,.21-.68,0-.13-.02-.29-.05-.48-.04-.18-.07-.37-.12-.58l.87-.48,7.46,11.37-.98,.41c-.34-.29-.62-.52-.85-.66s-.42-.22-.57-.22c-.22,0-.8,.21-1.75,.61-5.16,2.32-10.62,3.48-16.36,3.48-7.71,0-13.84-1.73-18.37-5.18-4.54-3.45-6.8-8.04-6.8-13.79s2.22-10.13,6.66-13.63c4.44-3.51,10.29-5.26,17.57-5.26,3.83,0,7.65,.53,11.47,1.58,3.82,1.06,5.75,1.59,5.8,1.59,.34-.02,.64-.11,.91-.27,.27-.16,.58-.44,.95-.85l.91,.34-6.18,11.71"/>
      <path class="cls-1" d="M581.55,95.34h13.09l-6.76-16.1-6.33,16.1Zm16.4,13.89v-.99c.49-.11,.84-.27,1.07-.46,.23-.19,.34-.46,.34-.8,0-.16-.04-.36-.11-.59-.07-.24-.2-.57-.36-1.01l-1.57-3.95h-18.15l-1.6,3.95c-.1,.23-.17,.44-.22,.63-.05,.19-.07,.38-.07,.56,0,.43,.13,.78,.38,1.05s.65,.48,1.18,.61v.99h-13.31v-.99c1.31-.64,2.4-2.12,3.27-4.46,.1-.25,.17-.43,.22-.55l10.29-26.35c.19-.52,.35-.97,.47-1.36s.18-.66,.18-.82c0-.36-.09-.63-.25-.8-.17-.17-.46-.27-.87-.32v-.95h19.46v.95c-.41,.05-.7,.15-.88,.32-.17,.17-.25,.44-.25,.8,0,.14,.07,.41,.2,.82,.13,.41,.3,.86,.49,1.36l12.44,29.35,.04,.1c.41,.98,1.04,1.61,1.89,1.91v.99"/>
      <path class="cls-1" d="M631.47,80.02v8.31h9.6c3.05,0,5.26-.34,6.62-1,1.36-.67,2.04-1.73,2.04-3.18s-.64-2.59-1.91-3.2c-1.27-.61-3.62-.92-7.04-.92h-9.31Zm-12.88,29.21v-.98c.78-.16,1.28-.36,1.51-.61,.23-.25,.34-.71,.34-1.4v-30.61c0-.68-.11-1.15-.34-1.4-.23-.25-.73-.46-1.51-.64v-.95h27.17c4.88,0,8.66,1.02,11.37,3.05s4.05,4.88,4.05,8.53c0,2.84-.84,5.21-2.53,7.13-1.69,1.92-4.19,3.33-7.51,4.24l5.82,8.54c1.02,1.57,1.84,2.61,2.45,3.12,.62,.51,1.3,.84,2.05,1v.98h-15.71l.04-.98c.41-.11,.72-.27,.93-.46s.31-.43,.31-.7c0-.32-.23-.78-.69-1.39-.19-.25-.34-.44-.44-.58l-6.4-9.4h-8.04v10.52c0,.64,.12,1.09,.36,1.35s.77,.48,1.57,.66v.98"/>
      <path class="cls-1" d="M684.66,81.01v19.71h7.24c4.39,0,7.59-.79,9.62-2.38,2.03-1.59,3.04-4.09,3.04-7.52s-1.01-5.89-3.02-7.46-5.23-2.35-9.64-2.35h-7.24Zm7.31-8.38c4.68,0,8.3,.32,10.86,.95,2.56,.63,4.79,1.69,6.71,3.16,2.04,1.57,3.6,3.58,4.69,6.03,1.09,2.45,1.64,5.15,1.64,8.1s-.54,5.73-1.64,8.19c-1.09,2.46-2.65,4.48-4.69,6.04-1.91,1.48-4.15,2.53-6.71,3.16-2.56,.64-6.18,.96-10.86,.96h-20.19v-.99c.78-.16,1.28-.36,1.51-.61,.23-.25,.34-.71,.34-1.39v-30.61c0-.68-.12-1.15-.34-1.4-.23-.25-.73-.46-1.51-.64v-.95"/>
      <g>
        <rect class="cls-1" x="724" y="72" width="15.34" height="38"/>
        <g class="cls-4">
          <path class="cls-1" d="M724.54,109.23v-.98c.78-.16,1.28-.36,1.51-.61,.23-.25,.34-.71,.34-1.4v-30.61c0-.68-.12-1.15-.34-1.4-.23-.25-.73-.46-1.51-.64v-.95h14.8v.95c-.8,.18-1.32,.4-1.57,.66s-.36,.72-.36,1.38v30.61c0,.64,.12,1.09,.36,1.35s.76,.48,1.57,.66v.98"/>
        </g>
      </g>
      <path class="cls-1" d="M340.95,117.75v-1.19l30.11-41.8h-23.43c-1,0-1.7,.16-2.09,.49-.4,.33-.72,1.04-.96,2.14h-1.5v-18h1.5c.27,1.14,.61,1.88,1.01,2.23,.39,.34,1.08,.52,2.04,.52h50.44v.83l-29.85,41.54h25.5c1.03,0,1.74-.16,2.12-.49,.38-.33,.69-1.04,.93-2.15h1.5v18.62h-1.5c-.24-1.14-.56-1.88-.96-2.22-.4-.35-1.09-.52-2.09-.52"/>
      <path class="cls-1" d="M252.34,23.42c0,2.38,0,6.21,.03,6.68,.09,1.52,.09,1.95,1.05,2.41,.83,.4,2.16,.46,2.72,.46,1.67,0,4.36-.9,4.36-4.39,0-1.86-.62-4.55-3-6.19-1.05-.71-1.83-.8-2.57-.89-.4-.06-1.95-.06-2.41-.06-.12,0-.19,.06-.19,.21v1.77Zm0-3.28c0,.22,.06,.28,.22,.34,.18,.03,.74,.12,1.89,.12,1.73,0,2.16-.06,2.81-.8,.65-.74,1.11-1.86,1.11-3.12,0-2.57-1.14-5.32-4.18-5.32-.34,0-.99,.03-1.48,.15-.28,.06-.37,.16-.37,.34v8.29Zm-2.47-.68c0-4.83,0-5.69-.06-6.68-.06-1.05-.31-1.55-1.33-1.76-.25-.06-.78-.09-1.05-.09-.12,0-.25-.06-.25-.19,0-.18,.16-.25,.5-.25,1.39,0,3.34,.09,3.5,.09,.74,0,1.95-.09,3.37-.09,5.07,0,6.19,3.09,6.19,4.64,0,2.54-1.45,4.05-2.91,5.57,2.29,.71,5.35,2.91,5.35,6.53,0,3.31-2.6,6.74-7.89,6.74-.71,0-3.86-.19-4.11-.19-.16,0-2.11,.09-3.04,.09-.34,0-.49-.06-.49-.25,0-.09,.06-.19,.25-.19,.28,0,.65-.06,.93-.12,.62-.12,.77-.8,.89-1.7,.16-1.3,.16-3.74,.16-6.71"/>
      <path class="cls-1" d="M302.08,33.13c2.79,0,8.54-1.61,8.54-10.61,0-7.42-4.52-11.41-9.4-11.41-5.16,0-9.03,3.4-9.03,10.18,0,7.2,4.33,11.84,9.9,11.84m-.65-23.07c6.96,0,12.16,4.39,12.16,11.6s-4.89,12.65-12.34,12.65c-8.47,0-12-6.59-12-12.16,0-5.01,3.65-12.09,12.19-12.09"/>
      <path class="cls-1" d="M344.39,22.8c0,3.28,.03,6.12,.06,6.71,.03,.77,.09,2.01,.34,2.35,.4,.59,1.61,1.23,5.26,1.23,2.88,0,5.54-1.05,7.36-2.88,1.61-1.58,2.48-4.55,2.48-7.39,0-3.93-1.7-6.47-2.97-7.8-2.91-3.06-6.43-3.49-10.11-3.49-.62,0-1.77,.09-2.01,.21-.28,.12-.37,.28-.37,.62-.03,1.05-.03,4.21-.03,6.59v3.84Zm-2.6-3.34c0-4.83,0-5.69-.06-6.68-.06-1.05-.31-1.55-1.33-1.76-.25-.06-.77-.09-1.05-.09-.12,0-.25-.06-.25-.19,0-.18,.16-.25,.5-.25,1.39,0,3.34,.09,3.5,.09,.37,0,2.32-.09,4.17-.09,3.06,0,8.72-.28,12.4,3.53,1.55,1.61,3,4.18,3,7.86,0,3.9-1.61,6.9-3.34,8.72-1.33,1.39-4.11,3.55-9.37,3.55-2.66,0-6.55-.37-6.86-.37-.16,0-2.11,.09-3.03,.09-.34,0-.5-.06-.5-.25,0-.09,.06-.19,.25-.19,.28,0,.65-.06,.93-.12,.62-.12,.77-.8,.89-1.7,.16-1.3,.16-3.74,.16-6.71"/>
      <path class="cls-1" d="M391.49,19.46c0-4.83,0-5.69-.06-6.68-.06-1.05-.31-1.55-1.33-1.76-.25-.06-.77-.09-1.05-.09-.12,0-.25-.06-.25-.19,0-.18,.15-.25,.5-.25,1.39,0,3.34,.09,3.49,.09,.22,0,6.37,0,7.08-.03,.59-.03,1.08-.09,1.33-.16,.15-.03,.28-.15,.43-.15,.09,0,.12,.12,.12,.28,0,.21-.16,.59-.25,1.45-.03,.31-.09,1.67-.16,2.04-.03,.15-.09,.34-.21,.34-.19,0-.25-.16-.25-.4,0-.22-.03-.74-.19-1.11-.21-.5-.53-.87-2.2-1.05-.53-.06-3.9-.09-4.24-.09-.12,0-.18,.09-.18,.31v8.54c0,.21,.03,.31,.18,.31,.4,0,4.21,0,4.92-.06,.74-.06,1.18-.12,1.45-.43,.22-.25,.34-.4,.46-.4,.09,0,.16,.06,.16,.25s-.16,.71-.25,1.73c-.06,.62-.12,1.76-.12,1.98,0,.25,0,.59-.22,.59-.15,0-.21-.12-.21-.28,0-.31,0-.62-.12-1.02-.12-.43-.4-.96-1.61-1.08-.84-.09-3.89-.15-4.42-.15-.16,0-.21,.09-.21,.21v2.72c0,1.05-.03,4.64,0,5.29,.09,2.13,.55,2.54,3.59,2.54,.8,0,2.17,0,2.97-.34,.8-.34,1.18-.96,1.39-2.23,.06-.34,.12-.46,.28-.46,.19,0,.19,.25,.19,.46,0,.25-.25,2.35-.41,3-.21,.8-.46,.8-1.67,.8-4.67,0-6.74-.19-7.64-.19-.15,0-2.1,.09-3.03,.09-.34,0-.5-.06-.5-.25,0-.09,.06-.19,.25-.19,.28,0,.65-.06,.93-.12,.62-.12,.77-.8,.9-1.7,.15-1.3,.15-3.74,.15-6.71"/>
      <path class="cls-1" d="M446.7,25.99c0-2.5-.16-2.84-1.39-3.19-.25-.06-.77-.09-1.05-.09-.12,0-.25-.06-.25-.19,0-.18,.15-.25,.5-.25,1.39,0,3.34,.09,3.49,.09s2.11-.09,3.03-.09c.34,0,.5,.06,.5,.25,0,.12-.12,.19-.25,.19-.21,0-.4,.03-.77,.09-.84,.16-1.08,.68-1.14,1.77-.06,.99-.06,1.92-.06,3.21v3.46c0,1.39-.03,1.45-.4,1.67-1.98,1.05-4.76,1.39-6.56,1.39-2.35,0-6.74-.31-10.18-3.31-1.89-1.64-3.68-4.95-3.68-8.82,0-4.95,2.41-8.45,5.16-10.18,2.79-1.73,5.85-1.95,8.23-1.95,1.95,0,4.14,.4,4.73,.53,.65,.15,1.73,.28,2.5,.31,.31,.03,.37,.16,.37,.28,0,.43-.21,1.3-.21,4.39,0,.49-.06,.65-.28,.65-.15,0-.18-.19-.21-.46-.03-.43-.18-1.3-.65-2.04-.77-1.18-3.28-2.51-7.27-2.51-1.95,0-4.27,.19-6.62,2.04-1.8,1.42-3.06,4.24-3.06,7.86,0,4.36,2.2,7.52,3.28,8.57,2.45,2.38,5.26,3.31,8.11,3.31,1.11,0,2.72-.18,3.52-.65,.4-.21,.62-.55,.62-1.08"/>
      <path class="cls-1" d="M487.99,23.64c.15,0,.15-.09,.12-.21l-2.94-8.35c-.15-.46-.31-.46-.46,0l-2.72,8.35c-.06,.15,0,.21,.09,.21h5.91Zm-3.22-12.37c.37-1.02,.5-1.21,.68-1.21s.31,.16,.68,1.12c.46,1.17,5.32,13.95,7.21,18.65,1.11,2.75,2.01,3.25,2.66,3.43,.47,.15,.93,.18,1.24,.18,.19,0,.31,.03,.31,.19,0,.18-.28,.25-.62,.25-.46,0-2.72,0-4.86-.06-.59-.03-.93-.03-.93-.21,0-.12,.09-.19,.22-.21,.18-.06,.37-.34,.18-.84l-2.88-7.61c-.06-.12-.12-.18-.28-.18h-6.65c-.15,0-.25,.09-.31,.25l-1.86,5.47c-.28,.77-.43,1.52-.43,2.07,0,.62,.65,.89,1.18,.89h.31c.22,0,.31,.06,.31,.19,0,.18-.18,.25-.46,.25-.74,0-2.07-.09-2.41-.09s-2.04,.09-3.5,.09c-.4,0-.59-.06-.59-.25,0-.12,.12-.19,.28-.19,.22,0,.65-.03,.9-.06,1.42-.19,2.04-1.36,2.6-2.91"/>
      <path class="cls-1" d="M257.54,158.07c.16,0,.16-.09,.12-.21l-2.94-8.35c-.16-.46-.31-.46-.46,0l-2.72,8.35c-.06,.15,0,.21,.09,.21h5.91Zm-3.21-12.37c.37-1.02,.49-1.21,.68-1.21s.31,.16,.68,1.11c.46,1.18,5.32,13.95,7.2,18.65,1.11,2.75,2.01,3.25,2.66,3.43,.46,.15,.93,.18,1.24,.18,.19,0,.31,.03,.31,.19,0,.18-.28,.25-.62,.25-.46,0-2.72,0-4.86-.06-.59-.03-.93-.03-.93-.21,0-.12,.09-.19,.22-.22,.18-.06,.37-.34,.18-.83l-2.88-7.61c-.06-.12-.12-.19-.28-.19h-6.65c-.15,0-.25,.09-.31,.25l-1.86,5.47c-.28,.77-.43,1.52-.43,2.07,0,.62,.65,.89,1.18,.89h.31c.21,0,.31,.06,.31,.19,0,.18-.18,.25-.46,.25-.74,0-2.07-.09-2.41-.09s-2.04,.09-3.5,.09c-.4,0-.59-.06-.59-.25,0-.12,.12-.19,.28-.19,.21,0,.65-.03,.89-.06,1.43-.18,2.04-1.36,2.6-2.91"/>
      <path class="cls-1" d="M279.56,156.58c0,.16,.06,.28,.21,.37,.46,.28,1.89,.5,3.25,.5,.75,0,1.61-.09,2.32-.59,1.08-.74,1.89-2.41,1.89-4.76,0-3.87-2.04-6.18-5.35-6.18-.93,0-1.76,.09-2.07,.18-.15,.06-.25,.19-.25,.37v10.11Zm-2.48-2.69c0-4.83,0-5.7-.06-6.68-.06-1.05-.31-1.55-1.33-1.76-.25-.06-.77-.09-1.05-.09-.12,0-.25-.06-.25-.19,0-.18,.16-.25,.5-.25,1.39,0,3.34,.09,3.5,.09,.34,0,2.69-.09,3.65-.09,1.95,0,4.02,.19,5.66,1.36,.77,.55,2.13,2.07,2.13,4.2,0,2.29-.96,4.58-3.74,7.14,2.53,3.25,4.64,6,6.43,7.92,1.67,1.77,3,2.11,3.78,2.23,.59,.09,1.02,.09,1.2,.09,.16,0,.28,.09,.28,.19,0,.18-.18,.25-.74,.25h-2.2c-1.73,0-2.5-.15-3.31-.59-1.33-.71-2.41-2.23-4.18-4.55-1.3-1.7-2.75-3.77-3.37-4.58-.12-.12-.21-.19-.4-.19l-3.8-.06c-.16,0-.21,.09-.21,.25v.74c0,2.97,0,5.41,.15,6.71,.09,.9,.28,1.58,1.21,1.7,.43,.06,1.11,.12,1.39,.12,.19,0,.25,.09,.25,.19,0,.15-.16,.25-.5,.25-1.7,0-3.65-.09-3.8-.09-.03,0-1.98,.09-2.91,.09-.34,0-.5-.06-.5-.25,0-.09,.06-.19,.25-.19,.28,0,.65-.06,.93-.12,.62-.12,.77-.8,.9-1.7,.15-1.3,.15-3.74,.15-6.71"/>
      <path class="cls-1" d="M321.13,160.42c0-2.5-.15-2.84-1.39-3.19-.25-.06-.77-.09-1.05-.09-.12,0-.25-.06-.25-.19,0-.18,.16-.25,.5-.25,1.39,0,3.34,.09,3.5,.09s2.1-.09,3.03-.09c.34,0,.49,.06,.49,.25,0,.12-.12,.19-.25,.19-.22,0-.4,.03-.77,.09-.84,.16-1.08,.68-1.14,1.77-.06,.99-.06,1.92-.06,3.21v3.46c0,1.39-.03,1.45-.4,1.67-1.98,1.05-4.76,1.39-6.55,1.39-2.35,0-6.75-.31-10.18-3.31-1.89-1.64-3.68-4.95-3.68-8.82,0-4.95,2.41-8.44,5.16-10.18,2.78-1.73,5.84-1.95,8.23-1.95,1.95,0,4.14,.4,4.73,.53,.65,.15,1.73,.28,2.51,.31,.31,.03,.37,.16,.37,.28,0,.43-.22,1.3-.22,4.39,0,.49-.06,.65-.28,.65-.16,0-.18-.19-.21-.46-.03-.43-.19-1.3-.65-2.04-.77-1.18-3.28-2.51-7.27-2.51-1.95,0-4.27,.19-6.62,2.04-1.79,1.42-3.06,4.24-3.06,7.86,0,4.36,2.19,7.52,3.28,8.57,2.44,2.38,5.26,3.31,8.1,3.31,1.11,0,2.72-.19,3.53-.65,.4-.21,.62-.55,.62-1.08"/>
      <path class="cls-1" d="M338.66,153.89c0-4.82,0-5.69-.06-6.68-.07-1.05-.31-1.55-1.33-1.76-.25-.06-.77-.09-1.05-.09-.12,0-.25-.06-.25-.19,0-.18,.15-.25,.49-.25,1.39,0,3.34,.09,3.5,.09,.22,0,6.37,0,7.08-.03,.59-.03,1.08-.09,1.33-.16,.15-.03,.28-.15,.43-.15,.09,0,.12,.12,.12,.28,0,.21-.15,.59-.25,1.45-.03,.31-.09,1.67-.16,2.04-.03,.15-.09,.34-.21,.34-.19,0-.25-.16-.25-.4,0-.21-.03-.74-.18-1.11-.22-.5-.53-.87-2.2-1.05-.53-.06-3.9-.09-4.24-.09-.12,0-.18,.09-.18,.31v8.54c0,.22,.03,.31,.18,.31,.4,0,4.21,0,4.92-.06,.74-.06,1.18-.12,1.45-.43,.22-.25,.34-.4,.46-.4,.09,0,.15,.06,.15,.25s-.15,.71-.25,1.73c-.06,.62-.12,1.76-.12,1.98,0,.25,0,.59-.21,.59-.15,0-.21-.12-.21-.28,0-.31,0-.62-.12-1.02-.12-.43-.4-.96-1.61-1.08-.84-.09-3.9-.15-4.42-.15-.16,0-.21,.09-.21,.21v2.72c0,1.05-.04,4.64,0,5.29,.09,2.13,.55,2.54,3.59,2.54,.8,0,2.16,0,2.97-.34s1.18-.96,1.39-2.23c.06-.34,.12-.46,.28-.46,.18,0,.18,.25,.18,.46,0,.25-.25,2.35-.4,3-.21,.8-.46,.8-1.67,.8-4.67,0-6.75-.19-7.64-.19-.15,0-2.11,.09-3.03,.09-.34,0-.5-.06-.5-.25,0-.09,.06-.19,.25-.19,.28,0,.65-.06,.93-.12,.62-.12,.77-.8,.9-1.7,.15-1.3,.15-3.74,.15-6.71"/>
      <path class="cls-1" d="M363.93,164.1c.06,2.54,.37,3.34,1.21,3.59,.59,.15,1.27,.18,1.55,.18,.15,0,.25,.06,.25,.19,0,.19-.19,.25-.55,.25-1.77,0-3-.09-3.28-.09s-1.58,.09-2.97,.09c-.31,0-.5-.03-.5-.25,0-.12,.09-.19,.25-.19,.25,0,.8-.03,1.27-.18,.77-.22,.93-1.11,.93-3.93l.03-17.72c0-1.21,.09-1.54,.34-1.54s.77,.68,1.08,.99c.46,.52,5.07,5.5,9.84,10.61,3.06,3.28,6.43,7.05,7.42,8.07l-.34-15.71c-.03-2.01-.25-2.69-1.21-2.94-.55-.12-1.27-.16-1.52-.16-.21,0-.25-.09-.25-.21,0-.19,.25-.22,.62-.22,1.39,0,2.88,.09,3.22,.09s1.36-.09,2.63-.09c.34,0,.55,.03,.55,.22,0,.12-.12,.21-.34,.21-.15,0-.37,0-.74,.09-1.02,.21-1.14,.89-1.14,2.75l-.06,18.12c0,2.04-.07,2.2-.28,2.2-.25,0-.62-.34-2.26-1.98-.34-.31-4.79-4.86-8.07-8.38-3.59-3.87-7.09-7.76-8.07-8.88"/>
      <path class="cls-1" d="M404.54,159.34c0,2.97,0,5.41,.15,6.71,.09,.9,.28,1.58,1.21,1.7,.43,.06,1.11,.12,1.39,.12,.18,0,.25,.09,.25,.19,0,.15-.16,.25-.5,.25-1.7,0-3.65-.09-3.8-.09s-2.1,.09-3.03,.09c-.34,0-.49-.06-.49-.25,0-.09,.06-.19,.25-.19,.28,0,.65-.06,.93-.12,.62-.12,.77-.8,.89-1.7,.16-1.3,.16-3.74,.16-6.71v-13.08l-4.58,.06c-1.92,.03-2.66,.25-3.16,.99-.34,.52-.43,.74-.52,.96-.09,.25-.19,.31-.31,.31-.09,0-.15-.09-.15-.28,0-.31,.62-2.97,.68-3.21,.06-.19,.19-.59,.31-.59,.22,0,.53,.31,1.36,.37,.9,.09,2.07,.16,2.45,.16h11.6c1.98,0,2.82-.31,3.06-.31,.16,0,.16,.18,.16,.37,0,.93-.09,3.06-.09,3.4,0,.28-.09,.4-.21,.4-.16,0-.22-.09-.25-.53l-.03-.34c-.12-.93-.84-1.64-3.8-1.7l-3.89-.06"/>
      <path class="cls-1" d="M427.49,159.34c0,2.97,0,5.41,.15,6.71,.09,.9,.28,1.58,1.21,1.7,.43,.06,1.11,.12,1.39,.12,.19,0,.25,.09,.25,.19,0,.15-.16,.25-.5,.25-1.7,0-3.65-.09-3.8-.09s-2.1,.09-3.03,.09c-.34,0-.5-.06-.5-.25,0-.09,.06-.19,.25-.19,.28,0,.65-.06,.93-.12,.62-.12,.77-.8,.89-1.7,.16-1.3,.16-3.74,.16-6.71v-5.44c0-4.83,0-5.7-.06-6.68-.06-1.05-.37-1.58-1.05-1.73-.34-.09-.74-.12-.96-.12-.12,0-.25-.06-.25-.19,0-.18,.15-.25,.49-.25,1.02,0,2.97,.09,3.12,.09s2.11-.09,3.03-.09c.34,0,.5,.06,.5,.25,0,.12-.12,.19-.25,.19-.21,0-.4,.03-.77,.09-.83,.16-1.08,.68-1.14,1.76-.06,.99-.06,1.86-.06,6.68"/>
      <path class="cls-1" d="M444.9,164.1c.06,2.54,.37,3.34,1.21,3.59,.59,.15,1.27,.18,1.55,.18,.15,0,.25,.06,.25,.19,0,.19-.18,.25-.55,.25-1.76,0-3-.09-3.28-.09s-1.58,.09-2.97,.09c-.31,0-.49-.03-.49-.25,0-.12,.09-.19,.25-.19,.25,0,.8-.03,1.27-.18,.77-.22,.93-1.11,.93-3.93l.03-17.72c0-1.21,.09-1.54,.34-1.54s.77,.68,1.08,.99c.46,.52,5.07,5.5,9.84,10.61,3.06,3.28,6.43,7.05,7.42,8.07l-.34-15.71c-.04-2.01-.25-2.69-1.21-2.94-.56-.12-1.27-.16-1.52-.16-.21,0-.25-.09-.25-.21,0-.19,.25-.22,.62-.22,1.39,0,2.88,.09,3.22,.09s1.36-.09,2.63-.09c.34,0,.56,.03,.56,.22,0,.12-.12,.21-.34,.21-.16,0-.38,0-.75,.09-1.02,.21-1.14,.89-1.14,2.75l-.06,18.12c0,2.04-.06,2.2-.28,2.2-.25,0-.62-.34-2.26-1.98-.34-.31-4.79-4.86-8.07-8.38-3.59-3.87-7.08-7.76-8.07-8.88"/>
      <path class="cls-1" d="M486.59,158.07c.16,0,.16-.09,.12-.21l-2.94-8.35c-.16-.46-.31-.46-.46,0l-2.72,8.35c-.06,.15,0,.21,.09,.21h5.91Zm-3.21-12.37c.37-1.02,.49-1.21,.68-1.21s.31,.16,.68,1.11c.46,1.18,5.32,13.95,7.21,18.65,1.11,2.75,2.01,3.25,2.66,3.43,.46,.15,.93,.18,1.24,.18,.18,0,.31,.03,.31,.19,0,.18-.28,.25-.62,.25-.46,0-2.72,0-4.85-.06-.59-.03-.93-.03-.93-.21,0-.12,.09-.19,.21-.22,.19-.06,.38-.34,.19-.83l-2.88-7.61c-.06-.12-.12-.19-.28-.19h-6.65c-.16,0-.25,.09-.31,.25l-1.86,5.47c-.28,.77-.43,1.52-.43,2.07,0,.62,.65,.89,1.18,.89h.31c.21,0,.31,.06,.31,.19,0,.18-.18,.25-.46,.25-.74,0-2.07-.09-2.41-.09s-2.04,.09-3.5,.09c-.4,0-.59-.06-.59-.25,0-.12,.12-.19,.28-.19,.21,0,.65-.03,.89-.06,1.43-.18,2.04-1.36,2.6-2.91"/>
      <path class="cls-1" d="M228.16,48.61h2.4V0h-2.4V48.61Z"/>
      <path class="cls-1" d="M506.62,48.61h2.4V0h-2.4V48.61Z"/>
      <g>
        <rect class="cls-1" x="228" y="131" width="3" height="49.04"/>
        <g class="cls-3">
          <path class="cls-1" d="M228.16,180.04h2.4v-48.61h-2.4v48.61Z"/>
        </g>
      </g>
      <g>
        <rect class="cls-1" x="506" y="131" width="4" height="49.04"/>
        <g class="cls-2">
          <path class="cls-1" d="M506.62,180.04h2.4v-48.61h-2.4v48.61Z"/>
        </g>
      </g>
    </g>
  </g>
</svg>