<?xml version="1.0" encoding="UTF-8"?>
<svg id="Capa_2" data-name="Capa 2" xmlns="http://www.w3.org/2000/svg" viewBox="0 0 146.54 54.91">
  <defs>
    <style>
      .cls-1 {
        fill: #fff;
      }
    </style>
  </defs>
  <g id="Capa_1-2" data-name="Capa 1">
    <g>
      <path class="cls-1" d="M73.42,54.82c-17.48,.21-34.73-1.53-51.32-7.47-5.82-2.08-11.36-4.73-16.11-8.78-7.94-6.78-7.99-14.98-.07-21.82,6.21-5.36,13.67-8.33,21.4-10.61C47.43,.22,68.01-.96,88.8,.67c14.03,1.1,27.84,3.42,40.7,9.41,4.3,2,8.51,4.63,12.04,7.78,6.72,6.02,6.55,13.19,.17,19.53-4.12,4.1-9.19,6.71-14.51,8.86-13.39,5.4-27.45,7.62-41.75,8.53-4,.26-8.02,.04-12.03,.04Zm3.83-2.5c15.52-.34,32.41-2.11,48.57-8.24,5.11-1.94,9.98-4.35,13.91-8.29,5.25-5.27,5.44-11.43-.15-16.32-3.36-2.94-7.35-5.38-11.42-7.26-9.54-4.42-19.79-6.52-30.19-7.8-23.23-2.85-46.3-2.24-69.01,3.97-7.59,2.08-14.98,4.8-21.05,10.08-6.77,5.89-6.73,12.48,.02,18.37,4.59,4,10.06,6.41,15.74,8.33,16.86,5.7,34.3,7.25,53.57,7.15Z"/>
      <path class="cls-1" d="M73.02,50.24c-15.93,.05-31.74-1.23-46.96-6.23-4.86-1.6-9.7-3.72-14.01-6.45-9.34-5.9-9.31-13.59-.19-19.8,7.89-5.37,16.94-7.88,26.18-9.6,26.28-4.9,52.5-4.74,78.49,1.93,4.88,1.25,9.6,3.3,14.22,5.36,2.47,1.1,4.79,2.79,6.82,4.62,5.23,4.72,5.23,10.15,.15,15.01-4.08,3.9-9.14,6.14-14.37,8-13.32,4.72-27.17,6.49-41.21,7.12-3.02,.14-6.06,.02-9.09,.02Zm31.95-21.45c-3.41-3.45-6.53-3.54-10.07-.38-1.26,1.13-2.31,2.51-3.64,3.53-1.16,.89-2.53,1.73-3.93,2.01-.89,.18-2.44-.41-2.88-1.14-.46-.76,.05-2.11,.14-3.21,.22,.29,.45,.57,.67,.86,1.53-.08,3.14,.06,4.56-.39,.36-.11,.61-2.65,.06-3.15-2.37-2.19-4.37-.33-6.24,1.18-2.01-2.52-3.56-3.09-5.59-1.65-1.84,1.31-3.4,3.02-5.25,4.7-.22-1.01-.23-1.93-.62-2.64-.41-.76-1.18-1.34-1.79-2-.07,.81-.36,1.68-.16,2.41,.99,3.55-1.31,8.53-4.81,9.71-1.05,.35-2.76,.35-3.45-.28-.8-.72-1.24-2.38-1.06-3.51,.49-3.07,2.33-5.32,5.24-6.63,.68-.31,1.35-.63,2.17-1.02-2.22-1.34-4.86-.9-6.85,1.66-2.56,3.28-4.67,6.91-7.37,10.99,1.56-.66,2.61-1.1,3.68-1.55,3.45,3.9,6.51,4.39,10.25,1.37,1.5-1.21,2.7-2.81,3.97-4.29,1.44-1.69,2.71-3.54,4.25-5.14,.81-.84,2.04-1.28,3.08-1.9,.2,.22,.39,.44,.59,.66-.59,4.62-4.5,7.81-5.84,12.13,2.36,.73,3.87,.18,4.83-2.07,.83-1.93,2.02-3.71,3.25-5.92,1.83,3.73,4.9,2.9,7.71,2.59,.99,5.95,3.16,6.78,10.36,4.16,3.58,3.01,10.78-.58,11.88-6.14-2.73,1.75-4.33,5.12-8.78,5.2,3.85-6.86,7.39-13.16,10.98-19.54-2.28-.85-3.66-.41-4.7,1.53-1.42,2.66-3.05,5.2-4.62,7.84Zm-45.36-6.37c-.21-.28-.41-.56-.62-.83,2.53-2.64,4.99-5.35,7.63-7.87,.58-.56,1.88-.79,2.71-.59,3.03,.72,5.97,1.79,9,2.52,4.54,1.09,9.04,1.07,13.2-1.42,.95-.57,1.71-1.45,2.56-2.19-.15-.25-.29-.51-.44-.76-2.61,.24-5.24,.84-7.82,.65-7.63-.55-15.24-1.36-22.85-2.18-5.55-.6-11.05-.77-16.33,1.38-3.2,1.31-5.7,3.39-6.04,7.14-.27,2.96,1.84,5.44,4.56,5.48,3.6,.05,7.23-3.35,7.58-7.04-1.61,1.07-3.16,2.38-4.95,3.17-.83,.37-2.41,.06-3.1-.55-.56-.51-.74-2.16-.33-2.88,.8-1.41,1.89-2.95,3.27-3.68,5.85-3.1,11.9-2.4,17.33-.82-2.35,2.67-4.87,5.3-7.11,8.16-1.33,1.7-2.65,2.86-4.92,3.11-1.46,.16-2.85,1.06-4.27,1.62,.09,.23,.19,.46,.28,.69,1.73-.44,3.46-.88,5.69-1.45-.47,.95-.6,1.37-.86,1.69-1.69,2.07-3.19,4.34-5.17,6.09-2.15,1.91-4.64,3.54-7.2,4.87-1.81,.94-3.91,.67-5.24-1.26-1.42-2.06-.96-4.09,.5-5.91,.74-.92,1.72-1.64,2.88-2.72-4.26,.31-7.36,3.41-7.52,7.02-.16,3.9,2.47,7.08,6.37,7.64,4.06,.57,7.48-.77,9.95-3.94,2.99-3.86,5.69-7.95,8.58-11.88,.53-.72,1.35-1.61,2.12-1.71,2.68-.34,5.41-.37,7.92-.51,.08-.22,.33-.84,.56-1.46,.43-1.16,.91-2.3,1.18-3.5,.03-.14-1.48-.93-1.68-.76-.85,.76-1.45,1.8-2.19,2.68-.49,.59-1,1.38-1.65,1.57-1.14,.34-2.4,.29-3.62,.4Z"/>
      <path class="cls-1" d="M102.68,30.61c-.04,2.69-3.32,7.14-5.92,8-1.94,.65-3.14-.21-3.16-2.27-.02-2.88,3.18-7.09,6-7.88,1.84-.52,3.1,.36,3.07,2.14Z"/>
    </g>
  </g>
</svg>