<?xml version="1.0" encoding="UTF-8"?>
<svg id="Capa_2" data-name="Capa 2" xmlns="http://www.w3.org/2000/svg" viewBox="0 0 124.55 24.39">
  <defs>
    <style>
      .cls-1 {
        fill: #fff;
      }
    </style>
  </defs>
  <g id="Layer_1" data-name="Layer 1">
    <g>
      <path class="cls-1" d="M9.9,22.24C3.8,22.24,0,17.04,0,11.44,0,5.54,3.4,.74,9.9,.74c4.8,0,8.5,2.8,8.8,6.9h-4.2c-.2-1.9-2.2-3.4-4.5-3.4-3.4,0-5.6,2.6-5.6,7.4,0,3.3,1.7,7,5.6,7,3.6,0,4.9-1.8,4.9-4.6h-4.5v-3.3h8.4v3.4c-.1,4.7-2.2,8.1-8.9,8.1Z"/>
      <path class="cls-1" d="M21.1,21.54V1.24h3.9V21.54h-3.9Z"/>
      <path class="cls-1" d="M26.9,12.94c.3-3.3,3.3-6.3,6.6-6.6,5.2-.5,8.6,2.7,8.6,7.8,0,4.7-2.9,7.8-7.6,7.8-5.2,0-8.1-3.8-7.6-9Zm11.2,1.2c0-3-1.2-4.5-3.6-4.5s-3.6,1.5-3.6,4.5,1.2,4.5,3.6,4.5,3.6-1.5,3.6-4.5h0Z"/>
      <path class="cls-1" d="M43.9,21.54V1.24h3.9v7.4c1.1-1.6,2.6-2.3,4.4-2.3,3.8,0,6.1,3.2,6.1,7.7,0,5-2.7,8-6.4,8-1.8,0-3.2-.7-4.1-2.2v1.8h-3.9v-.1Zm10.4-7.3c0-3-1.1-4.6-3.4-4.6s-3.3,1.6-3.3,4.8c0,2.5,1.5,4.3,3.3,4.3,2,0,3.4-1.9,3.4-4.5Z"/>
      <path class="cls-1" d="M69.9,21.54c-.1-.4-.2-.9-.2-1.3-.9,1-2.5,1.7-4.5,1.7-3.4,0-5-1.7-5-4.1,0-4.3,2.9-4.8,6.8-5.3,2-.3,2.5-.7,2.5-1.7s-1-1.5-2.5-1.5c-1.8,0-2.5,.9-2.7,2.2h-3.7c.1-3.1,1.8-5.2,6.5-5.2s6.3,2.1,6.3,5.9v9.4h-3.5v-.1Zm-.2-7.3c-.4,.4-1.1,.6-2.5,.9-2.2,.4-3,1.1-3,2.3,0,1.1,.7,1.7,1.9,1.7,2,0,3.5-1.5,3.6-3.2v-1.7Z"/>
      <path class="cls-1" d="M85.8,21.54V12.54c0-2.3-.7-2.9-2.5-2.9-2.1,0-3,1.1-3,3.4v8.5h-3.9V6.64h3.6v2.2c.9-1.7,2.4-2.6,4.8-2.6,2.8,0,4.9,1.7,4.9,5v10.3h-3.9Z"/>
      <path class="cls-1" d="M101.1,15.94c-.1,1.6-.8,2.6-2.3,2.6-1.6,0-2.3-1.1-2.3-3v-6.1h6.1v-3.1h-6.1V2.64h-3.9V15.94c0,3.2,1.7,6,6.1,6s6-2.8,6-6h-3.6Z"/>
      <path class="cls-1" d="M109.5,.14c-.4-.3-1-.1-1.3,.3-.1,.2-.2,.5-.1,.7l1.8,2.6c3.4,5.1,3.4,11.8,0,16.9l-1.8,2.6c-.1,.5,.1,1,.6,1.1,.2,.1,.5,0,.7-.1l14.7-11.2c.5-.4,.6-1.1,.2-1.6-.1-.1-.1-.2-.2-.2L109.5,.14Z"/>
    </g>
  </g>
</svg>