<?xml version="1.0" encoding="UTF-8"?>
<svg id="Capa_2" data-name="Capa 2" xmlns="http://www.w3.org/2000/svg" viewBox="0 0 165 104.9">
  <defs>
    <style>
      .cls-1 {
        fill: #fff;
        fill-rule: evenodd;
      }
    </style>
  </defs>
  <g id="Capa_1-2" data-name="Capa 1">
    <path class="cls-1" d="M143.8,25.9h21.2l-2.1,11.3h-8.6l-2,10.7h7.7l-1.9,10.7h-7.7l-8.2,46.3h-12.6l14.2-79h0Zm-4.5,0h-12.9l-7.8,41.6c-.5,2.8-1,4.6-1.4,5.4-.5,.7-1,1.1-1.8,1.1-.7,0-1.2-.4-1.3-1-.1-.7,.1-2.3,.5-4.8l8-42.3h-13l-6.2,33.4c-1.2,6.3-1.9,10.5-2.1,12.5-.1,2,.2,3.9,1,5.7,.7,1.8,2.2,3.3,4.3,4.3,2.1,1.2,4.5,1.7,7.5,1.7,2.7,0,5.1-.5,7.2-1.4,2.2-.9,4-2.4,5.5-4.2s2.6-3.6,3.2-5.3c.6-1.7,1.3-4.7,2.1-9.1l7.2-37.6h0Zm-52.6,36.3c.5-6.4,1.4-14.2,2.5-23.6-3.4,10.8-5.6,18.6-6.8,23.6h4.3Zm13.1-36.3l-4,56.5h-11.9l1.3-10.2h-4.5l-2.7,10.2h-12.9l18.1-56.5h16.6Zm-26.8,0h-10.9l-4.7,25.4-2.5-25.4h-10.8l-10.6,56.5h10.9l4.8-25.7,1.9,25.7h11.3l10.6-56.5h0Zm-34.7,.4l-10.7,25.5,2.6,30.5h-11.8l-2.2-20.2-3.8,20.3H0L13,0h12.4l-6.3,45.1,7.9-18.7h11.3v-.1Z"/>
  </g>
</svg>