<?xml version="1.0" encoding="UTF-8"?>
<svg id="Capa_2" data-name="Capa 2" xmlns="http://www.w3.org/2000/svg" viewBox="0 0 262.78 34.66">
  <defs>
    <style>
      .cls-1 {
        fill: #fff;
      }
    </style>
  </defs>
  <g id="Capa_1-2" data-name="Capa 1">
    <g>
      <path class="cls-1" d="M17.57,34.66C8.36,34.8,.39,27.54,0,17.62,.07,7.83,7.49,.47,16.44,.02c10.75-.53,18,8.01,18.33,16.52,.39,10.06-7.66,18.11-17.2,18.12ZM7.91,18.03c.41,.44,.34,.86,.34,1.25,0,2.05,0,4.09,0,6.14,0,.29,0,.59,.03,.87,.06,.44,.26,.64,.69,.73,.21,.04,.43,.06,.65,.06,1.02,0,2.05,.02,3.07,0,1.1-.03,1.54-.05,1.52-1.55-.03-2.04,0-4.09,0-6.14,0-.29,0-.59,.02-.88,.03-.31,.19-.46,.48-.5,.18-.02,.36-.02,.55-.02,1.46,0,2.92,0,4.38,0,.15,0,.29,0,.44,.02,.35,.04,.52,.2,.55,.56,.03,.29,.02,.58,.02,.88,0,1.97,0,3.94,0,5.92,0,.22-.01,.44,0,.66,.05,.71,.3,1.02,1.01,1.04,1.31,.04,2.63,.04,3.94,0,.74-.03,.95-.29,.97-1.04,.02-1.17,0-2.34,0-3.5,0-1.2-.02-2.41,0-3.61,0-.71,.21-.89,.93-.9,.99-.01,1.97,0,2.96,0,.29,0,.59,.01,.88-.03,.65-.08,.91-.67,.51-1.2-.13-.17-.31-.31-.48-.45-1.26-1.05-2.5-2.13-3.79-3.15-.72-.56-1.12-1.19-1.03-2.14,.08-.87,.07-1.75,.07-2.62,0-.36-.03-.73-.09-1.09-.06-.41-.31-.68-.73-.69-.84-.02-1.68,0-2.52,.04-.33,.02-.52,.25-.55,.58-.03,.29,0,.58-.03,.87-.02,.17-.09,.33-.12,.47-.42,.09-.59-.17-.81-.36-1.19-1.02-2.39-2.04-3.58-3.05-.61-.52-.87-.51-1.52,0-.03,.02-.06,.05-.08,.07-2.15,1.81-4.29,3.63-6.44,5.44-1.45,1.23-2.9,2.45-4.35,3.67-.78,.66-1.57,1.3-2.35,1.97-.22,.19-.42,.41-.57,.65-.2,.35-.03,.76,.36,.88,.24,.07,.5,.1,.75,.1,.95,.01,1.9,0,2.85,0,.36,0,.72,.02,1.07,.03Z"/>
      <path class="cls-1" d="M109.3,2.9c1.94,.05,4.26,.46,6.41,1.55,3.41,1.73,5.77,4.38,7.01,8.02,.76,2.25,1,4.56,.62,6.9-.56,3.48-2.13,6.42-4.84,8.7-3.21,2.69-6.97,3.68-11.11,3.38-1.47-.11-2.89-.4-4.26-.94-4.35-1.72-7.29-4.77-8.53-9.3-1.02-3.73-.7-7.37,1.14-10.82,1.36-2.55,3.36-4.47,5.92-5.81,2.25-1.18,4.65-1.68,7.63-1.68Zm-.42,22.98c.06,0,.17,0,.28,0,2.74-.11,4.9-1.29,6.45-3.55,1.22-1.78,1.62-3.79,1.46-5.93-.12-1.65-.65-3.15-1.62-4.46-1.93-2.58-4.53-3.72-7.74-3.36-2.59,.29-4.61,1.55-5.98,3.77-1.34,2.19-1.64,4.56-1.06,7.06,.88,3.83,4.34,6.58,8.21,6.48Z"/>
      <path class="cls-1" d="M165.07,3.42c1.68,0,3.36-.03,5.03,0,1.66,.03,3.26,.36,4.77,1.07,2.36,1.11,3.86,2.92,4.5,5.46,.5,2,.44,4-.2,5.94-.68,2.05-2.02,3.64-4,4.57-.96,.45-.99,.71-.32,1.48,1.27,1.46,2.47,2.97,3.7,4.46,.46,.55,.69,1.17,.74,1.89,.14,1.87-1.34,3.02-3.01,2.97-.91-.03-1.71-.34-2.34-1.02-.22-.24-.46-.47-.66-.73-1.69-2.15-3.38-4.3-5.07-6.46-.14-.17-.26-.35-.41-.51-.2-.22-.45-.37-.76-.37-1.28,0-2.55,0-3.83,0-.41,0-.57,.19-.59,.63-.02,.51,0,1.02-.01,1.53,0,1.31,.02,2.63,0,3.94-.03,1.65-1.13,2.83-2.76,2.97-1.6,.14-2.97-.9-3.23-2.47-.06-.39-.09-.8-.09-1.2,0-6.82,0-13.65,0-20.47,0-.33,.03-.65,.05-.98,.07-1.32,1.31-2.76,3.03-2.72,1.82,.04,3.65,0,5.47,0,0,0,0,0,0,0Zm-2.38,5.57c-.03,.32-.08,.57-.08,.82,0,2.01,0,4.01,0,6.02,0,.22-.01,.45,.06,.65,.05,.15,.22,.28,.37,.36,.12,.06,.29,.04,.43,.04,1.68,0,3.35,.02,5.03,0,.84-.01,1.67-.13,2.47-.41,1.51-.53,2.42-1.71,2.49-3.26,.02-.4,0-.8-.08-1.2-.21-1.18-.82-2.07-1.94-2.59-.74-.35-1.51-.54-2.32-.55-1.86-.02-3.72-.02-5.58,0-.28,0-.56,.09-.86,.14Z"/>
      <path class="cls-1" d="M73.75,22.28c-.27,.4-.19,.78-.19,1.13,0,1.46,0,2.92,0,4.38,0,.36-.02,.73-.1,1.08-.33,1.45-1.39,2.32-2.87,2.39-1.28,.07-2.5-.74-2.96-2.01-.12-.33-.16-.71-.18-1.07-.03-.62-.02-1.24-.02-1.86,0-6.32,0-12.63,0-18.95,0-.47,0-.95,.06-1.42,.13-1.28,1.31-2.45,2.63-2.53,.22-.01,.44-.02,.66-.02,3.36,0,6.72-.01,10.07,0,1.77,.01,3.49,.34,5.08,1.14,2.91,1.46,4.38,3.87,4.59,7.07,.08,1.23,.04,2.47-.28,3.7-.57,2.16-1.83,3.78-3.73,4.92-.34,.21-.71,.38-1.05,.59-.2,.12-.24,.37-.11,.57,.08,.12,.18,.23,.27,.34,1.21,1.46,2.42,2.92,3.63,4.39,.21,.25,.42,.51,.58,.8,.54,.96,.63,1.97,.05,2.92-.61,1.02-1.56,1.48-2.77,1.39-1.18-.09-2.05-.64-2.76-1.56-1.67-2.17-3.38-4.31-5.07-6.46-.16-.2-.31-.41-.48-.6-.25-.29-.56-.45-.96-.45-1.24,0-2.48,0-3.72,.02-.1,0-.21,.05-.35,.09Zm-.07-13.3c-.05,.2-.11,.34-.11,.48,0,2.26,0,4.52,0,6.79,0,.17,.09,.33,.15,.53,.22,.04,.39,.09,.57,.09,1.79,0,3.58,.04,5.36-.02,.72-.02,1.45-.17,2.14-.38,1.31-.4,2.19-1.29,2.49-2.66,.1-.46,.11-.94,.08-1.41-.08-1.3-.69-2.29-1.85-2.9-.79-.42-1.63-.64-2.52-.64-1.86-.02-3.72-.01-5.58,0-.24,0-.48,.09-.72,.13Z"/>
      <path class="cls-1" d="M245.98,22.17c-.35,.45-.27,.83-.27,1.19,0,1.39,0,2.77,0,4.16,0,.36,0,.73-.04,1.09-.13,1.46-1.23,2.51-2.74,2.65-1.45,.13-2.81-.79-3.15-2.17-.09-.35-.08-.72-.08-1.09,0-3.07,0-6.13,0-9.2,0-3.83,0-7.67,0-11.5,0-.33,.03-.66,0-.99-.12-1.36,1.33-2.94,2.93-2.91,3.58,.06,7.16,0,10.73,.03,1.66,.02,3.26,.38,4.75,1.14,2.35,1.2,3.85,3.05,4.42,5.66,.38,1.75,.31,3.49-.13,5.2-.57,2.24-1.99,3.86-3.99,4.98-.22,.12-.46,.22-.68,.36-.3,.18-.34,.46-.11,.74,.18,.23,.4,.43,.58,.65,1.02,1.24,2.04,2.48,3.05,3.73,.3,.37,.59,.75,.81,1.16,.55,1.01,.56,2.04-.12,3-.67,.94-1.65,1.3-2.78,1.2-.78-.07-1.48-.37-2.05-.94-.28-.28-.55-.58-.8-.9-1.72-2.18-3.44-4.35-5.14-6.54-.36-.46-.75-.73-1.38-.71-1.27,.04-2.55,.01-3.81,.01Zm-.02-5.39c.13,.02,.3,.07,.48,.07,1.79,0,3.57,.04,5.36-.01,.75-.02,1.52-.19,2.25-.4,.82-.24,1.51-.73,1.96-1.48,.7-1.18,.75-2.42,.3-3.68-.22-.63-.63-1.13-1.19-1.53-.94-.65-1.99-.89-3.1-.9-1.71-.02-3.43,0-5.14,0-.18,0-.37,0-.55,.02-.46,.06-.64,.24-.64,.71,0,2.11,0,4.23,.01,6.34,0,.29-.02,.59,.25,.87Z"/>
      <path class="cls-1" d="M190.45,14.14c.32,.34,.66,.31,.98,.3,1.68-.02,3.36-.05,5.03-.05,1.53,0,3.06,.03,4.6,.06,1.53,.03,2.6,1.1,2.65,2.63,.05,1.46-1.06,2.63-2.57,2.71-.33,.02-.66,0-.99,0-2.92,0-5.84,0-8.76,0-.93,0-.99,.07-.99,1,0,1.39,0,2.77,0,4.16,0,.56,.16,.7,.72,.73,.29,.02,.58,.01,.88,.01,3.5,0,7.01,0,10.51,0,.18,0,.37,0,.55,0,1.69-.03,2.55,1.39,2.65,2.54,.11,1.26-.87,2.47-2.2,2.72-.36,.07-.72,.09-1.09,.09-4.6,0-9.2,0-13.8,0-.51,0-1.02-.03-1.53-.07-1.54-.13-2.64-1.26-2.68-2.8-.04-1.57-.02-3.14-.02-4.71,0-5.44,0-10.88,.01-16.31,0-.36,0-.73,.02-1.09,.14-1.5,1.22-2.55,2.72-2.65,.15,0,.29,0,.44,0,4.89,0,9.78,0,14.67,0,.22,0,.44,.02,.66,0,1.18-.07,2.53,1.03,2.58,2.6,.05,1.43-1.1,2.67-2.57,2.75-.91,.04-1.82,.03-2.74,.03-2.81,0-5.62-.02-8.43-.03-1.36,0-1.36,0-1.37,1.41,0,1.02,0,2.04,0,3.07,0,.32,.03,.65,.04,.9Z"/>
      <path class="cls-1" d="M235.67,28.4c-.04,1.21-.58,2.08-1.63,2.56-1.11,.51-2.21,.42-3.19-.37-.4-.33-.71-.74-.91-1.21-.48-1.1-.96-2.21-1.43-3.31-.53-1.26-.52-1.25-1.83-1.24-3.1,.01-6.2,0-9.31,.02-1.85,0-1.54-.15-2.22,1.44-.36,.84-.69,1.69-1.05,2.52-.16,.37-.32,.74-.54,1.08-1.04,1.63-3.37,1.87-4.62,.47-.68-.76-.9-1.66-.59-2.65,.1-.31,.23-.61,.37-.91,1.94-4.37,3.88-8.73,5.81-13.1,1.05-2.37,2.08-4.74,3.12-7.11,.21-.47,.43-.93,.65-1.39,.78-1.64,2.13-2.35,3.9-2.27,1.54,.07,2.71,.78,3.36,2.24,.95,2.13,1.92,4.25,2.86,6.38,1.78,4,3.55,8,5.32,12,.52,1.17,1.04,2.33,1.53,3.51,.18,.43,.26,.9,.38,1.35Zm-13.86-17.76c-.17,.31-.28,.49-.36,.69-.34,.81-.67,1.62-1.01,2.42-.65,1.54-1.32,3.08-1.97,4.63-.14,.33-.33,.66-.11,1.06,.25,.02,.5,.05,.75,.05,2.04,0,4.09-.02,6.13-.03,.06,0,.12-.07,.2-.11,.13-.28,.05-.55-.08-.82-.17-.36-.35-.72-.51-1.09-.79-1.88-1.57-3.77-2.36-5.65-.15-.36-.28-.75-.69-1.14Z"/>
      <path class="cls-1" d="M41.77,17.3c0-3.32,0-6.64,0-9.97,0-.33,0-.66,.03-.99,.12-1.81,1.22-2.89,3.03-2.92,1.75-.03,3.51-.01,5.26-.01,1.21,0,2.41,0,3.62,0,1.62,.01,3.2,.3,4.68,.98,2.98,1.38,4.74,3.68,5.2,6.94,.23,1.68,.16,3.34-.39,4.97-.74,2.18-2.16,3.79-4.15,4.89-1.85,1.03-3.87,1.5-5.98,1.52-1.24,.01-2.48,0-3.72,0-.18,0-.37,0-.55,0-.77,.04-.86,.12-.87,.92,0,1.13,0,2.26,0,3.4,0,.55-.05,1.09-.09,1.64-.1,1.28-1.16,2.55-3.04,2.58-1.51,.02-2.82-1.19-2.96-2.68-.02-.22,0-.44,0-.66,0-3.54,0-7.08,0-10.62,0,0-.02,0-.03,0Zm6.24-.1c.16,.06,.25,.12,.35,.12,1.64,0,3.28,.04,4.92-.02,1.04-.04,2-.41,2.82-1.05,2.02-1.58,2.08-5.61-.8-6.87-.51-.22-1.02-.43-1.57-.44-1.71-.05-3.42-.08-5.13-.09-.53,0-.73,.24-.73,.74,.01,2.29,.02,4.59,.04,6.88,0,.24,.06,.49,.09,.72Z"/>
      <path class="cls-1" d="M141.29,2.91c2.23,0,4.12,.3,5.97,.95,1.15,.4,2.2,.99,3.18,1.7,1.65,1.2,1.69,3.24,.61,4.52-.86,1.02-2.44,1.15-3.3,.78-.47-.2-.91-.47-1.33-.76-1.39-.95-2.92-1.53-4.6-1.58-3.22-.1-5.74,1.16-7.35,4.03-1.45,2.58-1.57,5.3-.6,8.03,.91,2.55,2.7,4.35,5.36,5.05,2.47,.65,4.85,.29,7.03-1.13,.46-.3,.88-.65,1.34-.94,1.81-1.16,4.17-.06,4.38,2.06,.1,.96-.3,1.79-1.03,2.43-.85,.75-1.78,1.39-2.78,1.93-1.84,.99-3.83,1.39-5.89,1.51-2.86,.18-5.6-.3-8.14-1.69-2.26-1.24-4.04-2.98-5.33-5.21-1.67-2.89-2.17-5.99-1.78-9.28,.27-2.25,1.01-4.33,2.28-6.2,1.89-2.79,4.46-4.68,7.72-5.6,1.58-.44,2.78-.59,4.26-.59Z"/>
    </g>
  </g>
</svg>