<?xml version="1.0" encoding="UTF-8"?>
<svg id="Capa_2" data-name="Capa 2" xmlns="http://www.w3.org/2000/svg" viewBox="0 0 446 220.95">
  <defs>
    <style>
      .cls-1 {
        fill: #fff;
      }
    </style>
  </defs>
  <g id="Capa_1-2" data-name="Capa 1">
    <path class="cls-1" d="M240.26,1.38c-1.45,.29-2.9,5.44-5.79,8.3-2.03,2.01-4.63,2.01-6.08,4.3-.58,.86-.29,2.58-.87,4.01-1.16,3.15-5.21,3.44-5.21,6.58,0,3.44,3.48,4.3,6.37,6.87,2.32,2.01,2.61,3.44,5.21,4.3,2.32,.86,5.79-1.72,8.97-.86,2.61,.86,5.21,1.43,5.79,4.01,.57,2.58,0,6.3-3.19,5.72-1.16,0-5.79-1.72-11.29-1.15-6.94,.86-14.77,2.86-15.34,10.59-.29,4.3,4.92,9.16,9.84,8.3,3.48-.57,1.74-4.87,3.77-6.87,2.61-2.58,16.79,8.87,30.1,8.87,5.5,0,9.84-1.43,13.9-5.72,.29-.29,.87-1.15,1.45-1.15s1.45,.57,1.74,.86c10.71,8.59,18.81,25.48,57.9,25.77,5.5,0,11.87,2.58,17.08,7.15,4.63,4.3,7.23,10.88,9.84,17.46,4.06,10.02,11,19.75,21.71,30.34,.58,.57,9.26,7.44,10.13,7.73,0,0,.87,1.72,.58,2.58-.29,6.58-1.16,25.19,13.03,26.05,3.48,.29,2.61-2.29,2.61-4.01,0-3.15-.58-6.58,1.16-9.73,2.32-4.58-4.92-6.58-4.92-16.6,.29-7.44-6.08-6.3-9.26-11.74-1.74-3.15-3.48-5.16-3.48-9.16,.58-22.62-4.92-37.5-7.52-40.94-2.03-2.86-4.06-3.72-2.03-5.16,11.87-7.73,14.48-14.89,14.48-14.89,6.37-14.6,11.87-28.05,19.68-33.78,1.45-1.15,5.5-4.3,8.1-5.44,7.23-3.44,11-5.44,13.03-7.44,3.19-3.15,6.08-10.02,2.9-14.03-4.06-5.16-10.71-1.15-13.9,.86-21.71,12.88-24.9,35.21-32.42,48.09-6.08,10.31-15.63,18.03-24.32,18.61-6.66,.57-13.61-.86-20.55-4.01-17.08-7.44-26.34-16.89-28.66-18.61-4.63-3.44-39.94-38.07-68.9-39.5,0,0-3.48-7.15-4.34-7.15-2.03-.29-4.34,4.3-5.79,4.87-1.74,.86-4.06-4.58-5.5-4.3h0ZM113.76,207.5c-2.69-.08-4.85-2.21-4.92-4.87V113.6h-29.81v98.19c0,4.87,4.06,8.87,8.68,8.87h51.52c4.92,0,8.68-4.01,8.68-8.87V113.6h-29.23v89.03c-.08,2.66-2.24,4.79-4.92,4.87h0Zm99-93.9h-44.87c-5.21,0-9.55,4.3-9.55,9.45v97.33h29.52v-89.03c0-2.86,2.32-4.87,4.92-4.87,2.9,0,4.92,2.01,4.92,4.87v89.32h29.52v-89.61c0-2.58,2.32-4.87,4.92-4.87s4.92,2.29,4.92,4.87v89.32h29.52V123.05c0-5.44-4.34-9.45-9.55-9.45h-44.3ZM59.34,193.47H29.52v26.91H0V113.6H59.63c5.21,0,9.55,4.3,9.55,9.73v60.69c0,5.44-4.34,9.45-9.84,9.45h0Zm-19.68-62.11c0-2.86-2.32-5.16-4.92-5.16h-4.92v54.11h4.92c2.61,0,4.92-2.01,4.92-5.16v-43.8h0Zm274.3,89.61v-26.81h-10.17v26.81h-29.64V123.98c0-5.42,4.36-9.41,9.59-9.41h49.97c5.23,0,9.59,4.28,9.59,9.41v96.97h-29.34Zm0-39.94v-48.77c0-2.57-2.33-4.85-4.94-4.85s-4.94,2.28-4.94,4.85v49.05l9.88-.29h0Z"/>
  </g>
</svg>