<?xml version="1.0" encoding="UTF-8"?>
<svg id="Capa_2" data-name="Capa 2" xmlns="http://www.w3.org/2000/svg" viewBox="0 0 1759.54 743.54">
  <defs>
    <style>
      .cls-1 {
        fill: #fff;
      }
    </style>
  </defs>
  <g id="Full_Color_-_Flat_-_CMYK" data-name="Full Color - Flat - CMYK">
    <g>
      <path class="cls-1" d="M1684.14,414.25c3.99,0,75.4,.02,75.4,.02v-66.19s-71.81-.14-75.41-.14c-4.78,0-6.67-1.99-6.67-6.39s-.03-60.28-.03-60.28l-81.86,.03v272.86c0,51.99,16.41,68.2,82.4,68.2,28.4,0,81.57-.14,81.57-.14v-68.06s-31.7-.09-61.11-.09c-13.97,0-21-6.76-21-23.05v-110.12c0-3.73,2.72-6.65,6.71-6.65Z"/>
      <path class="cls-1" d="M1442.97,349.02h-49.49c-73.68,2.35-108.3,19.34-108.3,135.37s36.66,140.9,108.3,140.9h49.49c71.64,0,108.3-26.8,108.3-140.9s-34.61-133.02-108.3-135.37Zm-24.74,209.58c-43.79-1.55-50.8-11.41-50.8-73.65,0-58.79,6.26-68.62,50.8-70.28,44.53,1.66,50.8,11.49,50.8,70.28-.01,62.24-7.01,72.09-50.8,73.65Z"/>
      <rect class="cls-1" x="1166.23" y="281.3" width="75.07" height="341.03"/>
      <path class="cls-1" d="M958.18,348.62c-50.23,0-77.81-.18-77.81-.18l.11,395.1,77.36-.3v-116.64c103.29,0,164.79,.19,164.79-142.21,.01-142.37-51.89-135.77-164.45-135.77Zm-.06,210.3v-144.62c73.97,0,82.26,0,82.26,70.65,0,75.07-9.3,73.97-82.26,73.97Z"/>
      <path class="cls-1" d="M748.34,348.5c-4.94-.61-9.94-1-14.93-1h-20.79c-5,0-9.97,.39-14.92,1-17.32,2.12-34.69,8.31-49.37,19.19-14.67-10.88-32.04-17.07-49.35-19.19-4.94-.61-9.93-1-14.92-1h-20.79c-5,0-9.98,.39-14.92,1-43.47,5.32-87.49,35.73-87.49,103.98v169.85h76.68v-172.28c0-17.19,9.14-26.66,25.73-26.66h20.79c16.59,0,25.73,9.47,25.73,26.66v172.28h77.11v-172.28c0-17.19,9.13-26.66,25.72-26.66h20.79c16.6,0,25.73,9.47,25.73,26.66v172.28h76.68v-169.85c0-68.25-44.03-98.65-87.48-103.98Z"/>
      <rect class="cls-1" x="339.53" y="354.47" width="76.75" height="267.86"/>
      <path class="cls-1" d="M300.26,501.88c-4.98-41.66-33.09-90.51-95.74-92.14H98.16c-13.21,0-22.47-10.1-22.47-22.53v-9.62c0-12.43,9.37-22.53,22.47-22.53h186.3v-74.91H104.97c-68.25,0-98.64,41.72-103.98,85.84-.6,5.01-.99,10.07-.99,15.15s.36,9.81,1.01,15.51c5.19,43.59,35.52,94.61,103.95,94.61h97.9c13.19,0,22.48,10.17,22.48,22.58v9.64c0,12.42-9.53,22.45-22.48,22.45H7.71v76.44H196.29c68.26,0,98.66-45.74,104-89.81,.6-5.06,.97-10.1,.97-15.18,.01-4.95-.33-9.86-1-15.5Z"/>
      <path class="cls-1" d="M939.15,154.95c-.39,.35-.95,.43-1.42,.22-.48-.21-.78-.69-.78-1.21,0-.26-.09-26.22-7.14-58.15-6.43-29.1-20.1-69.2-48.81-95.81-30.37,26.98-44.84,67.1-51.63,96.15-7.45,31.83-7.54,57.56-7.54,57.82,0,.53-.31,1-.79,1.21s-1.04,.12-1.43-.24c-.1-.09-9.94-8.97-33.3-15.85-38.51-11.35-83.92-8.77-115.74-4.48,1.98,6.61,12.74,38.72,41.56,70.7,18.11,20.1,39.71,36.11,64.17,47.57,30.45,14.27,65.49,21.5,104.14,21.5,148.5,0,198.08-107.43,209.78-140.54-32.1-4.08-77.9-6.35-117.14,5.23-23.75,6.98-33.83,15.79-33.93,15.88Z"/>
    </g>
  </g>
</svg>