<?xml version="1.0" encoding="UTF-8"?>
<svg id="Capa_2" data-name="Capa 2" xmlns="http://www.w3.org/2000/svg" viewBox="0 0 130.6 110.1">
  <defs>
    <style>
      .cls-1 {
        fill: #fff;
        fill-rule: evenodd;
      }
    </style>
  </defs>
  <g id="Layer_1" data-name="Layer 1">
    <g>
      <g>
        <path class="cls-1" d="M80.3,14l-8.7,24h-12.3l-8.7-24.1c-3.2,1.9-6,4.3-8.4,7.2h0l12.4,32.2,4.6-11.8h11.9l4.6,11.8,12.5-32.6c-2.2-2.7-4.9-5-7.9-6.7h0Z"/>
        <path class="cls-1" d="M73,10.9c-2.4-.6-5-1-7.6-1s-5,.3-7.4,.9l7.5,20.9,7.5-20.8h0Z"/>
        <path class="cls-1" d="M35.6,39.7c0,11.2,6.2,21,15.5,26h0l-13.8-35.9c-1.1,3.1-1.7,6.4-1.7,9.9h0Z"/>
        <path class="cls-1" d="M65.1,47.8l-7.7,19.9v.6c2.5,.7,5.2,1.1,8,1.1,2.6,0,5.1-.3,7.5-.9l-.1-.8s-7.7-19.9-7.7-19.9Z"/>
        <path class="cls-1" d="M93.2,29.1l-14.1,36.9c9.5-5,16-14.9,16-26.3,0-3.7-.7-7.3-1.9-10.6h0Z"/>
        <path class="cls-1" d="M65.4,0h0C43.5,0,25.7,17.8,25.7,39.7s17.8,39.6,39.7,39.6,39.6-17.8,39.6-39.6S87.2,0,65.4,0Zm0,74.2c-19,0-34.6-15.5-34.6-34.6S46.4,5,65.4,5h0c19,0,34.6,15.6,34.6,34.6s-15.6,34.6-34.6,34.6Z"/>
      </g>
      <path class="cls-1" d="M10.2,104.9H6.2L0,88H4l3.2,9.5c.4,1.1,.7,2.2,1,3.4,.3-1.2,.6-2.2,1-3.3l3.3-9.6h4l-6.3,16.9h0Zm13.9-5.2c0,1.4-1,2.7-2.5,2.7-1.3,0-2.5-1.1-2.5-2.6,0-1.4,1-2.7,2.5-2.7,1.4-.1,2.5,1.1,2.5,2.6h0Zm3.4,0c0-3.2-2.5-5.6-5.9-5.6s-5.9,2.4-5.9,5.5c0,3.3,2.5,5.6,5.8,5.6,3.8,.1,6-2.7,6-5.5Zm2.6,5.2v-17.8h3.4v17.8h-3.4Zm13.1,0l-3.3-4.9v4.9h-3.4v-17.8h3.4v11.7l3.3-4.3h4.1l-4,4.8,4.3,5.6h-4.4Zm9.5,.3c-2.4,0-3.6-.8-4.3-2.5l2.9-1.1c.3,.7,.8,1.2,1.5,1.2s1.1-.3,1.1-.7c0-1.5-5.1-.9-5.1-4.5,0-1.9,1.6-3.5,4.2-3.5,2,0,3.3,.7,4,2.4l-2.7,1c-.3-.8-.9-1.1-1.5-1.1-.4,0-.9,.3-.9,.7,0,1.7,5.1,.9,5.1,4.6,0,2.3-1.9,3.5-4.3,3.5h0Zm20.6-.3h-3.2l-1.8-5.1c-.2-.5-.3-1-.4-1.6-.1,.5-.2,1.1-.4,1.6l-1.8,5.1h-3.3l-4.5-10.4h3.5l2,5c.2,.6,.4,1.2,.6,1.8,.2-.6,.3-1.3,.5-1.8l1.8-5.1h3.5l1.6,4.8c.2,.7,.4,1.4,.6,2.1,.2-.8,.5-1.5,.7-2.1l1.8-4.8h3.4l-4.6,10.5h0Zm13.7-5c0,1.4-.9,2.7-2.5,2.7s-2.6-1.3-2.6-2.8,1.1-2.7,2.5-2.7c1.6,0,2.6,1.3,2.6,2.8Zm3.2,5v-10.4h-3.3v1.2c-.6-.9-1.8-1.5-3.3-1.5-3.2,0-5.2,2.4-5.2,5.7s1.8,5.4,4.9,5.4c1.6,0,2.7-.6,3.6-1.4v1.1h3.3v-.1Zm10.9-5.3c0,1.4-.9,2.6-2.4,2.6s-2.5-1.1-2.5-2.6c0-1.4,1-2.5,2.4-2.5,1.7,0,2.5,1.4,2.5,2.5h0Zm3.3,4.3v-9.4h-3.3v1.2c-.6-1-1.8-1.5-3.3-1.5-2.8,0-5,2.3-5,5.5,0,2.8,1.6,5.2,4.9,5.2,1.3,0,2.5-.4,3.4-1.4v1.5c0,1.7-.8,2.6-2.3,2.6-1,0-2-.6-2-1.6h-3.3c0,2.3,1.9,4.1,5.1,4.1,1.9,0,3.4-.4,4.5-1.6,.9-1.1,1.3-2.3,1.3-4.6h0Zm10-5.4h-4.2c.1-1.2,.9-2,2.1-2,1.4,0,2.1,1,2.1,2Zm3.3,1.1c0-3.5-2.2-5.4-5.3-5.4s-5.5,2.4-5.5,5.7c0,3.7,2.6,5.5,5.4,5.5,2.4,0,3.9-.8,5.1-2.4l-2.2-1.4c-.7,.9-1.5,1.4-2.6,1.4-1.5,0-2.5-1-2.5-2.3h7.5c.1-.6,.1-.9,.1-1.1h0Zm9.6,5.3v-5.8c0-.9-.3-2.1-1.6-2.1-.7,0-2.1,.4-2.1,2.3v5.5h-3.4v-10.4h3.4v1.4c.5-.7,1.5-1.6,3.4-1.6,1.3,0,2.2,.5,2.7,1,.7,.7,.9,1.5,.9,3v6.6l-3.3,.1h0Z"/>
    </g>
  </g>
</svg>