<?xml version="1.0" encoding="UTF-8"?>
<svg id="Capa_2" data-name="Capa 2" xmlns="http://www.w3.org/2000/svg" viewBox="0 0 150.96 133.84">
  <defs>
    <style>
      .cls-1 {
        fill: #4a5058;
      }
    </style>
  </defs>
  <g id="Capa_1-2" data-name="Capa 1">
    <g>
      <path class="cls-1" d="M150.96,21.83V12.81h-9.02V.16h-9.02V12.81h-15.6V.16h-9.02V12.81h-15.49V.62h-9.02V12.81h-15.72V.16h-9.02V12.81h-10.06v9.02h10.06v12.27h9.02v-12.27h15.72v12.27h9.02v-12.27h15.49v17.45h-7.05v9.02h7.05v14.56h-7.05v9.02h7.05v12.48h9.02v-12.48h15.6v12.48h9.02v-12.48h9.02v-9.02h-9.02v-14.56h9.02v-9.02h-9.02V21.83h9.02Zm-18.03,41.03h-15.6v-14.56h15.6v14.56Zm0-23.58h-15.6V21.83h15.6v17.45Z"/>
      <polygon class="cls-1" points="92.8 90.03 92.8 42.64 43.18 42.64 43.18 0 0 0 0 133.84 150.33 133.84 150.33 90.03 92.8 90.03"/>
    </g>
  </g>
</svg>