<?xml version="1.0" encoding="UTF-8"?>
<svg id="Capa_2" data-name="Capa 2" xmlns="http://www.w3.org/2000/svg" viewBox="0 0 197.21 75.15">
  <defs>
    <style>
      .cls-1 {
        fill: #fff;
      }
    </style>
  </defs>
  <g id="Capa_1-2" data-name="Capa 1">
    <g>
      <path class="cls-1" d="M27.35,75.15c-.71-1.48-1.52-2.93-2.11-4.45-1.88-4.86-3.68-9.75-5.51-14.63-.14-.36-.24-.74-.4-1.24h26.75c-5.14,6.92-10.13,13.62-15.11,20.32h-3.63Z"/>
      <path class="cls-1" d="M197.21,57.36c-.18,.57-.37,1.13-.55,1.7-1.2,3.75-3.83,5.47-7.93,5.17-3.97-.3-6.5-2.4-6.95-6.21-.22-1.84-.13-3.84,.34-5.63,1.35-5.17,8.66-7.21,12.57-3.5,1.02,.97,1.46,2.56,2.13,3.88,.2,.39,.27,.85,.4,1.27v3.32Zm-3.79-1.59c-.1-.78-.12-1.44-.27-2.07-.51-2.19-1.7-3.29-3.51-3.31-2.07-.01-3.65,1.16-4.06,3.31-.24,1.26-.26,2.61-.1,3.89,.25,1.93,1.84,3.24,3.73,3.35,1.92,.12,3.23-.85,3.81-2.93,.21-.77,.28-1.57,.4-2.24Z"/>
      <path class="cls-1" d="M17.55,50.06c-1.56-4.1-3.05-8.02-4.53-11.95C8.89,27.18,4.77,16.24,.66,5.3,.22,4.14-.37,3,.3,1.7,.99,.34,2.34-.33,3.77,.16c7.14,2.41,14.28,4.85,21.41,7.27,.77,.26,1.31,.51,1.09,1.56-2.83,13.44-5.62,26.88-8.43,40.32-.04,.19-.14,.36-.3,.75Z"/>
      <path class="cls-1" d="M40.07,12.68c1.98,.64,3.69,1.15,5.37,1.73,5.75,1.98,11.49,3.98,17.24,5.99,.71,.25,1.41,.54,2.08,.89,2.84,1.5,3.45,3.69,1.63,6.32-1.71,2.48-3.54,4.88-5.34,7.3-3.52,4.72-7.05,9.42-10.58,14.12-.29,.39-.63,.75-1.11,1.32-3.1-12.59-6.15-24.97-9.28-37.68Z"/>
      <path class="cls-1" d="M100.47,63.85c-1.09,0-2.05,.11-2.95-.05-.39-.07-.82-.62-1.01-1.05-.56-1.22-.67-2.96-1.59-3.6-.93-.64-2.61-.24-3.96-.24-1.31,0-2.93-.41-3.83,.21-.89,.61-1.06,2.27-1.52,3.48-.42,1.11-2.12,1.79-3.48,1.08-.42-.22-.61-1.5-.41-2.14,2.01-6.57,4.12-13.1,6.19-19.64,.24-.77,.69-1.06,1.54-1.08,4.22-.11,4.33-.18,5.56,3.77,1.87,5.97,3.56,12,5.31,18.01,.08,.28,.07,.59,.15,1.26Zm-6.42-8.68c-.98-3.34-1.9-6.48-2.82-9.62-.14,.02-.28,.03-.42,.05-.9,3.15-1.8,6.31-2.73,9.57h5.97Z"/>
      <path class="cls-1" d="M30.19,9.54c1.43-.15,2.04,.32,1.98,1.67-.41,10.03-.79,20.06-1.19,30.1-.11,2.71-.25,5.42-.32,8.13-.02,.89-.34,1.24-1.26,1.22-1.95-.05-3.91-.02-6.18-.02,2.34-13.81,4.65-27.45,6.96-41.09Z"/>
      <path class="cls-1" d="M34.36,11.1c1.42-.32,1.88,.31,2.09,1.43,1.14,6.01,2.32,12.01,3.47,18.01,1.17,6.11,2.28,12.22,3.52,18.31,.29,1.41-.07,1.82-1.44,1.75-1.51-.08-3.02-.05-4.53-.01-.86,.02-1.23-.24-1.27-1.19-.38-8.52-.82-17.04-1.24-25.56-.19-3.71-.4-7.42-.59-11.13-.03-.54,0-1.07,0-1.61Z"/>
      <path class="cls-1" d="M83.06,28.43c1.96,0,3.88,.06,5.78-.02,.94-.04,2-.11,2.76-.57,.77-.47,1.65-1.4,1.71-2.2,.07-.78-.64-1.9-1.34-2.42-1.02-.76-2.33-1.13-3.52-1.66-.78-.35-1.61-.61-2.34-1.03-2.43-1.4-3.49-3.53-3.14-6.31,.32-2.63,1.74-4.44,4.23-5.37,2.51-.93,5.83-.75,9.23,.47v2.55c-1.21,0-2.4-.02-3.59,0-.95,.02-1.91,.05-2.86,.14-1.36,.13-2.22,.88-2.47,2.24-.24,1.35,.26,2.43,1.47,3.01,1.71,.83,3.52,1.48,5.24,2.28,2.04,.94,3.41,2.42,3.6,4.8,.39,4.67-2.17,7.35-7.55,7.63-1.79,.09-3.62-.11-5.4-.34-2.19-.29-2.44-.78-1.82-3.2Z"/>
      <path class="cls-1" d="M110.72,21.37c-.29-2.41-.91-3.05-3.13-3.16-1.31-.07-2.62,.04-3.92-.07-.39-.03-.98-.48-1.05-.83-.13-.59-.43-1.43,.64-1.69,2.72-.66,5.44-1.08,8.18-.18,2.18,.72,3.22,2.08,3.24,4.35,.03,3.81,0,7.63,0,11.49-1.36,.68-2.33,.21-3.02-.88-1.46,.53-2.78,1.18-4.17,1.48-4.32,.91-7.11-1.64-6.71-6.01,.21-2.23,1.57-3.65,4.17-4.04,1.88-.28,3.8-.31,5.78-.46Zm-.06,2.72c-1.32,.07-2.58,0-3.79,.22-1.59,.29-2.37,1.46-2.08,2.78,.32,1.45,1.66,2.22,3.26,1.88,2.43-.53,2.92-1.37,2.61-4.87Z"/>
      <path class="cls-1" d="M135,55.72c-.03-6.38,4.36-9.9,10.38-8.35,2.37,.61,3.84,2.13,4.58,4.37,.88,2.66,.86,5.34-.06,7.99-.87,2.5-2.6,4.07-5.28,4.29-1.43,.12-2.94,.13-4.33-.19-3.52-.82-5.27-3.62-5.29-8.09Zm3.72-.23c.18,.93,.25,1.89,.56,2.77,.63,1.81,1.96,2.65,3.81,2.57,1.72-.07,2.75-.88,3.36-2.71,.62-1.87,.61-3.75-.14-5.58-.62-1.5-1.78-2.23-3.42-2.2-2.52,.04-4.03,1.96-4.16,5.15Z"/>
      <path class="cls-1" d="M103.87,63.92v-16.48c.87,.22,1.81,.19,2.33,.65,.69,.61,1.16,.56,1.85,.19,1.98-1.05,4.07-1.4,6.28-.9,1.98,.45,3.24,1.51,3.35,3.54,.23,4,.21,8.02,.22,12.04,0,.3-.56,.81-.91,.86-.88,.13-1.79,.04-2.91,.04-.07-1.29-.16-2.52-.18-3.75-.05-2.31,.08-4.64-.18-6.92-.11-.95-.91-2.49-1.55-2.57-1.33-.17-2.78,.42-4.14,.81-.19,.05-.23,.81-.23,1.24-.02,3.11-.1,6.23,.03,9.34,.06,1.5-.54,1.96-1.87,1.92-.64-.02-1.29,0-2.09,0Z"/>
      <path class="cls-1" d="M121.94,16.58c2.42-1.26,4.75-2.09,7.38-1.42,2.42,.62,3.52,1.83,3.57,4.33,.07,3.61,.06,7.22,.07,10.83,0,.3-.05,.6-.08,1.02h-3.98c0-1.93,0-3.82,0-5.71,0-1.35,.03-2.71,0-4.06-.08-3.02-1.38-3.95-4.28-3.17-1.23,.33-1.84,.89-1.8,2.29,.1,3.55,.03,7.1,.03,10.79h-3.89V15.53c1.28-.56,2.21-.1,2.99,1.05Z"/>
      <path class="cls-1" d="M164.77,63.86c0-1.41,.02-2.65,0-3.89-.05-2.41-.07-4.82-.21-7.22-.06-1.09-.54-2.32-1.77-2.26-1.38,.07-2.75,.64-4.08,1.12-.18,.07-.15,.84-.15,1.28-.01,3.55,0,7.11,0,10.76h-3.82c-.03-.38-.1-.76-.1-1.14,0-4.52-.02-9.04,.02-13.56,0-.47,.27-1.29,.51-1.33,.57-.1,1.48-.02,1.76,.35,.69,.91,1.26,.69,2.04,.24,2.09-1.18,4.32-1.27,6.58-.66,1.7,.46,2.93,1.51,2.99,3.35,.13,4.01,.14,8.03,.13,12.05,0,.31-.56,.84-.9,.88-.92,.12-1.88,.04-3,.04Z"/>
      <path class="cls-1" d="M131.94,50.5c-1.28,.1-2.47,.19-3.72,.28,0,2.87-.1,5.71,.04,8.54,.07,1.44,1.31,1.73,2.57,1.76,.76,.02,1.62-.24,1.73,1.06,.11,1.25-.6,1.71-1.54,1.77-1.48,.1-3.01,.16-4.46-.09-1.6-.28-2.42-1.67-2.46-3.7-.05-2.61-.07-5.22-.01-7.83,.02-1.09-.19-1.68-1.46-1.68-.47,0-1.18-.5-1.35-.94-.29-.76,0-1.52,.99-1.65,1.42-.19,1.99-.97,1.81-2.37-.2-1.56,.87-1.52,1.93-1.51,1.07,0,2.25-.16,2.04,1.54-.15,1.21,.22,1.84,1.63,1.83,2.69-.03,2.69,.04,2.28,2.99Z"/>
      <path class="cls-1" d="M177.33,47.6c0,5.29,.02,10.25-.04,15.2,0,.36-.52,.92-.9,1.03-.6,.18-1.33,.19-1.93,0-.42-.13-1-.69-1.01-1.07-.07-4.71-.06-9.42,0-14.12,0-.35,.54-.94,.89-.99,.92-.14,1.87-.05,2.99-.05Z"/>
      <path class="cls-1" d="M177.3,41.78v2.95h-3.78v-2.95h3.78Z"/>
    </g>
  </g>
</svg>